<?xml version="1.0" encoding="UTF-8"?>
<svg id="Layer_1" xmlns="http://www.w3.org/2000/svg" viewBox="0 0 76 78">
  <defs>
    <style>
      .cls-1 {
        fill: #6a6a6a;
      }
    </style>
  </defs>
  <polygon class="cls-1" points="37.87 52.21 37.87 52.22 37.87 52.22 37.87 52.22 28.93 58.94 32.32 69.94 37.87 69.94 37.87 69.94 43.43 69.94 46.81 58.94 37.87 52.22 37.87 52.21"/>
  <path class="cls-1" d="M58.05,38.09l-3.09-2.92v-13.17s.61-3.78-6.78-9l-7.83-4.89-2.25-.05h0s-.1,0-.1,0h-.1s0,0,0,0l-2.25.05-7.83,4.89c-7.39,5.22-6.78,9-6.78,9v13.17l-3.09,2.92c-.5.47-.62,1.21-.33,1.83,2.07,4.38,5.63,7.16,9.92,9.84l5.32.82s.07-.04.05-.07l-2.7-4.5v-12l-5.89-4.44v-6.22h5.39l5.61,5.61v7.33c0,4.35,1.97,6.14,2.59,6.59v.13s.04-.02.1-.06c.06.04.1.06.1.06v-.13c.62-.46,2.59-2.24,2.59-6.59v-7.33l5.61-5.61h5.39v6.22l-5.89,4.44v12l-2.7,4.5s0,.08.05.07l5.32-.82c4.29-2.68,7.85-5.46,9.92-9.84.29-.62.17-1.36-.33-1.83Z"/>
</svg>