<svg width="224" height="224" viewBox="0 0 224 224" fill="none" xmlns="http://www.w3.org/2000/svg">
<rect width="224" height="224" fill="#181818"/>
<path d="M162.883 56.0233C166.734 56.0233 169.7 56.8559 171.782 58.5212C173.967 60.1865 175.06 62.4763 175.06 65.3905C175.06 66.8477 174.852 68.2528 174.436 69.6058L170.377 84.1251C169.648 86.8312 168.451 88.7567 166.786 89.9016C165.121 91.0465 162.935 91.6189 160.229 91.6189C157.627 91.6189 155.545 91.0985 153.984 90.0577C152.423 88.9128 151.278 87.0914 150.549 84.5935L148.051 75.6945C147.635 74.1333 147.115 73.0925 146.49 72.5721C145.866 72.0517 144.565 71.7915 142.587 71.7915H126.975L118.232 102.704H121.198C122.656 102.704 123.905 102.495 124.945 102.079C126.09 101.663 127.287 100.882 128.536 99.7372L133.376 95.6781C135.145 94.1168 136.707 93.024 138.06 92.3995C139.517 91.6709 141.026 91.3067 142.587 91.3067C144.565 91.3067 146.178 91.8791 147.427 93.024C148.78 94.1689 149.456 95.7821 149.456 97.8638C149.456 98.6964 149.3 99.6852 148.988 100.83L142.119 124.56C140.557 129.66 137.747 132.21 133.688 132.21C130.358 132.21 127.756 130.493 125.882 127.058L123.072 121.75C122.343 120.293 121.667 119.356 121.042 118.94C120.418 118.524 119.481 118.316 118.232 118.316H113.705L107.148 141.578C106.939 142.202 106.835 143.035 106.835 144.076C106.835 145.533 107.148 146.73 107.772 147.666C108.501 148.603 109.541 149.592 110.894 150.633C112.039 151.569 112.82 152.35 113.236 152.975C113.653 153.495 113.861 154.171 113.861 155.004C113.861 156.878 113.028 158.179 111.363 158.907C109.698 159.636 107.252 160 104.025 160H64.8387C62.1326 160 60.103 159.532 58.75 158.595C57.3969 157.554 56.9286 156.149 57.3449 154.38C57.553 153.443 57.9694 152.714 58.5939 152.194C59.1143 151.569 59.9469 150.893 61.0918 150.164C62.8612 149.124 64.2663 148.031 65.3071 146.886C66.3479 145.741 67.1805 143.972 67.805 141.578L87.0079 74.2894C87.4242 72.9364 87.6324 71.6874 87.6324 70.5425C87.6324 69.2936 87.4242 68.2528 87.0079 67.4201C86.6957 66.5875 86.1753 65.7028 85.4467 64.7661C84.51 63.413 84.0416 62.3202 84.0416 61.4875C84.0416 61.1753 84.1457 60.6028 84.3539 59.7702C84.7702 58.4171 85.7069 57.4804 87.164 56.96C88.6212 56.3355 90.7548 56.0233 93.565 56.0233H162.883Z" fill="white"/>
</svg>
