<?xml version="1.0" encoding="UTF-8"?>
<svg id="_레이어_1" data-name="레이어 1" xmlns="http://www.w3.org/2000/svg" xmlns:xlink="http://www.w3.org/1999/xlink" viewBox="0 0 17 17">
  <defs>
    <style>
      .cls-1 {
        fill: #f0b61a;
      }

      .cls-2 {
        fill: none;
      }

      .cls-3 {
        fill: #38a052;
      }

      .cls-4 {
        fill: #dc4336;
      }

      .cls-5 {
        fill: #4779bd;
      }

      .cls-6 {
        clip-path: url(#clippath);
      }
    </style>
    <clipPath id="clippath">
      <rect class="cls-2" x=".19" width="17" height="17"/>
    </clipPath>
  </defs>
  <g class="cls-6">
    <g>
      <path class="cls-5" d="M16.85,8.69c0-.6-.05-1.18-.15-1.74h-8.01v3.29h4.57c-.2,1.06-.8,1.96-1.7,2.57v2.13h2.75c1.61-1.48,2.53-3.66,2.53-6.25h0Z"/>
      <path class="cls-3" d="M8.69,17c2.3,0,4.22-.76,5.63-2.06l-2.75-2.13c-.76.51-1.73.81-2.88.81-2.21,0-4.09-1.5-4.76-3.5H1.1v2.2c1.4,2.78,4.27,4.68,7.6,4.68Z"/>
      <path class="cls-1" d="M3.94,10.11c-.17-.51-.27-1.05-.27-1.61s.1-1.1.27-1.61v-2.2H1.1c-.58,1.15-.9,2.45-.9,3.82s.33,2.67.9,3.82l2.84-2.2h0Z"/>
      <path class="cls-4" d="M8.69,3.38c1.25,0,2.37.43,3.25,1.27l2.44-2.44c-1.47-1.37-3.4-2.21-5.69-2.21C5.37,0,2.5,1.9,1.1,4.68l2.84,2.2c.67-2.01,2.54-3.5,4.76-3.5Z"/>
    </g>
  </g>
</svg>