<?xml version="1.0" encoding="UTF-8"?>
<svg id="_레이어_1" data-name="레이어 1" xmlns="http://www.w3.org/2000/svg" xmlns:xlink="http://www.w3.org/1999/xlink" viewBox="0 0 48 48">
  <defs>
    <style>
      .cls-1 {
        fill: #e8e7eb;
      }

      .cls-2 {
        fill: #fff;
      }

      .cls-3 {
        mask: url(#mask);
      }

      .cls-4 {
        fill: #fbbc04;
      }

      .cls-5 {
        fill: #4285f4;
      }

      .cls-6 {
        fill: none;
      }

      .cls-7 {
        fill: #34a853;
      }

      .cls-8 {
        clip-path: url(#clippath-1);
      }

      .cls-9 {
        fill: #e94235;
      }
    </style>
    <clipPath id="clippath-1">
      <rect class="cls-6" x="0" width="48" height="48"/>
    </clipPath>
    <mask id="mask" x="12" y="12" width="24" height="24" maskUnits="userSpaceOnUse">
      <g id="mask0_89_17541" data-name="mask0 89 17541">
        <path class="cls-2" d="M36,12H12v24h24V12Z"/>
      </g>
    </mask>
  </defs>
  <g class="cls-8">
    <g>
      <path class="cls-1" d="M48,24C48,10.75,37.25,0,24,0S0,10.75,0,24s10.75,24,24,24,24-10.75,24-24Z"/>
      <g class="cls-3">
        <g>
          <path class="cls-5" d="M35.52,24.27c0-.85-.08-1.67-.22-2.45h-11.3v4.64h6.46c-.28,1.5-1.12,2.77-2.39,3.62v3.01h3.88c2.27-2.09,3.58-5.17,3.58-8.82Z"/>
          <path class="cls-7" d="M24,36c3.24,0,5.96-1.07,7.94-2.91l-3.88-3.01c-1.07.72-2.45,1.15-4.06,1.15-3.13,0-5.77-2.11-6.71-4.95h-4.01v3.11c1.97,3.92,6.03,6.61,10.72,6.61Z"/>
          <path class="cls-4" d="M17.29,26.28c-.24-.72-.38-1.49-.38-2.28s.14-1.56.38-2.28v-3.11h-4.01c-.81,1.62-1.28,3.45-1.28,5.39s.46,3.77,1.28,5.39l4.01-3.11Z"/>
          <path class="cls-9" d="M24,16.77c1.76,0,3.34.61,4.59,1.79l3.44-3.44c-2.08-1.94-4.79-3.13-8.03-3.13-4.69,0-8.75,2.69-10.72,6.61l4.01,3.11c.94-2.84,3.59-4.95,6.71-4.95Z"/>
        </g>
      </g>
    </g>
  </g>
</svg>