<svg width="20" height="17" viewBox="0 0 21 18" fill="none" xmlns="http://www.w3.org/2000/svg">
<g clip-path="url(#clip0_1128_1429)">
<mask id="path-1-inside-1_1128_1429" fill="white">
<path fill-rule="evenodd" clip-rule="evenodd" d="M9.40237 1.55677C7.26505 -0.41929 3.92964 -0.369096 1.85319 1.70736C-0.223261 3.78381 -0.273455 7.11922 1.70261 9.25653L1.6993 9.25984L10.5609 18.1215L18.2667 10.4157L18.2665 10.4155L19.2465 9.43562L19.2684 9.41382L19.2902 9.3919L19.4225 9.25956L19.4196 9.25659C21.395 7.11925 21.3446 3.7843 19.2684 1.70805C17.1921 -0.368198 13.8572 -0.418588 11.7199 1.55688L11.7168 1.55379L10.5608 2.70978L9.60773 1.75674C9.5916 1.7402 9.57534 1.72374 9.55896 1.70736C9.54258 1.69097 9.52612 1.67472 9.50958 1.65859L9.40507 1.55407L9.40237 1.55677Z"/>
</mask>
<path d="M1.85319 1.70736L3.2674 3.12157L1.85319 1.70736ZM9.40237 1.55677L8.04464 3.0253L9.45672 4.33085L10.8166 2.97099L9.40237 1.55677ZM1.70261 9.25653L3.11682 10.6707L4.47668 9.31089L3.17113 7.8988L1.70261 9.25653ZM1.6993 9.25984L0.285084 7.84563L-1.12913 9.25984L0.285085 10.6741L1.6993 9.25984ZM10.5609 18.1215L9.14672 19.5357L10.5609 20.9499L11.9751 19.5357L10.5609 18.1215ZM18.2667 10.4157L19.6809 11.8299L21.0951 10.4157L19.6809 9.0015L18.2667 10.4157ZM18.2665 10.4155L16.8523 9.00133L15.4381 10.4155L16.8523 11.8298L18.2665 10.4155ZM19.2465 9.43562L17.8362 8.01748L17.8323 8.0214L19.2465 9.43562ZM19.2684 9.41382L20.6787 10.832L20.6865 10.8241L19.2684 9.41382ZM19.2902 9.3919L17.876 7.97768L17.8721 7.98162L19.2902 9.3919ZM19.4225 9.25956L20.8367 10.6738L22.251 9.25956L20.8367 7.84535L19.4225 9.25956ZM19.4196 9.25659L17.9508 7.89909L16.6457 9.31116L18.0054 10.6708L19.4196 9.25659ZM11.7199 1.55688L10.3056 2.97109L11.6653 4.33074L13.0774 3.02562L11.7199 1.55688ZM11.7168 1.55379L13.131 0.139575L11.7168 -1.27464L10.3025 0.139575L11.7168 1.55379ZM10.5608 2.70978L9.14656 4.12399L10.5608 5.53821L11.975 4.12399L10.5608 2.70978ZM9.60773 1.75674L8.176 3.15321L8.1847 3.16214L8.19352 3.17095L9.60773 1.75674ZM9.50958 1.65859L8.09537 3.0728L8.10418 3.08162L8.11311 3.09032L9.50958 1.65859ZM9.40507 1.55407L10.8193 0.13986L9.40507 -1.27435L7.99085 0.13986L9.40507 1.55407ZM3.2674 3.12157C4.58136 1.80761 6.69287 1.77551 8.04464 3.0253L10.7601 0.0882464C7.83723 -2.61409 3.27792 -2.54581 0.438977 0.293143L3.2674 3.12157ZM3.17113 7.8988C1.92135 6.54703 1.95345 4.43553 3.2674 3.12157L0.438977 0.293143C-2.39997 3.13209 -2.46826 7.6914 0.234083 10.6143L3.17113 7.8988ZM0.288395 7.84232L0.285084 7.84563L3.11351 10.6741L3.11682 10.6707L0.288395 7.84232ZM0.285085 10.6741L9.14672 19.5357L11.9751 16.7073L3.11351 7.84563L0.285085 10.6741ZM11.9751 19.5357L19.6809 11.8299L16.8525 9.0015L9.14672 16.7073L11.9751 19.5357ZM19.6809 9.0015L19.6808 9.00133L16.8523 11.8298L16.8525 11.8299L19.6809 9.0015ZM19.6808 11.8298L20.6607 10.8498L17.8323 8.0214L16.8523 9.00133L19.6808 11.8298ZM20.6568 10.8538L20.6787 10.832L17.8581 7.99568L17.8362 8.01748L20.6568 10.8538ZM20.6865 10.8241L20.7083 10.8022L17.8721 7.98162L17.8503 8.00354L20.6865 10.8241ZM20.7044 10.8061L20.8367 10.6738L18.0083 7.84535L17.876 7.97769L20.7044 10.8061ZM20.8367 7.84535L20.8338 7.84238L18.0054 10.6708L18.0083 10.6738L20.8367 7.84535ZM20.8883 10.6141C23.5898 7.69119 23.5213 3.1325 20.6826 0.293835L17.8542 3.12226C19.168 4.43609 19.2002 6.54731 17.9508 7.89909L20.8883 10.6141ZM20.6826 0.293835C17.8439 -2.54483 13.2853 -2.61339 10.3624 0.0881404L13.0774 3.02562C14.4291 1.77621 16.5404 1.80844 17.8542 3.12226L20.6826 0.293835ZM13.1341 0.142665L13.131 0.139575L10.3025 2.968L10.3056 2.97109L13.1341 0.142665ZM10.3025 0.139575L9.14656 1.29556L11.975 4.12399L13.131 2.968L10.3025 0.139575ZM11.975 1.29556L11.0219 0.342525L8.19352 3.17095L9.14656 4.12399L11.975 1.29556ZM8.14475 3.12157C8.15523 3.13205 8.16565 3.1426 8.176 3.15321L11.0395 0.360265C11.0176 0.337799 10.9955 0.315423 10.9732 0.293142L8.14475 3.12157ZM8.11311 3.09032C8.12372 3.10067 8.13426 3.11109 8.14475 3.12157L10.9732 0.293142C10.9509 0.27086 10.9285 0.248764 10.9061 0.226851L8.11311 3.09032ZM10.9238 0.244372L10.8193 0.13986L7.99085 2.96829L8.09537 3.0728L10.9238 0.244372ZM7.99085 0.13986L7.98815 0.142559L10.8166 2.97099L10.8193 2.96829L7.99085 0.13986Z" fill="black" mask="url(#path-1-inside-1_1128_1429)"/>
</g>
<defs>
<clipPath id="clip0_1128_1429">
<rect width="21" height="18" fill="white"/>
</clipPath>
</defs>
</svg>
