<svg width="20" height="17" viewBox="0 0 21 18" fill="none" xmlns="http://www.w3.org/2000/svg">
<g clip-path="url(#clip0_1128_1441)">
<path fill-rule="evenodd" clip-rule="evenodd" d="M9.40237 1.55677C7.26505 -0.419292 3.92964 -0.369097 1.85319 1.70736C-0.223262 3.78381 -0.273456 7.11922 1.70261 9.25653L1.6993 9.25985L10.5609 18.1215L18.2667 10.4157L18.2665 10.4155L19.2462 9.43586L19.2684 9.41382L19.2904 9.39166L19.4225 9.25956L19.4196 9.25659C21.395 7.11925 21.3446 3.7843 19.2684 1.70805C17.1921 -0.368199 13.8572 -0.418588 11.7199 1.55688L11.7168 1.55379L10.5608 2.70978L9.60768 1.75668C9.59157 1.74016 9.57533 1.72372 9.55896 1.70736C9.5426 1.69099 9.52615 1.67475 9.50963 1.65864L9.40507 1.55407L9.40237 1.55677Z" fill="black"/>
</g>
<defs>
<clipPath id="clip0_1128_1441">
<rect width="21" height="18" fill="white"/>
</clipPath>
</defs>
</svg>
