<svg width="21" height="21" viewBox="0 0 21 21" fill="none" xmlns="http://www.w3.org/2000/svg">
<g clip-path="url(#clip0_836_2481)">
<path d="M6.35891 0.379883C3.06071 0.379883 0.378906 3.06168 0.378906 6.35988V14.6399C0.378906 17.9381 3.06071 20.6199 6.35891 20.6199H14.6389C17.9371 20.6199 20.6189 17.9381 20.6189 14.6399V6.35988C20.6189 3.06168 17.9371 0.379883 14.6389 0.379883H6.35891ZM16.0189 4.05988C16.5249 4.05988 16.9389 4.47388 16.9389 4.97988C16.9389 5.48588 16.5249 5.89988 16.0189 5.89988C15.5129 5.89988 15.0989 5.48588 15.0989 4.97988C15.0989 4.47388 15.5129 4.05988 16.0189 4.05988ZM10.4989 5.43988C13.2911 5.43988 15.5589 7.70768 15.5589 10.4999C15.5589 13.2921 13.2911 15.5599 10.4989 15.5599C7.70671 15.5599 5.43891 13.2921 5.43891 10.4999C5.43891 7.70768 7.70671 5.43988 10.4989 5.43988ZM10.4989 6.35988C8.21731 6.35988 6.35891 8.21828 6.35891 10.4999C6.35891 12.7815 8.21731 14.6399 10.4989 14.6399C12.7805 14.6399 14.6389 12.7815 14.6389 10.4999C14.6389 8.21828 12.7805 6.35988 10.4989 6.35988Z" fill="white"/>
</g>
<defs>
<clipPath id="clip0_836_2481">
<rect width="21" height="21" fill="white"/>
</clipPath>
</defs>
</svg>
