<svg width="21" height="21" viewBox="0 0 23 23" fill="none" xmlns="http://www.w3.org/2000/svg">
<path d="M7.35891 1.37988C4.06185 1.37988 1.37891 4.06283 1.37891 7.35988V15.6399C1.37891 18.9369 4.06185 21.6199 7.35891 21.6199H15.6389C18.936 21.6199 21.6189 18.9369 21.6189 15.6399V7.35988C21.6189 4.06283 18.936 1.37988 15.6389 1.37988H7.35891ZM7.35891 2.29988H15.6389C18.4387 2.29988 20.6989 4.5601 20.6989 7.35988V15.6399C20.6989 18.4397 18.4387 20.6999 15.6389 20.6999H7.35891C4.55912 20.6999 2.29891 18.4397 2.29891 15.6399V7.35988C2.29891 4.5601 4.55912 2.29988 7.35891 2.29988ZM17.0189 5.05988C16.7749 5.05988 16.5409 5.15681 16.3684 5.32934C16.1958 5.50188 16.0989 5.73588 16.0989 5.97988C16.0989 6.22388 16.1958 6.45789 16.3684 6.63042C16.5409 6.80295 16.7749 6.89988 17.0189 6.89988C17.2629 6.89988 17.4969 6.80295 17.6694 6.63042C17.842 6.45789 17.9389 6.22388 17.9389 5.97988C17.9389 5.73588 17.842 5.50188 17.6694 5.32934C17.4969 5.15681 17.2629 5.05988 17.0189 5.05988ZM11.4989 6.43988C8.70979 6.43988 6.43891 8.71077 6.43891 11.4999C6.43891 14.289 8.70979 16.5599 11.4989 16.5599C14.288 16.5599 16.5589 14.289 16.5589 11.4999C16.5589 8.71077 14.288 6.43988 11.4989 6.43988ZM11.4989 7.35988C13.7908 7.35988 15.6389 9.20798 15.6389 11.4999C15.6389 13.7918 13.7908 15.6399 11.4989 15.6399C9.207 15.6399 7.35891 13.7918 7.35891 11.4999C7.35891 9.20798 9.207 7.35988 11.4989 7.35988Z" fill="white"/>
</svg>
