<svg width="32" height="32" viewBox="0 0 32 32" fill="none" xmlns="http://www.w3.org/2000/svg">
<circle cx="16" cy="16" r="16" fill="white"/>
<path d="M12.8616 9.01411C10.7398 9.01411 9.01465 11.2401 9.01465 13.3618V19.1891C9.01465 21.3108 10.7398 23.036 12.8616 23.036L16.0711 23.036L19.2807 23.036C21.4024 23.036 23.1276 20.81 23.1276 18.6883V13.3618C23.1276 11.2401 21.4024 9.0141 19.2807 9.0141L16.0711 9.0141L12.8616 9.01411ZM19.44 11.8822C19.7655 11.8822 20.0319 12.1486 20.0319 12.4741C20.0319 12.7996 19.7655 13.0659 19.44 13.0659C19.1145 13.0659 18.8482 12.7996 18.8482 12.4741C18.8482 12.1486 19.1145 11.8822 19.44 11.8822ZM16.0256 12.77C17.8218 12.77 19.2807 14.2289 19.2807 16.0251C19.2807 17.8213 17.8218 19.2802 16.0256 19.2802C14.2294 19.2802 12.7705 17.8213 12.7705 16.0251C12.7705 14.2289 14.2294 12.77 16.0256 12.77ZM16.0256 13.3618C14.5579 13.3618 13.3624 14.5573 13.3624 16.0251C13.3624 17.4928 14.5579 18.6883 16.0256 18.6883C17.4934 18.6883 18.6889 17.4928 18.6889 16.0251C18.6889 14.5573 17.4934 13.3618 16.0256 13.3618Z" fill="#212121"/>
</svg>
