<svg width="32" height="32" viewBox="0 0 32 32" fill="none" xmlns="http://www.w3.org/2000/svg">
<circle cx="16" cy="16" r="16" fill="#2E2E2E"/>
<path d="M12.8606 9.01411C10.7389 9.01411 9.01367 11.2401 9.01367 13.3618V19.1891C9.01367 21.3108 10.7389 23.036 12.8606 23.036L16.0702 23.036L19.2797 23.036C21.4014 23.036 23.1266 20.81 23.1266 18.6883V13.3618C23.1266 11.2401 21.4014 9.0141 19.2797 9.0141L16.0702 9.0141L12.8606 9.01411ZM19.4391 11.8822C19.7646 11.8822 20.0309 12.1486 20.0309 12.4741C20.0309 12.7996 19.7646 13.0659 19.4391 13.0659C19.1135 13.0659 18.8472 12.7996 18.8472 12.4741C18.8472 12.1486 19.1135 11.8822 19.4391 11.8822ZM16.0246 12.77C17.8208 12.77 19.2797 14.2289 19.2797 16.0251C19.2797 17.8213 17.8208 19.2802 16.0246 19.2802C14.2284 19.2802 12.7695 17.8213 12.7695 16.0251C12.7695 14.2289 14.2284 12.77 16.0246 12.77ZM16.0246 13.3618C14.5569 13.3618 13.3614 14.5573 13.3614 16.0251C13.3614 17.4928 14.5569 18.6883 16.0246 18.6883C17.4924 18.6883 18.6879 17.4928 18.6879 16.0251C18.6879 14.5573 17.4924 13.3618 16.0246 13.3618Z" fill="#848484"/>
</svg>
