<?xml version="1.0" encoding="UTF-8"?>
<svg id="_레이어_1" data-name="레이어 1" xmlns="http://www.w3.org/2000/svg" xmlns:xlink="http://www.w3.org/1999/xlink" viewBox="0 0 48 48">
  <defs>
    <style>
      .cls-1 {
        fill: #fff;
      }

      .cls-2 {
        mask: url(#mask);
      }

      .cls-3 {
        fill: #f8e049;
      }

      .cls-4 {
        fill: #321819;
      }
    </style>
    <mask id="mask" x="-186.61" y="-364.47" width="840" height="560" maskUnits="userSpaceOnUse">
      <g id="mask1_89_18159" data-name="mask1 89 18159">
        <path class="cls-1" d="M-186.61-364.47h840V195.53H-186.61V-364.47Z"/>
      </g>
    </mask>
  </defs>
  <circle class="cls-3" cx="24" cy="24" r="24"/>
  <polygon class="cls-1" points="27.03 24.59 20.72 15.57 15.5 15.57 15.5 32.43 20.97 32.43 20.97 23.41 27.28 32.43 32.5 32.43 32.5 15.57 27.03 15.57 27.03 24.59"/>
  <g class="cls-2">
    <path class="cls-4" d="M24,9.55c-8.69,0-15.73,5.57-15.73,12.44,0,4.47,2.98,8.39,7.46,10.58-.33,1.23-1.19,4.45-1.36,5.14-.21.86.31.84.66.61.27-.18,4.31-2.93,6.05-4.11.95.14,1.92.21,2.92.21,8.69,0,15.73-5.57,15.73-12.44s-7.04-12.44-15.73-12.44Z"/>
  </g>
  <path class="cls-3" d="M15.73,26.03c-.48,0-.87-.37-.87-.83v-5.15h-1.35c-.47,0-.85-.38-.85-.85s.38-.85.85-.85h4.44c.47,0,.85.38.85.85s-.38.85-.85.85h-1.35v5.15c0,.46-.39.83-.87.83ZM23.33,26.02c-.36,0-.64-.15-.72-.38l-.43-1.12h-2.64s-.43,1.12-.43,1.12c-.08.24-.36.38-.72.38-.19,0-.38-.04-.55-.12-.24-.11-.47-.41-.21-1.23l2.07-5.46c.15-.41.59-.84,1.15-.86.57.01,1.01.44,1.16.86l2.07,5.45c.26.82.03,1.12-.2,1.23-.17.08-.36.12-.55.12,0,0,0,0,0,0h0ZM21.72,22.98l-.87-2.46-.87,2.46h1.73,0ZM25.48,25.91c-.46,0-.83-.36-.83-.79v-5.89c0-.48.4-.87.88-.87s.88.39.88.87v5.09h1.84c.46,0,.83.36.83.79s-.37.79-.83.79h-2.78ZM30.29,26.02c-.48,0-.87-.39-.87-.87v-5.93c0-.48.39-.87.87-.87s.87.39.87.87v1.86l2.42-2.42c.12-.12.3-.19.48-.19.22,0,.43.09.6.26.15.15.24.35.25.55.01.2-.06.39-.19.53l-1.97,1.97,2.13,2.83c.14.18.2.41.17.64-.03.23-.15.43-.34.57-.15.11-.33.18-.52.17-.27,0-.53-.13-.69-.34l-2.03-2.69-.3.3v1.89c0,.48-.39.87-.87.87h0Z"/>
</svg>