<svg width="182" height="27" viewBox="0 0 182 27" fill="none" xmlns="http://www.w3.org/2000/svg">
<path d="M11.8254 25.7163C18.3565 25.7163 23.6509 20.4219 23.6509 13.8909C23.6509 7.35986 18.3565 2.06543 11.8254 2.06543C5.29443 2.06543 0 7.35986 0 13.8909C0 20.4219 5.29443 25.7163 11.8254 25.7163Z" fill="black"/>
<path d="M11.4512 17.6445L10.325 21.5863C9.57415 24.2142 7.13398 26.0913 4.5061 26.0913L6.75857 17.6445H11.4512Z" fill="white"/>
<path d="M21.2117 12.5771L19.3346 16.519H7.13379C8.26002 14.2665 11.0756 12.5771 13.7035 12.5771C14.4543 12.5771 21.3994 12.5771 21.3994 12.5771H21.2117Z" fill="white"/>
<path d="M21.5869 7.50879L19.7099 10.8875H9.19836L9.76148 7.50879H21.5869Z" fill="white"/>
<path d="M8.07079 7.50879H11.2618L10.6987 10.8875H5.63062L8.07079 7.50879Z" fill="white"/>
<path d="M30.3817 6.07458H40.5882V8.47222H33.2413V12.8276H39.8843V15.2252H33.2413V22.0002H30.3817V6.07458ZM42.8759 10.056H45.6915V22.0002H42.8759V10.056ZM44.3057 8.36224C44.0197 8.36224 43.7484 8.29625 43.4918 8.16427C43.2425 8.02496 43.0445 7.83799 42.8979 7.60335C42.7512 7.36139 42.6779 7.10109 42.6779 6.82247C42.6779 6.55118 42.7512 6.29821 42.8979 6.06358C43.0445 5.82895 43.2425 5.64564 43.4918 5.51366C43.7484 5.37435 44.0197 5.30469 44.3057 5.30469C44.599 5.30469 44.8703 5.37435 45.1196 5.51366C45.3689 5.64564 45.5668 5.82895 45.7135 6.06358C45.8601 6.29821 45.9334 6.55118 45.9334 6.82247C45.9334 7.10109 45.8601 7.36139 45.7135 7.60335C45.5668 7.83799 45.3689 8.02496 45.1196 8.16427C44.8703 8.29625 44.599 8.36224 44.3057 8.36224ZM51.1907 22.0002H48.3751V10.056H51.0587V12.0797H51.2127C51.4913 11.3904 51.9312 10.8552 52.5325 10.4739C53.141 10.0926 53.8816 9.90201 54.7541 9.90201C55.5827 9.90201 56.3049 10.078 56.9208 10.4299C57.544 10.7819 58.0206 11.2951 58.3506 11.9697C58.6879 12.6443 58.8529 13.4508 58.8455 14.3893V22.0002H56.0519V14.8293C56.0519 14.0227 55.8466 13.3958 55.436 12.9485C55.0254 12.5013 54.4535 12.2776 53.7203 12.2776C53.2217 12.2776 52.7818 12.3876 52.4005 12.6076C52.0192 12.8202 51.7222 13.1318 51.5096 13.5425C51.297 13.9457 51.1907 14.4333 51.1907 15.0052V22.0002ZM65.9725 22.2202C65.0266 22.2202 64.1797 21.9782 63.4318 21.4943C62.6913 21.003 62.1084 20.2918 61.6831 19.3606C61.2578 18.4294 61.0452 17.3222 61.0452 16.0391C61.0452 14.7486 61.2615 13.6414 61.6941 12.7176C62.1267 11.7937 62.7169 11.0935 63.4648 10.6169C64.2127 10.1403 65.0559 9.90201 65.9945 9.90201C67.5782 9.90201 68.7147 10.6059 69.404 12.0137H69.5139V6.07458H72.3075V22.0002H69.5579V20.1085H69.404C68.7001 21.5163 67.5562 22.2202 65.9725 22.2202ZM66.7424 19.9105C67.3363 19.9105 67.8459 19.7492 68.2711 19.4266C68.6964 19.104 69.019 18.6494 69.239 18.0628C69.4663 17.4762 69.5799 16.7943 69.5799 16.0171C69.5799 15.2472 69.4699 14.5763 69.25 14.0044C69.03 13.4251 68.7074 12.9779 68.2821 12.6626C67.8569 12.3473 67.3436 12.1897 66.7424 12.1897C66.1338 12.1897 65.6169 12.351 65.1916 12.6736C64.7663 12.9962 64.4437 13.4471 64.2237 14.0264C64.0111 14.6056 63.9048 15.2692 63.9048 16.0171C63.9048 16.7796 64.0148 17.4542 64.2347 18.0408C64.4547 18.6274 64.7773 19.0856 65.2026 19.4156C65.6279 19.7455 66.1411 19.9105 66.7424 19.9105ZM80.6223 6.07458H83.4819V19.5806H90.5208V22.0002H80.6223V6.07458ZM97.8897 22.2422C96.7459 22.2422 95.7414 21.9855 94.8762 21.4723C94.011 20.959 93.3437 20.2405 92.8745 19.3166C92.4052 18.3854 92.1706 17.3076 92.1706 16.0831C92.1706 14.8513 92.4052 13.7698 92.8745 12.8386C93.3437 11.9074 94.011 11.1851 94.8762 10.6719C95.7414 10.1586 96.7459 9.90201 97.8897 9.90201C99.0409 9.90201 100.049 10.1586 100.914 10.6719C101.779 11.1851 102.443 11.9074 102.905 12.8386C103.374 13.7698 103.609 14.8513 103.609 16.0831C103.609 17.3076 103.374 18.3854 102.905 19.3166C102.436 20.2478 101.768 20.97 100.903 21.4833C100.045 21.9892 99.0409 22.2422 97.8897 22.2422ZM97.9117 19.9985C98.5276 19.9985 99.0482 19.8262 99.4735 19.4816C99.9061 19.137 100.229 18.6677 100.441 18.0738C100.661 17.4799 100.771 16.809 100.771 16.0611C100.771 15.3205 100.661 14.6533 100.441 14.0594C100.229 13.4581 99.9061 12.9852 99.4735 12.6406C99.0482 12.296 98.5276 12.1237 97.9117 12.1237C97.2812 12.1237 96.7459 12.296 96.306 12.6406C95.8734 12.9852 95.5471 13.4545 95.3271 14.0484C95.1145 14.6423 95.0082 15.3132 95.0082 16.0611C95.0082 16.809 95.1145 17.4799 95.3271 18.0738C95.5471 18.6677 95.8734 19.137 96.306 19.4816C96.7459 19.8262 97.2812 19.9985 97.9117 19.9985ZM108.602 22.0002H105.787V6.07458H108.602V22.0002ZM127.497 11.4418C127.387 10.8185 127.156 10.2796 126.804 9.82502C126.452 9.37042 126.005 9.02581 125.463 8.79118C124.927 8.54921 124.337 8.42823 123.692 8.42823C122.812 8.42823 122.038 8.6482 121.371 9.08813C120.704 9.52074 120.183 10.1586 119.809 11.0018C119.436 11.845 119.249 12.8569 119.249 14.0374C119.249 15.2252 119.436 16.2407 119.809 17.0839C120.183 17.9271 120.704 18.565 121.371 18.9976C122.046 19.4302 122.819 19.6465 123.692 19.6465C124.322 19.6465 124.902 19.5329 125.43 19.3056C125.965 19.071 126.412 18.7337 126.771 18.2937C127.131 17.8538 127.373 17.3296 127.497 16.721H130.379C130.232 17.7475 129.862 18.6787 129.268 19.5146C128.682 20.3504 127.904 21.0103 126.936 21.4943C125.969 21.9782 124.872 22.2202 123.648 22.2202C122.247 22.2202 120.994 21.8939 119.886 21.2413C118.787 20.5814 117.925 19.6356 117.302 18.4037C116.679 17.1646 116.367 15.7091 116.367 14.0374C116.367 12.3583 116.679 10.9028 117.302 9.67105C117.932 8.43923 118.798 7.49704 119.897 6.84447C121.005 6.18456 122.255 5.85461 123.648 5.85461C124.821 5.85461 125.888 6.07825 126.848 6.52551C127.809 6.96545 128.597 7.60702 129.213 8.45023C129.829 9.2861 130.218 10.2833 130.379 11.4418H127.497ZM135.526 22.0002H132.711V6.07458H135.46V12.0797H135.614C135.9 11.3831 136.336 10.8479 136.923 10.4739C137.517 10.0926 138.261 9.90201 139.156 9.90201C139.984 9.90201 140.706 10.078 141.322 10.4299C141.946 10.7745 142.426 11.2841 142.763 11.9587C143.1 12.6333 143.269 13.4435 143.269 14.3893V22.0002H140.475V14.8293C140.475 14.0154 140.266 13.3885 139.849 12.9485C139.438 12.5013 138.862 12.2776 138.122 12.2776C137.616 12.2776 137.165 12.3876 136.769 12.6076C136.38 12.8202 136.076 13.1318 135.856 13.5425C135.636 13.9531 135.526 14.4407 135.526 15.0052V22.0002ZM151.232 22.2422C150.044 22.2422 149.01 21.9929 148.13 21.4943C147.258 20.9883 146.587 20.2735 146.118 19.3496C145.656 18.4257 145.425 17.3442 145.425 16.1051C145.425 14.8806 145.659 13.8027 146.129 12.8716C146.598 11.933 147.258 11.2035 148.108 10.6829C148.966 10.1623 149.956 9.90201 151.078 9.90201C152.09 9.90201 153.006 10.1183 153.827 10.5509C154.656 10.9835 155.312 11.6544 155.796 12.5636C156.287 13.4655 156.533 14.5873 156.533 15.9291V16.809H148.196C148.204 17.4762 148.336 18.0555 148.592 18.5467C148.849 19.0306 149.204 19.4009 149.659 19.6575C150.114 19.9142 150.645 20.0425 151.254 20.0425C151.848 20.0425 152.354 19.9288 152.772 19.7015C153.19 19.4742 153.49 19.1773 153.673 18.8107H156.423C156.254 19.4999 155.935 20.1048 155.466 20.6254C154.997 21.1387 154.399 21.5383 153.673 21.8242C152.955 22.1029 152.141 22.2422 151.232 22.2422ZM153.849 14.8953C153.842 14.3527 153.725 13.8687 153.497 13.4435C153.27 13.0182 152.951 12.6846 152.541 12.4426C152.13 12.2007 151.657 12.0797 151.122 12.0797C150.572 12.0797 150.081 12.208 149.648 12.4646C149.223 12.7139 148.886 13.0549 148.636 13.4875C148.387 13.9127 148.244 14.382 148.207 14.8953H153.849ZM165.486 13.4655C165.398 13.0109 165.17 12.6516 164.804 12.3876C164.437 12.1237 163.961 11.9917 163.374 11.9917C162.978 11.9917 162.619 12.054 162.296 12.1787C161.981 12.296 161.735 12.4646 161.559 12.6846C161.383 12.8972 161.299 13.1355 161.306 13.3995C161.284 14.0374 161.849 14.492 163 14.7633L165.024 15.1812C166.16 15.4378 167.003 15.8301 167.553 16.358C168.103 16.886 168.382 17.5789 168.389 18.4367C168.382 19.1846 168.169 19.8482 167.751 20.4274C167.333 20.9993 166.74 21.4466 165.97 21.7692C165.207 22.0845 164.313 22.2422 163.286 22.2422C161.783 22.2422 160.588 21.9232 159.701 21.2853C158.821 20.6401 158.307 19.7419 158.161 18.5907H161.02C161.108 19.0966 161.343 19.4779 161.724 19.7345C162.113 19.9838 162.633 20.1085 163.286 20.1085C163.961 20.1085 164.503 19.9802 164.914 19.7235C165.324 19.4669 165.53 19.1186 165.53 18.6787C165.53 18.3341 165.387 18.0518 165.101 17.8318C164.822 17.6045 164.386 17.4249 163.792 17.2929L161.878 16.875C160.771 16.655 159.932 16.2627 159.36 15.6981C158.795 15.1336 158.513 14.4187 158.513 13.5535C158.513 12.8276 158.711 12.1897 159.107 11.6397C159.503 11.0825 160.064 10.6535 160.789 10.3529C161.515 10.0523 162.362 9.90201 163.33 9.90201C164.269 9.90201 165.086 10.0486 165.783 10.3419C166.487 10.6279 167.04 11.0385 167.443 11.5737C167.847 12.109 168.081 12.7396 168.147 13.4655H165.486ZM177.298 13.4655C177.21 13.0109 176.983 12.6516 176.616 12.3876C176.249 12.1237 175.773 11.9917 175.186 11.9917C174.79 11.9917 174.431 12.054 174.108 12.1787C173.793 12.296 173.548 12.4646 173.372 12.6846C173.196 12.8972 173.111 13.1355 173.119 13.3995C173.097 14.0374 173.661 14.492 174.812 14.7633L176.836 15.1812C177.973 15.4378 178.816 15.8301 179.366 16.358C179.916 16.886 180.194 17.5789 180.202 18.4367C180.194 19.1846 179.982 19.8482 179.564 20.4274C179.146 20.9993 178.552 21.4466 177.782 21.7692C177.019 22.0845 176.125 22.2422 175.098 22.2422C173.595 22.2422 172.4 21.9232 171.513 21.2853C170.633 20.6401 170.12 19.7419 169.973 18.5907H172.833C172.921 19.0966 173.155 19.4779 173.537 19.7345C173.925 19.9838 174.446 20.1085 175.098 20.1085C175.773 20.1085 176.315 19.9802 176.726 19.7235C177.137 19.4669 177.342 19.1186 177.342 18.6787C177.342 18.3341 177.199 18.0518 176.913 17.8318C176.634 17.6045 176.198 17.4249 175.604 17.2929L173.69 16.875C172.583 16.655 171.744 16.2627 171.172 15.6981C170.607 15.1336 170.325 14.4187 170.325 13.5535C170.325 12.8276 170.523 12.1897 170.919 11.6397C171.315 11.0825 171.876 10.6535 172.602 10.3529C173.328 10.0523 174.174 9.90201 175.142 9.90201C176.081 9.90201 176.898 10.0486 177.595 10.3419C178.299 10.6279 178.852 11.0385 179.256 11.5737C179.659 12.109 179.894 12.7396 179.96 13.4655H177.298Z" fill="black"/>
</svg>
