<svg width="187" height="27" viewBox="0 0 187 27" fill="none" xmlns="http://www.w3.org/2000/svg">
<path d="M14.8254 23.6509C21.3565 23.6509 26.6509 18.3565 26.6509 11.8255C26.6509 5.29443 21.3565 0 14.8254 0C8.29443 0 3 5.29443 3 11.8255C3 18.3565 8.29443 23.6509 14.8254 23.6509Z" fill="black"/>
<path d="M14.4512 15.5791L13.325 19.5209C12.5742 22.1488 10.134 24.0259 7.5061 24.0259L9.75857 15.5791H14.4512Z" fill="white"/>
<path d="M24.2117 10.5117L22.3346 14.4536H10.1338C11.26 12.2011 14.0756 10.5117 16.7035 10.5117C17.4543 10.5117 24.3994 10.5117 24.3994 10.5117H24.2117Z" fill="white"/>
<path d="M24.5869 5.44336L22.7099 8.82207H12.1984L12.7615 5.44336H24.5869Z" fill="white"/>
<path d="M11.0708 5.44336H14.2618L13.6987 8.82207H8.63062L11.0708 5.44336Z" fill="white"/>
<path d="M35.3817 5.57458H45.5882V7.97222H38.2413V12.3276H44.8843V14.7252H38.2413V21.5002H35.3817V5.57458ZM47.8759 9.556H50.6915V21.5002H47.8759V9.556ZM49.3057 7.86224C49.0197 7.86224 48.7484 7.79625 48.4918 7.66427C48.2425 7.52496 48.0445 7.33799 47.8979 7.10335C47.7512 6.86139 47.6779 6.60109 47.6779 6.32247C47.6779 6.05118 47.7512 5.79821 47.8979 5.56358C48.0445 5.32895 48.2425 5.14564 48.4918 5.01366C48.7484 4.87435 49.0197 4.80469 49.3057 4.80469C49.599 4.80469 49.8703 4.87435 50.1196 5.01366C50.3689 5.14564 50.5668 5.32895 50.7135 5.56358C50.8601 5.79821 50.9334 6.05118 50.9334 6.32247C50.9334 6.60109 50.8601 6.86139 50.7135 7.10335C50.5668 7.33799 50.3689 7.52496 50.1196 7.66427C49.8703 7.79625 49.599 7.86224 49.3057 7.86224ZM56.1907 21.5002H53.3751V9.556H56.0587V11.5797H56.2127C56.4913 10.8904 56.9312 10.3552 57.5325 9.9739C58.141 9.5926 58.8816 9.40201 59.7541 9.40201C60.5827 9.40201 61.3049 9.578 61.9208 9.9299C62.544 10.2819 63.0206 10.7951 63.3506 11.4697C63.6879 12.1443 63.8529 12.9508 63.8455 13.8893V21.5002H61.0519V14.3293C61.0519 13.5227 60.8466 12.8958 60.436 12.4485C60.0254 12.0013 59.4535 11.7776 58.7203 11.7776C58.2217 11.7776 57.7818 11.8876 57.4005 12.1076C57.0192 12.3202 56.7222 12.6318 56.5096 13.0425C56.297 13.4457 56.1907 13.9333 56.1907 14.5052V21.5002ZM70.9725 21.7202C70.0266 21.7202 69.1797 21.4782 68.4318 20.9943C67.6913 20.503 67.1084 19.7918 66.6831 18.8606C66.2578 17.9294 66.0452 16.8222 66.0452 15.5391C66.0452 14.2486 66.2615 13.1414 66.6941 12.2176C67.1267 11.2937 67.7169 10.5935 68.4648 10.1169C69.2127 9.6403 70.0559 9.40201 70.9945 9.40201C72.5782 9.40201 73.7147 10.1059 74.404 11.5137H74.5139V5.57458H77.3075V21.5002H74.5579V19.6085H74.404C73.7001 21.0163 72.5562 21.7202 70.9725 21.7202ZM71.7424 19.4105C72.3363 19.4105 72.8459 19.2492 73.2711 18.9266C73.6964 18.604 74.019 18.1494 74.239 17.5628C74.4663 16.9762 74.5799 16.2943 74.5799 15.5171C74.5799 14.7472 74.4699 14.0763 74.25 13.5044C74.03 12.9251 73.7074 12.4779 73.2821 12.1626C72.8569 11.8473 72.3436 11.6897 71.7424 11.6897C71.1338 11.6897 70.6169 11.851 70.1916 12.1736C69.7663 12.4962 69.4437 12.9471 69.2237 13.5264C69.0111 14.1056 68.9048 14.7692 68.9048 15.5171C68.9048 16.2796 69.0148 16.9542 69.2347 17.5408C69.4547 18.1274 69.7773 18.5856 70.2026 18.9156C70.6279 19.2455 71.1411 19.4105 71.7424 19.4105ZM85.6223 5.57458H88.4819V19.0806H95.5208V21.5002H85.6223V5.57458ZM102.89 21.7422C101.746 21.7422 100.741 21.4855 99.8762 20.9723C99.011 20.459 98.3437 19.7405 97.8745 18.8166C97.4052 17.8854 97.1706 16.8076 97.1706 15.5831C97.1706 14.3513 97.4052 13.2698 97.8745 12.3386C98.3437 11.4074 99.011 10.6851 99.8762 10.1719C100.741 9.6586 101.746 9.40201 102.89 9.40201C104.041 9.40201 105.049 9.6586 105.914 10.1719C106.779 10.6851 107.443 11.4074 107.905 12.3386C108.374 13.2698 108.609 14.3513 108.609 15.5831C108.609 16.8076 108.374 17.8854 107.905 18.8166C107.436 19.7478 106.768 20.47 105.903 20.9833C105.045 21.4892 104.041 21.7422 102.89 21.7422ZM102.912 19.4985C103.528 19.4985 104.048 19.3262 104.474 18.9816C104.906 18.637 105.229 18.1677 105.441 17.5738C105.661 16.9799 105.771 16.309 105.771 15.5611C105.771 14.8205 105.661 14.1533 105.441 13.5594C105.229 12.9581 104.906 12.4852 104.474 12.1406C104.048 11.796 103.528 11.6237 102.912 11.6237C102.281 11.6237 101.746 11.796 101.306 12.1406C100.873 12.4852 100.547 12.9545 100.327 13.5484C100.115 14.1423 100.008 14.8132 100.008 15.5611C100.008 16.309 100.115 16.9799 100.327 17.5738C100.547 18.1677 100.873 18.637 101.306 18.9816C101.746 19.3262 102.281 19.4985 102.912 19.4985ZM113.602 21.5002H110.787V5.57458H113.602V21.5002ZM132.497 10.9418C132.387 10.3185 132.156 9.7796 131.804 9.32502C131.452 8.87042 131.005 8.52581 130.463 8.29118C129.927 8.04921 129.337 7.92823 128.692 7.92823C127.812 7.92823 127.038 8.1482 126.371 8.58813C125.704 9.02074 125.183 9.6586 124.809 10.5018C124.436 11.345 124.249 12.3569 124.249 13.5374C124.249 14.7252 124.436 15.7407 124.809 16.5839C125.183 17.4271 125.704 18.065 126.371 18.4976C127.046 18.9302 127.819 19.1465 128.692 19.1465C129.322 19.1465 129.902 19.0329 130.43 18.8056C130.965 18.571 131.412 18.2337 131.771 17.7937C132.131 17.3538 132.373 16.8296 132.497 16.221H135.379C135.232 17.2475 134.862 18.1787 134.268 19.0146C133.682 19.8504 132.904 20.5103 131.936 20.9943C130.969 21.4782 129.872 21.7202 128.648 21.7202C127.247 21.7202 125.994 21.3939 124.886 20.7413C123.787 20.0814 122.925 19.1356 122.302 17.9037C121.679 16.6646 121.367 15.2091 121.367 13.5374C121.367 11.8583 121.679 10.4028 122.302 9.17105C122.932 7.93923 123.798 6.99704 124.897 6.34447C126.005 5.68456 127.255 5.35461 128.648 5.35461C129.821 5.35461 130.888 5.57825 131.848 6.02551C132.809 6.46545 133.597 7.10702 134.213 7.95023C134.829 8.7861 135.218 9.7833 135.379 10.9418H132.497ZM140.526 21.5002H137.711V5.57458H140.46V11.5797H140.614C140.9 10.8831 141.336 10.3479 141.923 9.9739C142.517 9.5926 143.261 9.40201 144.156 9.40201C144.984 9.40201 145.706 9.578 146.322 9.9299C146.946 10.2745 147.426 10.7841 147.763 11.4587C148.1 12.1333 148.269 12.9435 148.269 13.8893V21.5002H145.475V14.3293C145.475 13.5154 145.266 12.8885 144.849 12.4485C144.438 12.0013 143.862 11.7776 143.122 11.7776C142.616 11.7776 142.165 11.8876 141.769 12.1076C141.38 12.3202 141.076 12.6318 140.856 13.0425C140.636 13.4531 140.526 13.9407 140.526 14.5052V21.5002ZM156.232 21.7422C155.044 21.7422 154.01 21.4929 153.13 20.9943C152.258 20.4883 151.587 19.7735 151.118 18.8496C150.656 17.9257 150.425 16.8442 150.425 15.6051C150.425 14.3806 150.659 13.3027 151.129 12.3716C151.598 11.433 152.258 10.7035 153.108 10.1829C153.966 9.6623 154.956 9.40201 156.078 9.40201C157.09 9.40201 158.006 9.6183 158.827 10.0509C159.656 10.4835 160.312 11.1544 160.796 12.0636C161.287 12.9655 161.533 14.0873 161.533 15.4291V16.309H153.196C153.204 16.9762 153.336 17.5555 153.592 18.0467C153.849 18.5306 154.204 18.9009 154.659 19.1575C155.114 19.4142 155.645 19.5425 156.254 19.5425C156.848 19.5425 157.354 19.4288 157.772 19.2015C158.19 18.9742 158.49 18.6773 158.673 18.3107H161.423C161.254 18.9999 160.935 19.6048 160.466 20.1254C159.997 20.6387 159.399 21.0383 158.673 21.3242C157.955 21.6029 157.141 21.7422 156.232 21.7422ZM158.849 14.3953C158.842 13.8527 158.725 13.3687 158.497 12.9435C158.27 12.5182 157.951 12.1846 157.541 11.9426C157.13 11.7007 156.657 11.5797 156.122 11.5797C155.572 11.5797 155.081 11.708 154.648 11.9646C154.223 12.2139 153.886 12.5549 153.636 12.9875C153.387 13.4127 153.244 13.882 153.207 14.3953H158.849ZM170.486 12.9655C170.398 12.5109 170.17 12.1516 169.804 11.8876C169.437 11.6237 168.961 11.4917 168.374 11.4917C167.978 11.4917 167.619 11.554 167.296 11.6787C166.981 11.796 166.735 11.9646 166.559 12.1846C166.383 12.3972 166.299 12.6355 166.306 12.8995C166.284 13.5374 166.849 13.992 168 14.2633L170.024 14.6812C171.16 14.9378 172.003 15.3301 172.553 15.858C173.103 16.386 173.382 17.0789 173.389 17.9367C173.382 18.6846 173.169 19.3482 172.751 19.9274C172.333 20.4993 171.74 20.9466 170.97 21.2692C170.207 21.5845 169.313 21.7422 168.286 21.7422C166.783 21.7422 165.588 21.4232 164.701 20.7853C163.821 20.1401 163.307 19.2419 163.161 18.0907H166.02C166.108 18.5966 166.343 18.9779 166.724 19.2345C167.113 19.4838 167.633 19.6085 168.286 19.6085C168.961 19.6085 169.503 19.4802 169.914 19.2235C170.324 18.9669 170.53 18.6186 170.53 18.1787C170.53 17.8341 170.387 17.5518 170.101 17.3318C169.822 17.1045 169.386 16.9249 168.792 16.7929L166.878 16.375C165.771 16.155 164.932 15.7627 164.36 15.1981C163.795 14.6336 163.513 13.9187 163.513 13.0535C163.513 12.3276 163.711 11.6897 164.107 11.1397C164.503 10.5825 165.064 10.1535 165.789 9.8529C166.515 9.5523 167.362 9.40201 168.33 9.40201C169.269 9.40201 170.086 9.5486 170.783 9.8419C171.487 10.1279 172.04 10.5385 172.443 11.0737C172.847 11.609 173.081 12.2396 173.147 12.9655H170.486ZM182.298 12.9655C182.21 12.5109 181.983 12.1516 181.616 11.8876C181.249 11.6237 180.773 11.4917 180.186 11.4917C179.79 11.4917 179.431 11.554 179.108 11.6787C178.793 11.796 178.548 11.9646 178.372 12.1846C178.196 12.3972 178.111 12.6355 178.119 12.8995C178.097 13.5374 178.661 13.992 179.812 14.2633L181.836 14.6812C182.973 14.9378 183.816 15.3301 184.366 15.858C184.916 16.386 185.194 17.0789 185.202 17.9367C185.194 18.6846 184.982 19.3482 184.564 19.9274C184.146 20.4993 183.552 20.9466 182.782 21.2692C182.019 21.5845 181.125 21.7422 180.098 21.7422C178.595 21.7422 177.4 21.4232 176.513 20.7853C175.633 20.1401 175.12 19.2419 174.973 18.0907H177.833C177.921 18.5966 178.155 18.9779 178.537 19.2345C178.925 19.4838 179.446 19.6085 180.098 19.6085C180.773 19.6085 181.315 19.4802 181.726 19.2235C182.137 18.9669 182.342 18.6186 182.342 18.1787C182.342 17.8341 182.199 17.5518 181.913 17.3318C181.634 17.1045 181.198 16.9249 180.604 16.7929L178.69 16.375C177.583 16.155 176.744 15.7627 176.172 15.1981C175.607 14.6336 175.325 13.9187 175.325 13.0535C175.325 12.3276 175.523 11.6897 175.919 11.1397C176.315 10.5825 176.876 10.1535 177.602 9.8529C178.328 9.5523 179.174 9.40201 180.142 9.40201C181.081 9.40201 181.898 9.5486 182.595 9.8419C183.299 10.1279 183.852 10.5385 184.256 11.0737C184.659 11.609 184.894 12.2396 184.96 12.9655H182.298Z" fill="white"/>
</svg>
