<svg width="170" height="27" viewBox="0 0 170 27" fill="none" xmlns="http://www.w3.org/2000/svg">
<path d="M21.2099 12.5801L19.3299 16.5201H7.12988C8.25988 14.2701 11.0699 12.5801 13.6999 12.5801H21.3999H21.2099Z" fill="white"/>
<path d="M21.59 7.50977L19.71 10.8898H9.19995L9.75995 7.50977H21.59Z" fill="white"/>
<path d="M8.06988 7.50977H11.2599L10.6999 10.8898H5.62988L8.06988 7.50977Z" fill="white"/>
<path d="M30.3801 6.99004H39.8201V9.21004H33.0201V13.24H39.1601V15.46H33.0201V21.73H30.3701V6.99004H30.3801ZM41.9401 10.67H44.5401V21.72H41.9401V10.67ZM43.2601 9.11004C43.0001 9.11004 42.7401 9.05004 42.5101 8.93004C42.2801 8.80004 42.1001 8.63004 41.9601 8.41004C41.8201 8.19004 41.7601 7.95004 41.7601 7.69004C41.7601 7.43004 41.8301 7.21004 41.9601 6.99004C42.1001 6.77004 42.2801 6.60004 42.5101 6.48004C42.7501 6.35004 43.0001 6.29004 43.2601 6.29004C43.5201 6.29004 43.7801 6.35004 44.0101 6.48004C44.2401 6.60004 44.4201 6.77004 44.5601 6.99004C44.7001 7.21004 44.7601 7.44004 44.7601 7.69004C44.7601 7.94004 44.6901 8.19004 44.5601 8.41004C44.4201 8.63004 44.2401 8.80004 44.0101 8.93004C43.7801 9.05004 43.5301 9.11004 43.2601 9.11004ZM49.6301 21.72H47.0301V10.67H49.5101V12.54H49.6501C49.9101 11.9 50.3101 11.41 50.8701 11.05C51.4301 10.7 52.1201 10.52 52.9201 10.52C53.7201 10.52 54.3501 10.68 54.9201 11.01C55.5001 11.34 55.9401 11.81 56.2401 12.43C56.5501 13.05 56.7001 13.8 56.7001 14.67V21.71H54.1201V15.08C54.1201 14.33 53.9301 13.75 53.5501 13.34C53.1701 12.93 52.6401 12.72 51.9601 12.72C51.5001 12.72 51.0901 12.82 50.7401 13.03C50.3901 13.23 50.1101 13.51 49.9201 13.89C49.7201 14.26 49.6301 14.71 49.6301 15.24V21.71V21.72ZM63.3001 21.92C62.4301 21.92 61.6401 21.7 60.9501 21.25C60.2701 20.8 59.7301 20.14 59.3301 19.28C58.9401 18.42 58.7401 17.39 58.7401 16.21C58.7401 15.03 58.9401 13.99 59.3401 13.14C59.7401 12.29 60.2901 11.64 60.9801 11.2C61.6701 10.76 62.4501 10.54 63.3201 10.54C64.7801 10.54 65.8401 11.19 66.4701 12.49H66.5701V7.00004H69.1501V21.73H66.6101V19.98H66.4701C65.8201 21.28 64.7601 21.93 63.3001 21.93V21.92ZM64.0101 19.79C64.5601 19.79 65.0301 19.64 65.4201 19.34C65.8101 19.04 66.1101 18.62 66.3201 18.08C66.5301 17.54 66.6401 16.91 66.6401 16.19C66.6401 15.47 66.5401 14.86 66.3301 14.33C66.1301 13.79 65.8301 13.38 65.4301 13.09C65.0401 12.8 64.5601 12.65 64.0101 12.65C63.4601 12.65 62.9701 12.8 62.5801 13.1C62.1901 13.4 61.8901 13.82 61.6801 14.35C61.4801 14.89 61.3901 15.5 61.3901 16.19C61.3901 16.88 61.4901 17.52 61.7001 18.06C61.9001 18.6 62.2001 19.03 62.6001 19.33C62.9901 19.64 63.4701 19.79 64.0201 19.79H64.0101ZM76.8501 6.99004H79.5001V19.48H86.0101V21.72H76.8501V6.99004ZM92.8201 21.94C91.7601 21.94 90.8301 21.7 90.0301 21.23C89.2301 20.76 88.6101 20.09 88.1801 19.24C87.7501 18.38 87.5301 17.38 87.5301 16.25C87.5301 15.12 87.7501 14.11 88.1801 13.25C88.6101 12.39 89.2301 11.72 90.0301 11.25C90.8301 10.78 91.7601 10.54 92.8201 10.54C93.8801 10.54 94.8201 10.78 95.6201 11.25C96.4201 11.72 97.0301 12.39 97.4601 13.25C97.8901 14.11 98.1101 15.11 98.1101 16.25C98.1101 17.39 97.8901 18.38 97.4601 19.24C97.0301 20.1 96.4101 20.77 95.6101 21.24C94.8201 21.71 93.8901 21.94 92.8201 21.94ZM92.8401 19.87C93.4101 19.87 93.8901 19.71 94.2801 19.39C94.6801 19.07 94.9801 18.64 95.1701 18.09C95.3701 17.54 95.4801 16.92 95.4801 16.23C95.4801 15.54 95.3801 14.93 95.1701 14.38C94.9701 13.82 94.6801 13.39 94.2801 13.07C93.8901 12.75 93.4101 12.59 92.8401 12.59C92.2701 12.59 91.7601 12.75 91.3501 13.07C90.9501 13.39 90.6501 13.82 90.4401 14.37C90.2401 14.92 90.1501 15.54 90.1501 16.23C90.1501 16.92 90.2501 17.54 90.4401 18.09C90.6401 18.64 90.9501 19.07 91.3501 19.39C91.7601 19.71 92.2501 19.87 92.8401 19.87ZM102.73 21.72H100.13V6.99004H102.73V21.72ZM120.21 11.95C120.11 11.37 119.89 10.88 119.57 10.45C119.24 10.03 118.83 9.71004 118.33 9.49004C117.83 9.27004 117.29 9.15004 116.69 9.15004C115.88 9.15004 115.16 9.35004 114.54 9.76004C113.92 10.16 113.44 10.75 113.1 11.53C112.75 12.31 112.58 13.25 112.58 14.34C112.58 15.43 112.75 16.38 113.1 17.16C113.45 17.94 113.93 18.53 114.54 18.93C115.16 19.33 115.88 19.53 116.69 19.53C117.27 19.53 117.81 19.42 118.3 19.21C118.79 18.99 119.21 18.68 119.54 18.27C119.87 17.86 120.1 17.38 120.21 16.82H122.88C122.74 17.77 122.4 18.63 121.85 19.4C121.31 20.17 120.59 20.78 119.69 21.23C118.8 21.68 117.78 21.9 116.65 21.9C115.35 21.9 114.2 21.6 113.17 20.99C112.15 20.38 111.36 19.5 110.78 18.37C110.2 17.22 109.92 15.88 109.92 14.33C109.92 12.78 110.21 11.43 110.78 10.29C111.36 9.15004 112.16 8.28004 113.18 7.68004C114.2 7.07004 115.36 6.76004 116.65 6.76004C117.73 6.76004 118.72 6.97004 119.61 7.38004C120.5 7.79004 121.23 8.38004 121.8 9.16004C122.37 9.93004 122.73 10.86 122.88 11.93H120.21V11.95ZM127.64 21.72H125.04V6.99004H127.58V12.54H127.72C127.98 11.9 128.39 11.4 128.93 11.05C129.48 10.7 130.17 10.52 131 10.52C131.77 10.52 132.43 10.68 133 11.01C133.58 11.33 134.02 11.8 134.33 12.42C134.64 13.04 134.8 13.79 134.8 14.67V21.71H132.22V15.08C132.22 14.33 132.03 13.75 131.64 13.34C131.26 12.93 130.73 12.72 130.04 12.72C129.57 12.72 129.15 12.82 128.79 13.03C128.43 13.23 128.15 13.51 127.95 13.89C127.75 14.27 127.64 14.72 127.64 15.24V21.71V21.72ZM142.16 21.94C141.06 21.94 140.1 21.71 139.29 21.25C138.48 20.78 137.86 20.12 137.43 19.27C137 18.42 136.79 17.42 136.79 16.27C136.79 15.12 137.01 14.14 137.44 13.28C137.87 12.41 138.48 11.74 139.27 11.26C140.06 10.78 140.98 10.54 142.02 10.54C142.96 10.54 143.8 10.74 144.56 11.14C145.33 11.54 145.93 12.16 146.38 13C146.83 13.83 147.06 14.87 147.06 16.11V16.92H139.35C139.35 17.54 139.48 18.07 139.72 18.53C139.96 18.98 140.29 19.32 140.71 19.56C141.13 19.8 141.62 19.92 142.19 19.92C142.76 19.92 143.21 19.81 143.59 19.6C143.97 19.39 144.25 19.12 144.42 18.78H146.96C146.8 19.42 146.51 19.98 146.07 20.46C145.64 20.93 145.08 21.3 144.41 21.57C143.75 21.83 142.99 21.96 142.15 21.96L142.16 21.94ZM144.59 15.15C144.59 14.65 144.48 14.2 144.26 13.81C144.05 13.42 143.75 13.11 143.38 12.88C143 12.66 142.56 12.54 142.07 12.54C141.58 12.54 141.11 12.66 140.71 12.9C140.32 13.13 140.01 13.45 139.77 13.85C139.54 14.24 139.41 14.68 139.37 15.15H144.59ZM155.35 13.83C155.27 13.41 155.06 13.08 154.72 12.83C154.38 12.59 153.94 12.46 153.4 12.46C153.03 12.46 152.7 12.52 152.4 12.63C152.11 12.74 151.88 12.89 151.72 13.1C151.56 13.3 151.48 13.52 151.49 13.76C151.47 14.35 151.99 14.77 153.06 15.02L154.93 15.41C155.98 15.65 156.76 16.01 157.27 16.5C157.78 16.99 158.04 17.63 158.04 18.42C158.04 19.11 157.84 19.73 157.45 20.26C157.06 20.79 156.51 21.2 155.8 21.5C155.09 21.79 154.27 21.94 153.32 21.94C151.93 21.94 150.82 21.64 150 21.05C149.19 20.45 148.71 19.62 148.58 18.56H151.22C151.3 19.03 151.52 19.38 151.87 19.62C152.23 19.85 152.71 19.97 153.31 19.97C153.91 19.97 154.44 19.85 154.82 19.61C155.2 19.37 155.39 19.05 155.39 18.64C155.39 18.32 155.26 18.06 154.99 17.86C154.73 17.65 154.33 17.48 153.78 17.36L152.01 16.97C150.99 16.77 150.21 16.4 149.68 15.88C149.16 15.36 148.9 14.7 148.9 13.9C148.9 13.23 149.08 12.64 149.45 12.13C149.82 11.61 150.34 11.22 151.01 10.94C151.68 10.66 152.46 10.52 153.36 10.52C154.26 10.52 154.98 10.66 155.63 10.93C156.28 11.19 156.79 11.57 157.17 12.07C157.54 12.57 157.76 13.15 157.82 13.82H155.36L155.35 13.83ZM166.27 13.83C166.19 13.41 165.98 13.08 165.64 12.83C165.3 12.59 164.86 12.46 164.32 12.46C163.95 12.46 163.62 12.52 163.32 12.63C163.03 12.74 162.8 12.89 162.64 13.1C162.48 13.3 162.4 13.52 162.41 13.76C162.39 14.35 162.91 14.77 163.98 15.02L165.85 15.41C166.9 15.65 167.68 16.01 168.19 16.5C168.7 16.99 168.96 17.63 168.96 18.42C168.96 19.11 168.76 19.73 168.37 20.26C167.98 20.79 167.43 21.2 166.72 21.5C166.01 21.79 165.19 21.94 164.24 21.94C162.85 21.94 161.74 21.64 160.92 21.05C160.11 20.45 159.63 19.62 159.5 18.56H162.15C162.23 19.03 162.45 19.38 162.8 19.62C163.16 19.85 163.64 19.97 164.24 19.97C164.84 19.97 165.37 19.85 165.75 19.61C166.13 19.37 166.32 19.05 166.32 18.64C166.32 18.32 166.19 18.06 165.92 17.86C165.66 17.65 165.26 17.48 164.71 17.36L162.94 16.97C161.92 16.77 161.14 16.4 160.61 15.88C160.09 15.36 159.83 14.7 159.83 13.9C159.83 13.23 160.01 12.64 160.38 12.13C160.75 11.61 161.27 11.22 161.94 10.94C162.61 10.66 163.39 10.52 164.29 10.52C165.19 10.52 165.91 10.66 166.56 10.93C167.21 11.19 167.72 11.57 168.1 12.07C168.47 12.57 168.69 13.15 168.75 13.82H166.29L166.27 13.83Z" fill="white"/>
<g clip-path="url(#clip0_1399_1506)">
<mask id="mask0_1399_1506" style="mask-type:luminance" maskUnits="userSpaceOnUse" x="0" y="1" width="24" height="24">
<path d="M24 1H0V25H24V1Z" fill="white"/>
</mask>
<g mask="url(#mask0_1399_1506)">
<path d="M12.0234 1.00468C5.42515 1.00468 0.0766602 6.37705 0.0766602 13.0047C0.0766602 17.0702 2.09109 20.658 5.16869 22.8314L6.81472 16.7377H11.571L10.4705 20.8126C10.0788 22.2694 9.18355 23.4871 8.01312 24.3068C9.26748 24.7565 10.6151 25 12.0234 25C18.6215 25 23.97 19.6276 23.97 13C23.97 6.37237 18.6215 1 12.0234 1V1.00468ZM5.72358 9.94145L8.10172 6.39579H9.89699L21.9415 6.3911L19.9039 9.93676H10.7363L5.72358 9.94145ZM19.4795 15.6135L7.04321 15.6323C8.28358 13.3841 11.1047 11.6698 13.6974 11.6323C14.5181 11.6323 21.424 11.6323 21.424 11.6323L19.4795 15.6135Z" fill="black"/>
<path d="M10.4706 20.817L11.571 16.7422H6.81474L5.1687 22.8358C6.04068 23.4494 6.99194 23.9505 8.01314 24.3159C9.18356 23.4963 10.0789 22.2832 10.4706 20.8218V20.817Z" fill="white"/>
<path d="M7.04321 15.6372L19.4795 15.6185L21.4239 11.6372C21.4239 11.6372 14.518 11.6372 13.6973 11.6372C11.1047 11.6747 8.28358 13.389 7.04321 15.6372Z" fill="white"/>
<path d="M10.7364 9.9319H19.9038L21.9416 6.38623H9.89697V6.39092H11.3332L10.7364 9.9319Z" fill="white"/>
<path d="M10.7362 9.9321H9.29993L9.8968 6.39111H8.10153L5.72339 9.94146H10.7362V9.9321Z" fill="white"/>
<path d="M10.7362 9.9321L11.3331 6.39111H9.89691L9.30005 9.9321H10.7362Z" fill="white"/>
</g>
</g>
<defs>
<clipPath id="clip0_1399_1506">
<rect width="24" height="24" fill="white" transform="translate(0 1)"/>
</clipPath>
</defs>
</svg>
