<svg width="15" height="10" viewBox="0 0 15 10" fill="none" xmlns="http://www.w3.org/2000/svg">
<path d="M9.83333 6.66668C9.83333 7.11038 9.53745 7.67067 8.72273 8.17204C7.92419 8.66345 6.75784 9.00001 5.41667 9.00001C4.07549 9.00001 2.90915 8.66345 2.1106 8.17204C1.29588 7.67067 1 7.11038 1 6.66668C1 6.22298 1.29588 5.66268 2.1106 5.16131C2.90915 4.6699 4.07549 4.33334 5.41667 4.33334C6.75784 4.33334 7.92419 4.6699 8.72273 5.16131C9.53745 5.66268 9.83333 6.22298 9.83333 6.66668Z" stroke="#F1CA76" stroke-width="2"/>
<path d="M13.6654 3.33333C13.6654 4.01542 13.2143 4.71224 12.3168 5.26453C11.4274 5.81184 10.1672 6.16667 8.7487 6.16667C7.33022 6.16667 6.06997 5.81184 5.18058 5.26453C4.28311 4.71224 3.83203 4.01542 3.83203 3.33333C3.83203 2.65125 4.28311 1.95443 5.18058 1.40214C6.06997 0.854827 7.33022 0.5 8.7487 0.5C10.1672 0.5 11.4274 0.854827 12.3168 1.40214C13.2143 1.95443 13.6654 2.65125 13.6654 3.33333Z" fill="#F1CA76" stroke="#F1CA76"/>
</svg>
