<svg width="19" height="20" viewBox="0 0 19 20" fill="none" xmlns="http://www.w3.org/2000/svg">
<path id="Vector" d="M16.9124 19.6118L12.6483 15.3379C12.0343 15.8298 11.3282 16.2192 10.53 16.5061C9.73183 16.7931 8.88247 16.9366 7.98195 16.9366C5.75109 16.9366 3.86326 16.163 2.31845 14.616C0.772816 13.0682 0 11.1773 0 8.94325C0 6.70923 0.772816 4.8183 2.31845 3.27047C3.86326 1.72346 5.75109 0.949951 7.98195 0.949951C10.2128 0.949951 12.101 1.72346 13.6467 3.27047C15.1915 4.8183 15.9639 6.70923 15.9639 8.94325C15.9639 9.84506 15.8206 10.6956 15.5341 11.495C15.2476 12.2943 14.8587 13.0014 14.3675 13.6163L18.6623 17.9209C18.8874 18.1463 19 18.423 19 18.751C19 19.0789 18.8772 19.3658 18.6316 19.6118C18.4065 19.8372 18.1199 19.95 17.772 19.95C17.4241 19.95 17.1375 19.8372 16.9124 19.6118ZM7.98195 14.4771C9.51694 14.4771 10.8219 13.9393 11.8968 12.8637C12.9709 11.7872 13.5079 10.4804 13.5079 8.94325C13.5079 7.40608 12.9709 6.09928 11.8968 5.02284C10.8219 3.94723 9.51694 3.40943 7.98195 3.40943C6.44696 3.40943 5.14201 3.94723 4.06711 5.02284C2.99303 6.09928 2.45598 7.40608 2.45598 8.94325C2.45598 10.4804 2.99303 11.7872 4.06711 12.8637C5.14201 13.9393 6.44696 14.4771 7.98195 14.4771Z" fill="white"/>
</svg>
