<svg width="22" height="18" viewBox="0 0 22 18" fill="none" xmlns="http://www.w3.org/2000/svg">
<g clip-path="url(#clip0_1210_3921)">
<path d="M5.58727 7.90502L3.43394 9.42601C3.32724 9.50677 3.21084 9.54482 3.08475 9.54015C2.95865 9.53585 2.8471 9.50229 2.75011 9.43947C2.65311 9.37666 2.57803 9.29141 2.52488 9.18373C2.47134 9.07605 2.46881 8.9594 2.51731 8.83377L3.34664 6.34365L1.23695 4.95726C1.12055 4.88548 1.04781 4.79126 1.01871 4.6746C0.989606 4.55795 0.994456 4.45027 1.03326 4.35156C1.07206 4.25285 1.13995 4.16527 1.23695 4.08882C1.33395 4.01273 1.45034 3.97468 1.58614 3.97468H4.19051L5.03439 1.39034C5.08289 1.26471 5.15816 1.16816 5.2602 1.10068C5.36185 1.03356 5.47088 1 5.58727 1C5.70367 1 5.8127 1.03356 5.91435 1.10068C6.01639 1.16816 6.09166 1.26471 6.14016 1.39034L6.98403 3.97468H9.58841C9.7242 3.97468 9.8406 4.01273 9.9376 4.08882C10.0346 4.16527 10.1025 4.25285 10.1413 4.35156C10.1801 4.45027 10.1849 4.55795 10.1558 4.6746C10.1267 4.79126 10.054 4.88548 9.9376 4.95726L7.82791 6.34365L8.65723 8.83377C8.70573 8.9594 8.70341 9.07605 8.65025 9.18373C8.59671 9.29141 8.52144 9.37666 8.42444 9.43947C8.32744 9.50229 8.2159 9.53585 8.0898 9.54015C7.9637 9.54482 7.84731 9.50677 7.74061 9.42601L5.58727 7.90502Z" fill="url(#paint0_linear_1210_3921)"/>
<mask id="mask0_1210_3921" style="mask-type:luminance" maskUnits="userSpaceOnUse" x="0" y="0" width="11" height="11">
<path d="M11 0H0V11H11V0Z" fill="white"/>
<path d="M5.58727 7.90502L3.43394 9.42601C3.32724 9.50677 3.21084 9.54482 3.08475 9.54015C2.95865 9.53585 2.8471 9.50229 2.75011 9.43947C2.65311 9.37666 2.57803 9.29141 2.52488 9.18373C2.47134 9.07605 2.46881 8.9594 2.51731 8.83377L3.34664 6.34365L1.23695 4.95726C1.12055 4.88548 1.04781 4.79126 1.01871 4.6746C0.989606 4.55795 0.994456 4.45027 1.03326 4.35156C1.07206 4.25285 1.13995 4.16527 1.23695 4.08882C1.33395 4.01273 1.45034 3.97468 1.58614 3.97468H4.19051L5.03439 1.39034C5.08289 1.26471 5.15816 1.16816 5.2602 1.10068C5.36185 1.03356 5.47088 1 5.58727 1C5.70367 1 5.8127 1.03356 5.91435 1.10068C6.01639 1.16816 6.09166 1.26471 6.14016 1.39034L6.98403 3.97468H9.58841C9.7242 3.97468 9.8406 4.01273 9.9376 4.08882C10.0346 4.16527 10.1025 4.25285 10.1413 4.35156C10.1801 4.45027 10.1849 4.55795 10.1558 4.6746C10.1267 4.79126 10.054 4.88548 9.9376 4.95726L7.82791 6.34365L8.65723 8.83377C8.70573 8.9594 8.70341 9.07605 8.65025 9.18373C8.59671 9.29141 8.52144 9.37666 8.42444 9.43947C8.32744 9.50229 8.2159 9.53585 8.0898 9.54015C7.9637 9.54482 7.84731 9.50677 7.74061 9.42601L5.58727 7.90502Z" fill="black"/>
</mask>
<g mask="url(#mask0_1210_3921)">
<path d="M5.58662 7.905L5.95924 7.37747L5.58662 7.11428L5.21401 7.37747L5.58662 7.905ZM3.43329 9.42599L3.06067 8.89846L3.05198 8.9046L3.0435 8.91102L3.43329 9.42599ZM3.0841 9.54013L3.10798 8.89472L3.10614 8.89465L3.0841 9.54013ZM2.52423 9.18371L3.10337 8.89783L3.10254 8.89616L2.52423 9.18371ZM2.51666 8.83375L3.11918 9.06635L3.12464 9.05221L3.12943 9.03783L2.51666 8.83375ZM3.34599 6.34363L3.95875 6.54771L4.11566 6.07659L3.70068 5.80389L3.34599 6.34363ZM1.2363 4.95724L1.59099 4.4175L1.58324 4.4124L1.57533 4.40753L1.2363 4.95724ZM1.2363 4.0888L0.83766 3.58065L0.8365 3.58157L1.2363 4.0888ZM4.18986 3.97466V4.62052H4.65839L4.80382 4.17514L4.18986 3.97466ZM5.03374 1.39032L4.43122 1.15772L4.42508 1.17363L4.41979 1.18985L5.03374 1.39032ZM6.13951 1.39032L6.75346 1.18985L6.74817 1.17363L6.74202 1.15772L6.13951 1.39032ZM6.98338 3.97466L6.36943 4.17514L6.51486 4.62052H6.98338V3.97466ZM9.93695 4.0888L10.3368 3.58156L10.3356 3.58065L9.93695 4.0888ZM9.93695 4.95724L9.59791 4.40753L9.59001 4.4124L9.58225 4.4175L9.93695 4.95724ZM7.82726 6.34363L7.47257 5.80389L7.05759 6.07659L7.21449 6.54771L7.82726 6.34363ZM8.65658 8.83375L8.04382 9.03783L8.04861 9.05221L8.05407 9.06635L8.65658 8.83375ZM8.6496 9.18371L9.22791 9.47127L9.22874 9.46959L8.6496 9.18371ZM8.08915 9.54013L8.0671 8.89465L8.06527 8.89472L8.08915 9.54013ZM7.73996 9.42599L8.12975 8.91102L8.12127 8.9046L8.11258 8.89846L7.73996 9.42599ZM5.21401 7.37747L3.06067 8.89846L3.8059 9.95352L5.95924 8.43253L5.21401 7.37747ZM3.0435 8.91102C3.04198 8.91217 3.04938 8.90641 3.0653 8.90121C3.08171 8.89584 3.09726 8.89432 3.10798 8.89472L3.06021 10.1856C3.34453 10.1961 3.60539 10.1058 3.82308 9.94096L3.0435 8.91102ZM3.10614 8.89465C3.09412 8.89424 3.09021 8.89274 3.09194 8.89326C3.09265 8.89348 3.09406 8.89396 3.09587 8.8948C3.09769 8.89564 3.09929 8.89655 3.10052 8.89734L2.39839 9.98156C2.60259 10.1138 2.83003 10.1777 3.06205 10.1856L3.10614 8.89465ZM3.10052 8.89734C3.10038 8.89725 3.101 8.89765 3.10207 8.89857C3.10315 8.89949 3.1042 8.90054 3.10509 8.90155C3.10718 8.90393 3.10623 8.90364 3.10337 8.89783L1.94509 9.46959C2.04767 9.6774 2.19974 9.85292 2.39839 9.98156L3.10052 8.89734ZM3.10254 8.89616C3.11676 8.92476 3.12703 8.96183 3.12789 9.0015C3.1287 9.03935 3.12064 9.06257 3.11918 9.06635L1.91415 8.60115C1.80904 8.87341 1.80154 9.1809 1.94592 9.47127L3.10254 8.89616ZM3.12943 9.03783L3.95875 6.54771L2.73322 6.13955L1.9039 8.62967L3.12943 9.03783ZM3.70068 5.80389L1.59099 4.4175L0.881609 5.49699L2.99129 6.88338L3.70068 5.80389ZM1.57533 4.40753C1.57367 4.4065 1.58793 4.41507 1.60565 4.43803C1.62438 4.46228 1.63788 4.4909 1.64471 4.51827L0.391406 4.8309C0.467033 5.13408 0.658699 5.35982 0.897269 5.50696L1.57533 4.40753ZM1.64471 4.51827C1.64355 4.51361 1.64576 4.52014 1.64507 4.53539C1.64435 4.5514 1.64073 4.5699 1.63369 4.58781L0.431521 4.11527C0.337167 4.35532 0.334312 4.60202 0.391406 4.8309L1.64471 4.51827ZM1.63369 4.58781C1.63178 4.59268 1.62966 4.59699 1.6276 4.60059C1.62555 4.60417 1.62388 4.60649 1.62306 4.60754C1.62138 4.60971 1.62424 4.60539 1.6361 4.59604L0.8365 3.58157C0.664534 3.71711 0.518667 3.89357 0.431521 4.11527L1.63369 4.58781ZM1.63494 4.59695C1.62454 4.60511 1.61096 4.61253 1.59701 4.61709C1.58378 4.62141 1.57839 4.62052 1.58549 4.62052V3.3288C1.32071 3.3288 1.06005 3.40618 0.83766 3.58065L1.63494 4.59695ZM1.58549 4.62052H4.18986V3.3288H1.58549V4.62052ZM4.80382 4.17514L5.64769 1.5908L4.41979 1.18985L3.57591 3.77418L4.80382 4.17514ZM5.63626 1.62292C5.63995 1.61336 5.64093 1.61437 5.63593 1.62077C5.63357 1.6238 5.63045 1.62728 5.62663 1.63082C5.62281 1.63435 5.61906 1.63722 5.6158 1.63938L4.90367 0.561699C4.67847 0.710622 4.52292 0.920185 4.43122 1.15772L5.63626 1.62292ZM5.6158 1.63938C5.61882 1.63738 5.61564 1.63994 5.60757 1.64242C5.59927 1.64498 5.59151 1.64584 5.58662 1.64584V0.354126C5.33762 0.354126 5.10574 0.428278 4.90367 0.561699L5.6158 1.63938ZM5.58662 1.64584C5.58174 1.64584 5.57398 1.64498 5.56568 1.64242C5.55761 1.63994 5.5548 1.63763 5.55782 1.63963L6.26995 0.561948C6.06789 0.428527 5.83563 0.354126 5.58662 0.354126V1.64584ZM5.55782 1.63963C5.55455 1.63747 5.55044 1.63435 5.54662 1.63082C5.5428 1.62728 5.53967 1.6238 5.53731 1.62077C5.53232 1.61437 5.5333 1.61336 5.53699 1.62292L6.74202 1.15772C6.65032 0.920185 6.49515 0.710871 6.26995 0.561948L5.55782 1.63963ZM5.52555 1.5908L6.36943 4.17514L7.59734 3.77418L6.75346 1.18985L5.52555 1.5908ZM6.98338 4.62052H9.58776V3.3288H6.98338V4.62052ZM9.58776 4.62052C9.59486 4.62052 9.58946 4.62141 9.57624 4.61709C9.56228 4.61253 9.54871 4.60511 9.53831 4.59695L10.3356 3.58065C10.1132 3.40618 9.85254 3.3288 9.58776 3.3288V4.62052ZM9.53714 4.59604C9.54901 4.60539 9.55187 4.60971 9.55019 4.60754C9.54937 4.60649 9.5477 4.60417 9.54565 4.60059C9.54358 4.59699 9.54147 4.59268 9.53955 4.58781L10.7418 4.11527C10.6546 3.89356 10.5088 3.7171 10.3368 3.58156L9.53714 4.59604ZM9.53955 4.58781C9.53252 4.5699 9.5289 4.5514 9.52818 4.53539C9.52749 4.52014 9.5297 4.51361 9.52854 4.51827L10.7819 4.8309C10.839 4.60202 10.8361 4.35532 10.7418 4.11527L9.53955 4.58781ZM9.52854 4.51827C9.53536 4.4909 9.54887 4.46228 9.5676 4.43803C9.58532 4.41507 9.59958 4.4065 9.59791 4.40753L10.276 5.50696C10.5146 5.35982 10.7063 5.13408 10.7819 4.8309L9.52854 4.51827ZM9.58225 4.4175L7.47257 5.80389L8.18195 6.88338L10.2917 5.49699L9.58225 4.4175ZM7.21449 6.54771L8.04382 9.03783L9.26935 8.62967L8.44002 6.13955L7.21449 6.54771ZM8.05407 9.06635C8.05272 9.06285 8.04474 9.04001 8.04549 9.00258C8.04627 8.96331 8.05634 8.92644 8.07046 8.89783L9.22874 9.46959C9.37199 9.17939 9.3639 8.87261 9.2591 8.60115L8.05407 9.06635ZM8.07129 8.89616C8.06822 8.90234 8.06703 8.90299 8.06885 8.90093C8.06961 8.90007 8.07053 8.89915 8.07149 8.89833C8.07243 8.89752 8.07295 8.8972 8.07273 8.89734L8.77485 9.98156C8.9731 9.85318 9.125 9.67823 9.22791 9.47127L8.07129 8.89616ZM8.07273 8.89734C8.07396 8.89655 8.07556 8.89564 8.07738 8.8948C8.07919 8.89396 8.0806 8.89348 8.08131 8.89326C8.08304 8.89274 8.07912 8.89424 8.0671 8.89465L8.1112 10.1856C8.34321 10.1777 8.57066 10.1138 8.77485 9.98156L8.07273 8.89734ZM8.06527 8.89472C8.07599 8.89432 8.09154 8.89584 8.10795 8.90121C8.12387 8.90641 8.13126 8.91217 8.12975 8.91102L7.35017 9.94096C7.56786 10.1058 7.82871 10.1961 8.11303 10.1856L8.06527 8.89472ZM8.11258 8.89846L5.95924 7.37747L5.21401 8.43253L7.36735 9.95352L8.11258 8.89846Z" fill="#472500"/>
</g>
<path d="M16.6576 7.90502L14.5042 9.42601C14.3976 9.50677 14.2812 9.54482 14.1551 9.54015C14.029 9.53585 13.9174 9.50229 13.8204 9.43947C13.7234 9.37666 13.6483 9.29141 13.5952 9.18373C13.5416 9.07605 13.5391 8.9594 13.5876 8.83377L14.417 6.34365L12.3073 4.95726C12.1909 4.88548 12.1181 4.79126 12.089 4.6746C12.0599 4.55795 12.0648 4.45027 12.1036 4.35156C12.1424 4.25285 12.2103 4.16527 12.3073 4.08882C12.4043 4.01273 12.5207 3.97468 12.6565 3.97468H15.2608L16.1047 1.39034C16.1532 1.26471 16.2285 1.16816 16.3305 1.10068C16.4322 1.03356 16.5412 1 16.6576 1C16.774 1 16.883 1.03356 16.9847 1.10068C17.0867 1.16816 17.162 1.26471 17.2105 1.39034L18.0543 3.97468H20.6587C20.7945 3.97468 20.9109 4.01273 21.0079 4.08882C21.1049 4.16527 21.1728 4.25285 21.2116 4.35156C21.2504 4.45027 21.2553 4.55795 21.2262 4.6746C21.1971 4.79126 21.1243 4.88548 21.0079 4.95726L18.8982 6.34365L19.7275 8.83377C19.776 8.9594 19.7737 9.07605 19.7206 9.18373C19.667 9.29141 19.5918 9.37666 19.4948 9.43947C19.3978 9.50229 19.2862 9.53585 19.1601 9.54015C19.034 9.54482 18.9176 9.50677 18.8109 9.42601L16.6576 7.90502Z" fill="url(#paint1_linear_1210_3921)"/>
<mask id="mask1_1210_3921" style="mask-type:luminance" maskUnits="userSpaceOnUse" x="11" y="0" width="12" height="11">
<path d="M22.0703 0H11.0703V11H22.0703V0Z" fill="white"/>
<path d="M16.6576 7.90502L14.5042 9.42601C14.3976 9.50677 14.2812 9.54482 14.1551 9.54015C14.029 9.53585 13.9174 9.50229 13.8204 9.43947C13.7234 9.37666 13.6483 9.29141 13.5952 9.18373C13.5416 9.07605 13.5391 8.9594 13.5876 8.83377L14.417 6.34365L12.3073 4.95726C12.1909 4.88548 12.1181 4.79126 12.089 4.6746C12.0599 4.55795 12.0648 4.45027 12.1036 4.35156C12.1424 4.25285 12.2103 4.16527 12.3073 4.08882C12.4043 4.01273 12.5207 3.97468 12.6565 3.97468H15.2608L16.1047 1.39034C16.1532 1.26471 16.2285 1.16816 16.3305 1.10068C16.4322 1.03356 16.5412 1 16.6576 1C16.774 1 16.883 1.03356 16.9847 1.10068C17.0867 1.16816 17.162 1.26471 17.2105 1.39034L18.0543 3.97468H20.6587C20.7945 3.97468 20.9109 4.01273 21.0079 4.08882C21.1049 4.16527 21.1728 4.25285 21.2116 4.35156C21.2504 4.45027 21.2553 4.55795 21.2262 4.6746C21.1971 4.79126 21.1243 4.88548 21.0079 4.95726L18.8982 6.34365L19.7275 8.83377C19.776 8.9594 19.7737 9.07605 19.7206 9.18373C19.667 9.29141 19.5918 9.37666 19.4948 9.43947C19.3978 9.50229 19.2862 9.53585 19.1601 9.54015C19.034 9.54482 18.9176 9.50677 18.8109 9.42601L16.6576 7.90502Z" fill="black"/>
</mask>
<g mask="url(#mask1_1210_3921)">
<path d="M16.6569 7.905L17.0295 7.37747L16.6569 7.11428L16.2843 7.37747L16.6569 7.905ZM14.5035 9.42599L14.1309 8.89846L14.1222 8.9046L14.1138 8.91102L14.5035 9.42599ZM14.1544 9.54013L14.1782 8.89472L14.1764 8.89465L14.1544 9.54013ZM13.5945 9.18371L14.1736 8.89783L14.1728 8.89616L13.5945 9.18371ZM13.5869 8.83375L14.1894 9.06635L14.1949 9.05221L14.1997 9.03783L13.5869 8.83375ZM14.4163 6.34363L15.029 6.54771L15.1859 6.07659L14.7709 5.80389L14.4163 6.34363ZM12.3066 4.95724L12.6613 4.4175L12.6535 4.4124L12.6456 4.40753L12.3066 4.95724ZM12.3066 4.0888L11.9079 3.58065L11.9068 3.58157L12.3066 4.0888ZM15.2601 3.97466V4.62052H15.7286L15.8741 4.17514L15.2601 3.97466ZM16.104 1.39032L15.5015 1.15772L15.4953 1.17363L15.49 1.18985L16.104 1.39032ZM17.2098 1.39032L17.8237 1.18985L17.8184 1.17363L17.8123 1.15772L17.2098 1.39032ZM18.0536 3.97466L17.4397 4.17514L17.5851 4.62052H18.0536V3.97466ZM21.0072 4.0888L21.407 3.58156L21.4059 3.58065L21.0072 4.0888ZM21.0072 4.95724L20.6682 4.40753L20.6603 4.4124L20.6525 4.4175L21.0072 4.95724ZM18.8975 6.34363L18.5428 5.80389L18.1279 6.07659L18.2848 6.54771L18.8975 6.34363ZM19.7268 8.83375L19.1141 9.03783L19.1189 9.05221L19.1243 9.06635L19.7268 8.83375ZM19.7199 9.18371L20.2982 9.47127L20.299 9.46959L19.7199 9.18371ZM19.1594 9.54013L19.1374 8.89465L19.1355 8.89472L19.1594 9.54013ZM18.8102 9.42599L19.2 8.91102L19.1915 8.9046L19.1828 8.89846L18.8102 9.42599ZM16.2843 7.37747L14.1309 8.89846L14.8762 9.95352L17.0295 8.43253L16.2843 7.37747ZM14.1138 8.91102C14.1122 8.91217 14.1196 8.90641 14.1356 8.90121C14.152 8.89584 14.1675 8.89432 14.1782 8.89472L14.1305 10.1856C14.4148 10.1961 14.6757 10.1058 14.8933 9.94096L14.1138 8.91102ZM14.1764 8.89465C14.1644 8.89424 14.1605 8.89274 14.1622 8.89326C14.1629 8.89348 14.1643 8.89396 14.1661 8.8948C14.1679 8.89564 14.1696 8.89655 14.1708 8.89734L13.4687 9.98156C13.6728 10.1138 13.9003 10.1777 14.1323 10.1856L14.1764 8.89465ZM14.1708 8.89734C14.1706 8.89725 14.1713 8.89765 14.1723 8.89857C14.1734 8.89949 14.1745 8.90054 14.1754 8.90155C14.1774 8.90393 14.1765 8.90364 14.1736 8.89783L13.0154 9.46959C13.1179 9.6774 13.27 9.85292 13.4687 9.98156L14.1708 8.89734ZM14.1728 8.89616C14.187 8.92476 14.1973 8.96183 14.1981 9.0015C14.199 9.03935 14.1909 9.06257 14.1894 9.06635L12.9844 8.60115C12.8793 8.87341 12.8718 9.1809 13.0162 9.47127L14.1728 8.89616ZM14.1997 9.03783L15.029 6.54771L13.8035 6.13955L12.9742 8.62967L14.1997 9.03783ZM14.7709 5.80389L12.6613 4.4175L11.9519 5.49699L14.0616 6.88338L14.7709 5.80389ZM12.6456 4.40753C12.6439 4.4065 12.6582 4.41507 12.6759 4.43803C12.6946 4.46228 12.7081 4.4909 12.715 4.51827L11.4617 4.8309C11.5373 5.13408 11.729 5.35982 11.9675 5.50696L12.6456 4.40753ZM12.715 4.51827C12.7138 4.51361 12.716 4.52014 12.7153 4.53539C12.7146 4.5514 12.711 4.5699 12.704 4.58781L11.5018 4.11527C11.4074 4.35532 11.4046 4.60202 11.4617 4.8309L12.715 4.51827ZM12.704 4.58781C12.702 4.59268 12.6999 4.59699 12.6979 4.60059C12.6958 4.60417 12.6941 4.60649 12.6933 4.60754C12.6916 4.60971 12.6945 4.60539 12.7064 4.59604L11.9068 3.58157C11.7348 3.71711 11.5889 3.89357 11.5018 4.11527L12.704 4.58781ZM12.7052 4.59695C12.6948 4.60511 12.6812 4.61253 12.6673 4.61709C12.654 4.62141 12.6487 4.62052 12.6558 4.62052V3.3288C12.391 3.3288 12.1303 3.40618 11.9079 3.58065L12.7052 4.59695ZM12.6558 4.62052H15.2601V3.3288H12.6558V4.62052ZM15.8741 4.17514L16.718 1.5908L15.49 1.18985L14.6462 3.77418L15.8741 4.17514ZM16.7065 1.62292C16.7102 1.61336 16.7112 1.61437 16.7062 1.62077C16.7038 1.6238 16.7007 1.62728 16.6969 1.63082C16.6931 1.63435 16.6893 1.63722 16.6861 1.63938L15.9739 0.561699C15.7487 0.710622 15.5932 0.920185 15.5015 1.15772L16.7065 1.62292ZM16.6861 1.63938C16.6891 1.63738 16.6859 1.63994 16.6778 1.64242C16.6695 1.64498 16.6618 1.64584 16.6569 1.64584V0.354126C16.4079 0.354126 16.176 0.428278 15.9739 0.561699L16.6861 1.63938ZM16.6569 1.64584C16.652 1.64584 16.6442 1.64498 16.6359 1.64242C16.6279 1.63994 16.6251 1.63763 16.6281 1.63963L17.3402 0.561948C17.1382 0.428527 16.9059 0.354126 16.6569 0.354126V1.64584ZM16.6281 1.63963C16.6248 1.63747 16.6207 1.63435 16.6169 1.63082C16.6131 1.62728 16.6099 1.6238 16.6076 1.62077C16.6026 1.61437 16.6036 1.61336 16.6073 1.62292L17.8123 1.15772C17.7206 0.920185 17.5654 0.710871 17.3402 0.561948L16.6281 1.63963ZM16.5958 1.5908L17.4397 4.17514L18.6676 3.77418L17.8237 1.18985L16.5958 1.5908ZM18.0536 4.62052H20.658V3.3288H18.0536V4.62052ZM20.658 4.62052C20.6651 4.62052 20.6597 4.62141 20.6465 4.61709C20.6325 4.61253 20.619 4.60511 20.6086 4.59695L21.4059 3.58065C21.1835 3.40618 20.9228 3.3288 20.658 3.3288V4.62052ZM20.6074 4.59604C20.6193 4.60539 20.6221 4.60971 20.6205 4.60754C20.6196 4.60649 20.618 4.60417 20.6159 4.60059C20.6138 4.59699 20.6117 4.59268 20.6098 4.58781L21.812 4.11527C21.7248 3.89356 21.579 3.7171 21.407 3.58156L20.6074 4.59604ZM20.6098 4.58781C20.6028 4.5699 20.5992 4.5514 20.5984 4.53539C20.5978 4.52014 20.6 4.51361 20.5988 4.51827L21.8521 4.8309C21.9092 4.60202 21.9063 4.35532 21.812 4.11527L20.6098 4.58781ZM20.5988 4.51827C20.6056 4.4909 20.6191 4.46228 20.6379 4.43803C20.6556 4.41507 20.6698 4.4065 20.6682 4.40753L21.3462 5.50696C21.5848 5.35982 21.7765 5.13408 21.8521 4.8309L20.5988 4.51827ZM20.6525 4.4175L18.5428 5.80389L19.2522 6.88338L21.3619 5.49699L20.6525 4.4175ZM18.2848 6.54771L19.1141 9.03783L20.3396 8.62967L19.5103 6.13955L18.2848 6.54771ZM19.1243 9.06635C19.123 9.06285 19.115 9.04001 19.1157 9.00258C19.1165 8.96331 19.1266 8.92644 19.1407 8.89783L20.299 9.46959C20.4423 9.17939 20.4342 8.87261 20.3294 8.60115L19.1243 9.06635ZM19.1416 8.89616C19.1385 8.90234 19.1373 8.90299 19.1391 8.90093C19.1399 8.90007 19.1408 8.89915 19.1417 8.89833C19.1427 8.89752 19.1432 8.8972 19.143 8.89734L19.8451 9.98156C20.0434 9.85318 20.1953 9.67823 20.2982 9.47127L19.1416 8.89616ZM19.143 8.89734C19.1442 8.89655 19.1458 8.89564 19.1476 8.8948C19.1495 8.89396 19.1509 8.89348 19.1516 8.89326C19.1533 8.89274 19.1494 8.89424 19.1374 8.89465L19.1815 10.1856C19.4135 10.1777 19.6409 10.1138 19.8451 9.98156L19.143 8.89734ZM19.1355 8.89472C19.1463 8.89432 19.1618 8.89584 19.1782 8.90121C19.1941 8.90641 19.2015 8.91217 19.2 8.91102L18.4204 9.94096C18.6381 10.1058 18.899 10.1961 19.1833 10.1856L19.1355 8.89472ZM19.1828 8.89846L17.0295 7.37747L16.2843 8.43253L18.4376 9.95352L19.1828 8.89846Z" fill="#472500"/>
</g>
<path d="M11.1185 15.2864L8.96519 16.8074C8.85849 16.8881 8.74209 16.9262 8.616 16.9215C8.4899 16.9172 8.37835 16.8836 8.28136 16.8208C8.18436 16.758 8.10928 16.6728 8.05613 16.5651C8.00259 16.4574 8.00006 16.3407 8.04856 16.2151L8.87789 13.725L6.7682 12.3386C6.6518 12.2668 6.57906 12.1726 6.54996 12.056C6.52086 11.9393 6.52571 11.8316 6.56451 11.7329C6.60331 11.6342 6.6712 11.5466 6.7682 11.4702C6.8652 11.3941 6.98159 11.356 7.11739 11.356H9.72176L10.5656 8.77169C10.6141 8.64606 10.6894 8.54951 10.7914 8.48203C10.8931 8.41491 11.0021 8.38135 11.1185 8.38135C11.2349 8.38135 11.3439 8.41491 11.4456 8.48203C11.5476 8.54951 11.6229 8.64606 11.6714 8.77169L12.5153 11.356H15.1197C15.2555 11.356 15.3719 11.3941 15.4688 11.4702C15.5658 11.5466 15.6337 11.6342 15.6725 11.7329C15.7113 11.8316 15.7162 11.9393 15.6871 12.056C15.658 12.1726 15.5852 12.2668 15.4688 12.3386L13.3592 13.725L14.1885 16.2151C14.237 16.3407 14.2347 16.4574 14.1815 16.5651C14.128 16.6728 14.0527 16.758 13.9557 16.8208C13.8587 16.8836 13.7471 16.9172 13.6211 16.9215C13.495 16.9262 13.3786 16.8881 13.2719 16.8074L11.1185 15.2864Z" fill="url(#paint2_linear_1210_3921)"/>
<mask id="mask2_1210_3921" style="mask-type:luminance" maskUnits="userSpaceOnUse" x="5" y="7" width="12" height="12">
<path d="M16.5312 7.38135H5.53125V18.3813H16.5312V7.38135Z" fill="white"/>
<path d="M11.1185 15.2864L8.96519 16.8074C8.85849 16.8881 8.74209 16.9262 8.616 16.9215C8.4899 16.9172 8.37835 16.8836 8.28136 16.8208C8.18436 16.758 8.10928 16.6728 8.05613 16.5651C8.00259 16.4574 8.00006 16.3407 8.04856 16.2151L8.87789 13.725L6.7682 12.3386C6.6518 12.2668 6.57906 12.1726 6.54996 12.056C6.52086 11.9393 6.52571 11.8316 6.56451 11.7329C6.60331 11.6342 6.6712 11.5466 6.7682 11.4702C6.8652 11.3941 6.98159 11.356 7.11739 11.356H9.72176L10.5656 8.77169C10.6141 8.64606 10.6894 8.54951 10.7914 8.48203C10.8931 8.41491 11.0021 8.38135 11.1185 8.38135C11.2349 8.38135 11.3439 8.41491 11.4456 8.48203C11.5476 8.54951 11.6229 8.64606 11.6714 8.77169L12.5153 11.356H15.1197C15.2555 11.356 15.3719 11.3941 15.4688 11.4702C15.5658 11.5466 15.6337 11.6342 15.6725 11.7329C15.7113 11.8316 15.7162 11.9393 15.6871 12.056C15.658 12.1726 15.5852 12.2668 15.4688 12.3386L13.3592 13.725L14.1885 16.2151C14.237 16.3407 14.2347 16.4574 14.1815 16.5651C14.128 16.6728 14.0527 16.758 13.9557 16.8208C13.8587 16.8836 13.7471 16.9172 13.6211 16.9215C13.495 16.9262 13.3786 16.8881 13.2719 16.8074L11.1185 15.2864Z" fill="black"/>
</mask>
<g mask="url(#mask2_1210_3921)">
<path d="M11.1179 15.2864L11.4905 14.7588L11.1179 14.4956L10.7453 14.7588L11.1179 15.2864ZM8.96454 16.8074L8.59192 16.2798L8.58323 16.286L8.57475 16.2924L8.96454 16.8074ZM8.61535 16.9215L8.63923 16.2761L8.63739 16.276L8.61535 16.9215ZM8.05548 16.5651L8.63462 16.2792L8.63379 16.2775L8.05548 16.5651ZM8.04791 16.2151L8.65043 16.4477L8.65589 16.4336L8.66068 16.4192L8.04791 16.2151ZM8.87724 13.725L9.49 13.9291L9.64691 13.458L9.23193 13.1853L8.87724 13.725ZM6.76755 12.3386L7.12224 11.7989L7.11449 11.7938L7.10658 11.7889L6.76755 12.3386ZM6.76755 11.4702L6.36891 10.962L6.36775 10.9629L6.76755 11.4702ZM9.72111 11.356V12.0019H10.1897L10.3351 11.5565L9.72111 11.356ZM10.565 8.77167L9.96247 8.53907L9.95633 8.55498L9.95104 8.57119L10.565 8.77167ZM11.6708 8.77167L12.2848 8.57119L12.2795 8.55498L12.2733 8.53907L11.6708 8.77167ZM12.5147 11.356L11.9007 11.5565L12.0462 12.0019H12.5147V11.356ZM15.4682 11.4702L15.8681 10.9629L15.8669 10.962L15.4682 11.4702ZM15.4682 12.3386L15.1292 11.7889L15.1213 11.7938L15.1136 11.7989L15.4682 12.3386ZM13.3586 13.725L13.0039 13.1853L12.5889 13.458L12.7458 13.9291L13.3586 13.725ZM14.1879 16.2151L13.5751 16.4192L13.5799 16.4336L13.5854 16.4477L14.1879 16.2151ZM14.1809 16.5651L14.7592 16.8526L14.76 16.851L14.1809 16.5651ZM13.6205 16.9215L13.5984 16.276L13.5966 16.2761L13.6205 16.9215ZM13.2713 16.8074L13.6611 16.2924L13.6526 16.286L13.6439 16.2798L13.2713 16.8074ZM10.7453 14.7588L8.59192 16.2798L9.33715 17.3349L11.4905 15.8139L10.7453 14.7588ZM8.57475 16.2924C8.57323 16.2935 8.58063 16.2878 8.59655 16.2826C8.61296 16.2772 8.62851 16.2757 8.63923 16.2761L8.59146 17.5669C8.87578 17.5774 9.13664 17.4871 9.35433 17.3223L8.57475 16.2924ZM8.63739 16.276C8.62537 16.2756 8.62146 16.2741 8.62319 16.2746C8.6239 16.2748 8.62531 16.2753 8.62712 16.2762C8.62894 16.277 8.63054 16.2779 8.63177 16.2787L7.92964 17.3629C8.13384 17.4952 8.36128 17.5591 8.5933 17.567L8.63739 16.276ZM8.63177 16.2787C8.63163 16.2786 8.63225 16.279 8.63332 16.2799C8.6344 16.2809 8.63545 16.2819 8.63634 16.2829C8.63843 16.2853 8.63748 16.285 8.63462 16.2792L7.47634 16.851C7.57892 17.0588 7.73099 17.2343 7.92964 17.3629L8.63177 16.2787ZM8.63379 16.2775C8.64801 16.3061 8.65828 16.3432 8.65914 16.3829C8.65995 16.4207 8.65189 16.4439 8.65043 16.4477L7.4454 15.9825C7.34029 16.2548 7.33279 16.5623 7.47717 16.8526L8.63379 16.2775ZM8.66068 16.4192L9.49 13.9291L8.26447 13.5209L7.43515 16.011L8.66068 16.4192ZM9.23193 13.1853L7.12224 11.7989L6.41286 12.8784L8.52254 14.2647L9.23193 13.1853ZM7.10658 11.7889C7.10492 11.7879 7.11918 11.7964 7.1369 11.8194C7.15563 11.8436 7.16913 11.8723 7.17596 11.8996L5.92265 12.2123C5.99828 12.5154 6.18995 12.7412 6.42852 12.8883L7.10658 11.7889ZM7.17596 11.8996C7.1748 11.895 7.17701 11.9015 7.17632 11.9168C7.1756 11.9328 7.17198 11.9513 7.16494 11.9692L5.96277 11.4966C5.86841 11.7367 5.86556 11.9834 5.92265 12.2123L7.17596 11.8996ZM7.16494 11.9692C7.16303 11.974 7.16091 11.9784 7.15885 11.982C7.1568 11.9855 7.15513 11.9879 7.15431 11.9889C7.15263 11.9911 7.15549 11.9868 7.16735 11.9774L6.36775 10.9629C6.19578 11.0985 6.04991 11.2749 5.96277 11.4966L7.16494 11.9692ZM7.16619 11.9783C7.15579 11.9865 7.14221 11.9939 7.12826 11.9985C7.11503 12.0028 7.10964 12.0019 7.11674 12.0019V10.7102C6.85196 10.7102 6.5913 10.7876 6.36891 10.962L7.16619 11.9783ZM7.11674 12.0019H9.72111V10.7102H7.11674V12.0019ZM10.3351 11.5565L11.179 8.97215L9.95104 8.57119L9.10716 11.1555L10.3351 11.5565ZM11.1676 9.00427C11.1713 8.9947 11.1722 8.99571 11.1672 9.00212C11.1649 9.00514 11.1618 9.00863 11.1579 9.01217C11.1541 9.0157 11.1504 9.01857 11.1471 9.02072L10.435 7.94304C10.2098 8.09197 10.0542 8.30153 9.96247 8.53907L11.1676 9.00427ZM11.1471 9.02072C11.1501 9.01873 11.1469 9.02129 11.1389 9.02377C11.1306 9.02633 11.1228 9.02718 11.1179 9.02718V7.73547C10.8689 7.73547 10.637 7.80962 10.435 7.94304L11.1471 9.02072ZM11.1179 9.02718C11.113 9.02718 11.1053 9.02633 11.097 9.02377C11.0889 9.02129 11.0861 9.01898 11.0891 9.02097L11.8013 7.94329C11.5992 7.80987 11.3669 7.73547 11.1179 7.73547V9.02718ZM11.0891 9.02097C11.0859 9.01882 11.0817 9.0157 11.0779 9.01217C11.0741 9.00863 11.071 9.00514 11.0686 9.00212C11.0636 8.99571 11.0646 8.9947 11.0683 9.00427L12.2733 8.53907C12.1816 8.30153 12.0264 8.09222 11.8013 7.94329L11.0891 9.02097ZM11.0569 8.97215L11.9007 11.5565L13.1286 11.1555L12.2848 8.57119L11.0569 8.97215ZM12.5147 12.0019H15.1191V10.7102H12.5147V12.0019ZM15.1191 12.0019C15.1262 12.0019 15.1208 12.0028 15.1075 11.9985C15.0936 11.9939 15.08 11.9865 15.0696 11.9783L15.8669 10.962C15.6445 10.7876 15.3838 10.7102 15.1191 10.7102V12.0019ZM15.0684 11.9774C15.0803 11.9868 15.0832 11.9911 15.0815 11.9889C15.0807 11.9879 15.079 11.9855 15.0769 11.982C15.0749 11.9784 15.0728 11.974 15.0709 11.9692L16.273 11.4966C16.1859 11.2749 16.04 11.0985 15.8681 10.9629L15.0684 11.9774ZM15.0709 11.9692C15.0638 11.9513 15.0602 11.9328 15.0595 11.9168C15.0588 11.9015 15.061 11.895 15.0598 11.8996L16.3131 12.2123C16.3702 11.9834 16.3674 11.7367 16.273 11.4966L15.0709 11.9692ZM15.0598 11.8996C15.0667 11.8723 15.0802 11.8436 15.0989 11.8194C15.1166 11.7964 15.1309 11.7879 15.1292 11.7889L15.8073 12.8883C16.0459 12.7412 16.2375 12.5154 16.3131 12.2123L15.0598 11.8996ZM15.1136 11.7989L13.0039 13.1853L13.7133 14.2647L15.8229 12.8784L15.1136 11.7989ZM12.7458 13.9291L13.5751 16.4192L14.8007 16.011L13.9713 13.5209L12.7458 13.9291ZM13.5854 16.4477C13.584 16.4442 13.576 16.4214 13.5768 16.3839C13.5776 16.3447 13.5876 16.3078 13.6018 16.2792L14.76 16.851C14.9033 16.5608 14.8952 16.254 14.7904 15.9825L13.5854 16.4477ZM13.6026 16.2775C13.5995 16.2837 13.5983 16.2844 13.6002 16.2823C13.6009 16.2814 13.6018 16.2805 13.6028 16.2797C13.6037 16.2789 13.6042 16.2786 13.604 16.2787L14.3062 17.3629C14.5044 17.2346 14.6563 17.0596 14.7592 16.8526L13.6026 16.2775ZM13.604 16.2787C13.6053 16.2779 13.6069 16.277 13.6087 16.2762C13.6105 16.2753 13.6119 16.2748 13.6126 16.2746C13.6143 16.2741 13.6104 16.2756 13.5984 16.276L13.6425 17.567C13.8745 17.5591 14.102 17.4952 14.3062 17.3629L13.604 16.2787ZM13.5966 16.2761C13.6073 16.2757 13.6228 16.2772 13.6392 16.2826C13.6552 16.2878 13.6626 16.2935 13.6611 16.2924L12.8815 17.3223C13.0992 17.4871 13.36 17.5774 13.6443 17.5669L13.5966 16.2761ZM13.6439 16.2798L11.4905 14.7588L10.7453 15.8139L12.8986 17.3349L13.6439 16.2798Z" fill="#472500"/>
</g>
</g>
<defs>
<linearGradient id="paint0_linear_1210_3921" x1="5.58727" y1="1" x2="5.58727" y2="9.54054" gradientUnits="userSpaceOnUse">
<stop offset="0.399" stop-color="#F7FF59"/>
<stop offset="1" stop-color="#AD7900" stop-opacity="0.88"/>
</linearGradient>
<linearGradient id="paint1_linear_1210_3921" x1="16.6576" y1="1" x2="16.6576" y2="9.54054" gradientUnits="userSpaceOnUse">
<stop offset="0.399" stop-color="#F7FF59"/>
<stop offset="1" stop-color="#AD7900" stop-opacity="0.88"/>
</linearGradient>
<linearGradient id="paint2_linear_1210_3921" x1="11.1185" y1="8.38135" x2="11.1185" y2="16.9219" gradientUnits="userSpaceOnUse">
<stop offset="0.399" stop-color="#F7FF59"/>
<stop offset="1" stop-color="#AD7900" stop-opacity="0.88"/>
</linearGradient>
<clipPath id="clip0_1210_3921">
<rect width="22" height="18" fill="white"/>
</clipPath>
</defs>
</svg>
