<svg width="22" height="18" viewBox="0 0 22 18" fill="none" xmlns="http://www.w3.org/2000/svg">
<mask id="path-1-outside-1_1210_3895" maskUnits="userSpaceOnUse" x="0" y="0" width="11" height="11" fill="black">
<rect fill="white" width="11" height="11"/>
<path d="M5.58727 7.90502L3.43394 9.42601C3.32724 9.50677 3.21084 9.54482 3.08475 9.54015C2.95865 9.53585 2.8471 9.50229 2.75011 9.43947C2.65311 9.37666 2.57803 9.29141 2.52488 9.18373C2.47134 9.07605 2.46881 8.9594 2.51731 8.83377L3.34664 6.34365L1.23695 4.95726C1.12055 4.88548 1.04781 4.79126 1.01871 4.6746C0.989607 4.55795 0.994457 4.45027 1.03326 4.35156C1.07206 4.25285 1.13995 4.16527 1.23695 4.08882C1.33395 4.01273 1.45034 3.97468 1.58614 3.97468H4.19051L5.03439 1.39034C5.08289 1.26471 5.15816 1.16816 5.2602 1.10068C5.36185 1.03356 5.47088 1 5.58727 1C5.70367 1 5.8127 1.03356 5.91435 1.10068C6.01639 1.16816 6.09166 1.26471 6.14016 1.39034L6.98403 3.97468H9.58841C9.7242 3.97468 9.8406 4.01273 9.9376 4.08882C10.0346 4.16527 10.1025 4.25285 10.1413 4.35156C10.1801 4.45027 10.1849 4.55795 10.1558 4.6746C10.1267 4.79126 10.054 4.88548 9.9376 4.95726L7.82791 6.34365L8.65723 8.83377C8.70573 8.9594 8.70341 9.07605 8.65025 9.18373C8.59671 9.29141 8.52144 9.37666 8.42444 9.43947C8.32744 9.50229 8.2159 9.53585 8.0898 9.54015C7.9637 9.54482 7.84731 9.50677 7.74061 9.42601L5.58727 7.90502Z"/>
</mask>
<path d="M5.58727 7.90502L3.43394 9.42601C3.32724 9.50677 3.21084 9.54482 3.08475 9.54015C2.95865 9.53585 2.8471 9.50229 2.75011 9.43947C2.65311 9.37666 2.57803 9.29141 2.52488 9.18373C2.47134 9.07605 2.46881 8.9594 2.51731 8.83377L3.34664 6.34365L1.23695 4.95726C1.12055 4.88548 1.04781 4.79126 1.01871 4.6746C0.989607 4.55795 0.994457 4.45027 1.03326 4.35156C1.07206 4.25285 1.13995 4.16527 1.23695 4.08882C1.33395 4.01273 1.45034 3.97468 1.58614 3.97468H4.19051L5.03439 1.39034C5.08289 1.26471 5.15816 1.16816 5.2602 1.10068C5.36185 1.03356 5.47088 1 5.58727 1C5.70367 1 5.8127 1.03356 5.91435 1.10068C6.01639 1.16816 6.09166 1.26471 6.14016 1.39034L6.98403 3.97468H9.58841C9.7242 3.97468 9.8406 4.01273 9.9376 4.08882C10.0346 4.16527 10.1025 4.25285 10.1413 4.35156C10.1801 4.45027 10.1849 4.55795 10.1558 4.6746C10.1267 4.79126 10.054 4.88548 9.9376 4.95726L7.82791 6.34365L8.65723 8.83377C8.70573 8.9594 8.70341 9.07605 8.65025 9.18373C8.59671 9.29141 8.52144 9.37666 8.42444 9.43947C8.32744 9.50229 8.2159 9.53585 8.0898 9.54015C7.9637 9.54482 7.84731 9.50677 7.74061 9.42601L5.58727 7.90502Z" fill="url(#paint0_linear_1210_3895)"/>
<path d="M5.58727 7.90502L5.95989 7.37749L5.58727 7.1143L5.21466 7.37749L5.58727 7.90502ZM3.43394 9.42601L3.06132 8.89848L3.05263 8.90462L3.04415 8.91104L3.43394 9.42601ZM3.08475 9.54015L3.10863 8.89474L3.10679 8.89467L3.08475 9.54015ZM2.52488 9.18373L3.10402 8.89785L3.10319 8.89618L2.52488 9.18373ZM2.51731 8.83377L3.11983 9.06637L3.12529 9.05223L3.13008 9.03785L2.51731 8.83377ZM3.34664 6.34365L3.9594 6.54773L4.11631 6.07661L3.70133 5.80391L3.34664 6.34365ZM1.23695 4.95726L1.59164 4.41752L1.58389 4.41242L1.57598 4.40755L1.23695 4.95726ZM1.23695 4.08882L0.838307 3.58067L0.837147 3.58159L1.23695 4.08882ZM4.19051 3.97468V4.62054H4.65904L4.80447 4.17516L4.19051 3.97468ZM5.03439 1.39034L4.43187 1.15774L4.42573 1.17365L4.42044 1.18987L5.03439 1.39034ZM5.2602 1.10068L4.90432 0.561717L4.90395 0.561966L5.2602 1.10068ZM5.91435 1.10068L6.2706 0.561966L6.27022 0.561717L5.91435 1.10068ZM6.14016 1.39034L6.75411 1.18987L6.74882 1.17365L6.74267 1.15774L6.14016 1.39034ZM6.98403 3.97468L6.37008 4.17516L6.51551 4.62054H6.98403V3.97468ZM9.9376 4.08882L10.3374 3.58158L10.3362 3.58067L9.9376 4.08882ZM9.9376 4.95726L9.59856 4.40755L9.59066 4.41242L9.5829 4.41752L9.9376 4.95726ZM7.82791 6.34365L7.47322 5.80391L7.05824 6.07661L7.21514 6.54773L7.82791 6.34365ZM8.65723 8.83377L8.04447 9.03785L8.04926 9.05223L8.05472 9.06637L8.65723 8.83377ZM8.65025 9.18373L9.22856 9.47129L9.22939 9.46961L8.65025 9.18373ZM8.0898 9.54015L8.06775 8.89467L8.06592 8.89474L8.0898 9.54015ZM7.74061 9.42601L8.1304 8.91104L8.12192 8.90462L8.11323 8.89848L7.74061 9.42601ZM5.21466 7.37749L3.06132 8.89848L3.80655 9.95354L5.95989 8.43255L5.21466 7.37749ZM3.04415 8.91104C3.04263 8.91219 3.05003 8.90643 3.06595 8.90123C3.08236 8.89586 3.09791 8.89434 3.10863 8.89474L3.06086 10.1856C3.34518 10.1961 3.60604 10.1058 3.82373 9.94098L3.04415 8.91104ZM3.10679 8.89467C3.09477 8.89426 3.09086 8.89276 3.09259 8.89328C3.0933 8.8935 3.09471 8.89398 3.09652 8.89482C3.09834 8.89566 3.09994 8.89657 3.10117 8.89736L2.39904 9.98158C2.60324 10.1138 2.83068 10.1777 3.0627 10.1856L3.10679 8.89467ZM3.10117 8.89736C3.10103 8.89727 3.10165 8.89767 3.10272 8.89859C3.1038 8.89951 3.10485 8.90056 3.10574 8.90157C3.10783 8.90395 3.10688 8.90366 3.10402 8.89785L1.94574 9.46961C2.04832 9.67742 2.20039 9.85294 2.39904 9.98158L3.10117 8.89736ZM3.10319 8.89618C3.11741 8.92478 3.12768 8.96185 3.12854 9.00152C3.12935 9.03937 3.12129 9.06259 3.11983 9.06637L1.9148 8.60117C1.80969 8.87343 1.80219 9.18092 1.94657 9.47129L3.10319 8.89618ZM3.13008 9.03785L3.9594 6.54773L2.73387 6.13957L1.90455 8.62969L3.13008 9.03785ZM3.70133 5.80391L1.59164 4.41752L0.882256 5.49701L2.99194 6.8834L3.70133 5.80391ZM1.57598 4.40755C1.57432 4.40652 1.58858 4.41509 1.6063 4.43805C1.62503 4.4623 1.63853 4.49092 1.64536 4.51829L0.392053 4.83092C0.46768 5.1341 0.659346 5.35984 0.897916 5.50698L1.57598 4.40755ZM1.64536 4.51829C1.6442 4.51363 1.64641 4.52016 1.64572 4.53541C1.645 4.55142 1.64138 4.56992 1.63434 4.58783L0.432168 4.11529C0.337814 4.35534 0.334959 4.60204 0.392053 4.83092L1.64536 4.51829ZM1.63434 4.58783C1.63243 4.5927 1.63031 4.59701 1.62825 4.60061C1.6262 4.60419 1.62453 4.60651 1.62371 4.60756C1.62203 4.60973 1.62489 4.60541 1.63675 4.59606L0.837147 3.58159C0.665181 3.71713 0.519314 3.89359 0.432168 4.11529L1.63434 4.58783ZM1.63559 4.59697C1.62519 4.60513 1.61161 4.61255 1.59766 4.61711C1.58443 4.62143 1.57904 4.62054 1.58614 4.62054V3.32882C1.32136 3.32882 1.0607 3.4062 0.838308 3.58067L1.63559 4.59697ZM1.58614 4.62054H4.19051V3.32882H1.58614V4.62054ZM4.80447 4.17516L5.64834 1.59082L4.42044 1.18987L3.57656 3.7742L4.80447 4.17516ZM5.63691 1.62294C5.6406 1.61338 5.64158 1.61439 5.63658 1.62079C5.63422 1.62382 5.6311 1.6273 5.62728 1.63084C5.62346 1.63437 5.61971 1.63724 5.61645 1.6394L4.90395 0.561966C4.67875 0.710889 4.52357 0.920203 4.43187 1.15774L5.63691 1.62294ZM5.61607 1.63965C5.61909 1.63765 5.61629 1.63996 5.60822 1.64244C5.59992 1.645 5.59216 1.64586 5.58727 1.64586V0.354144C5.33827 0.354144 5.10639 0.428296 4.90432 0.561717L5.61607 1.63965ZM5.58727 1.64586C5.58239 1.64586 5.57463 1.645 5.56633 1.64244C5.55826 1.63996 5.55545 1.63765 5.55847 1.63965L6.27022 0.561717C6.06816 0.428296 5.83628 0.354144 5.58727 0.354144V1.64586ZM5.5581 1.6394C5.55483 1.63724 5.55109 1.63437 5.54727 1.63084C5.54345 1.6273 5.54032 1.62382 5.53796 1.62079C5.53297 1.61439 5.53395 1.61338 5.53764 1.62294L6.74267 1.15774C6.65097 0.920203 6.4958 0.710889 6.2706 0.561966L5.5581 1.6394ZM5.5262 1.59082L6.37008 4.17516L7.59799 3.7742L6.75411 1.18987L5.5262 1.59082ZM6.98403 4.62054H9.58841V3.32882H6.98403V4.62054ZM9.58841 4.62054C9.59551 4.62054 9.59011 4.62143 9.57689 4.61711C9.56293 4.61255 9.54936 4.60513 9.53896 4.59697L10.3362 3.58067C10.1138 3.4062 9.85319 3.32882 9.58841 3.32882V4.62054ZM9.53779 4.59606C9.54966 4.60541 9.55252 4.60973 9.55084 4.60756C9.55002 4.60651 9.54835 4.60419 9.5463 4.60061C9.54423 4.59701 9.54212 4.5927 9.5402 4.58783L10.7424 4.11529C10.6552 3.89358 10.5094 3.71713 10.3374 3.58159L9.53779 4.59606ZM9.5402 4.58783C9.53317 4.56992 9.52955 4.55142 9.52883 4.53541C9.52814 4.52016 9.53035 4.51363 9.52919 4.51829L10.7825 4.83092C10.8396 4.60204 10.8367 4.35534 10.7424 4.11529L9.5402 4.58783ZM9.52919 4.51829C9.53601 4.49092 9.54952 4.4623 9.56825 4.43805C9.58597 4.41509 9.60023 4.40652 9.59856 4.40755L10.2766 5.50698C10.5152 5.35984 10.7069 5.1341 10.7825 4.83092L9.52919 4.51829ZM9.5829 4.41752L7.47322 5.80391L8.1826 6.8834L10.2923 5.49701L9.5829 4.41752ZM7.21514 6.54773L8.04447 9.03785L9.27 8.62969L8.44067 6.13957L7.21514 6.54773ZM8.05472 9.06637C8.05337 9.06287 8.04539 9.04003 8.04614 9.0026C8.04692 8.96333 8.05699 8.92646 8.07111 8.89785L9.22939 9.46961C9.37264 9.17941 9.36455 8.87263 9.25975 8.60117L8.05472 9.06637ZM8.07194 8.89618C8.06887 8.90236 8.06768 8.90301 8.0695 8.90095C8.07026 8.90009 8.07118 8.89917 8.07214 8.89835C8.07308 8.89754 8.0736 8.89722 8.07338 8.89736L8.7755 9.98158C8.97375 9.8532 9.12565 9.67825 9.22856 9.47129L8.07194 8.89618ZM8.07338 8.89736C8.07461 8.89657 8.07621 8.89566 8.07803 8.89482C8.07984 8.89398 8.08125 8.8935 8.08196 8.89328C8.08369 8.89276 8.07977 8.89426 8.06775 8.89467L8.11185 10.1856C8.34386 10.1777 8.57131 10.1138 8.7755 9.98158L8.07338 8.89736ZM8.06592 8.89474C8.07664 8.89434 8.09219 8.89586 8.1086 8.90123C8.12452 8.90643 8.13191 8.91219 8.1304 8.91104L7.35082 9.94098C7.56851 10.1058 7.82936 10.1961 8.11368 10.1856L8.06592 8.89474ZM8.11323 8.89848L5.95989 7.37749L5.21466 8.43255L7.368 9.95354L8.11323 8.89848Z" fill="#472500" mask="url(#path-1-outside-1_1210_3895)"/>
<mask id="path-3-outside-2_1210_3895" maskUnits="userSpaceOnUse" x="11.0703" y="0" width="11" height="11" fill="black">
<rect fill="white" x="11.0703" width="11" height="11"/>
<path d="M16.6576 7.90502L14.5042 9.42601C14.3976 9.50677 14.2812 9.54482 14.1551 9.54015C14.029 9.53585 13.9174 9.50229 13.8204 9.43947C13.7234 9.37666 13.6483 9.29141 13.5952 9.18373C13.5416 9.07605 13.5391 8.9594 13.5876 8.83377L14.417 6.34365L12.3073 4.95726C12.1909 4.88548 12.1181 4.79126 12.089 4.6746C12.0599 4.55795 12.0648 4.45027 12.1036 4.35156C12.1424 4.25285 12.2103 4.16527 12.3073 4.08882C12.4043 4.01273 12.5207 3.97468 12.6565 3.97468H15.2608L16.1047 1.39034C16.1532 1.26471 16.2285 1.16816 16.3305 1.10068C16.4322 1.03356 16.5412 1 16.6576 1C16.774 1 16.883 1.03356 16.9847 1.10068C17.0867 1.16816 17.162 1.26471 17.2105 1.39034L18.0543 3.97468H20.6587C20.7945 3.97468 20.9109 4.01273 21.0079 4.08882C21.1049 4.16527 21.1728 4.25285 21.2116 4.35156C21.2504 4.45027 21.2553 4.55795 21.2262 4.6746C21.1971 4.79126 21.1243 4.88548 21.0079 4.95726L18.8982 6.34365L19.7275 8.83377C19.776 8.9594 19.7737 9.07605 19.7206 9.18373C19.667 9.29141 19.5918 9.37666 19.4948 9.43947C19.3978 9.50229 19.2862 9.53585 19.1601 9.54015C19.034 9.54482 18.9176 9.50677 18.8109 9.42601L16.6576 7.90502Z"/>
</mask>
<path d="M16.6576 7.90502L14.5042 9.42601C14.3976 9.50677 14.2812 9.54482 14.1551 9.54015C14.029 9.53585 13.9174 9.50229 13.8204 9.43947C13.7234 9.37666 13.6483 9.29141 13.5952 9.18373C13.5416 9.07605 13.5391 8.9594 13.5876 8.83377L14.417 6.34365L12.3073 4.95726C12.1909 4.88548 12.1181 4.79126 12.089 4.6746C12.0599 4.55795 12.0648 4.45027 12.1036 4.35156C12.1424 4.25285 12.2103 4.16527 12.3073 4.08882C12.4043 4.01273 12.5207 3.97468 12.6565 3.97468H15.2608L16.1047 1.39034C16.1532 1.26471 16.2285 1.16816 16.3305 1.10068C16.4322 1.03356 16.5412 1 16.6576 1C16.774 1 16.883 1.03356 16.9847 1.10068C17.0867 1.16816 17.162 1.26471 17.2105 1.39034L18.0543 3.97468H20.6587C20.7945 3.97468 20.9109 4.01273 21.0079 4.08882C21.1049 4.16527 21.1728 4.25285 21.2116 4.35156C21.2504 4.45027 21.2553 4.55795 21.2262 4.6746C21.1971 4.79126 21.1243 4.88548 21.0079 4.95726L18.8982 6.34365L19.7275 8.83377C19.776 8.9594 19.7737 9.07605 19.7206 9.18373C19.667 9.29141 19.5918 9.37666 19.4948 9.43947C19.3978 9.50229 19.2862 9.53585 19.1601 9.54015C19.034 9.54482 18.9176 9.50677 18.8109 9.42601L16.6576 7.90502Z" fill="url(#paint1_linear_1210_3895)"/>
<path d="M16.6576 7.90502L17.0302 7.37749L16.6576 7.1143L16.285 7.37749L16.6576 7.90502ZM14.5042 9.42601L14.1316 8.89848L14.1229 8.90462L14.1145 8.91104L14.5042 9.42601ZM14.1551 9.54015L14.1789 8.89474L14.1771 8.89467L14.1551 9.54015ZM13.5952 9.18373L14.1743 8.89785L14.1735 8.89618L13.5952 9.18373ZM13.5876 8.83377L14.1901 9.06637L14.1956 9.05223L14.2004 9.03785L13.5876 8.83377ZM14.417 6.34365L15.0297 6.54773L15.1866 6.07661L14.7716 5.80391L14.417 6.34365ZM12.3073 4.95726L12.662 4.41752L12.6542 4.41242L12.6463 4.40755L12.3073 4.95726ZM12.3073 4.08882L11.9086 3.58067L11.9075 3.58159L12.3073 4.08882ZM15.2608 3.97468V4.62054H15.7293L15.8748 4.17516L15.2608 3.97468ZM16.1047 1.39034L15.5022 1.15774L15.496 1.17365L15.4907 1.18987L16.1047 1.39034ZM16.3305 1.10068L15.9746 0.561717L15.9743 0.561966L16.3305 1.10068ZM16.9847 1.10068L17.3409 0.561966L17.3405 0.561717L16.9847 1.10068ZM17.2105 1.39034L17.8244 1.18987L17.8191 1.17365L17.813 1.15774L17.2105 1.39034ZM18.0543 3.97468L17.4404 4.17516L17.5858 4.62054H18.0543V3.97468ZM21.0079 4.08882L21.4077 3.58158L21.4066 3.58067L21.0079 4.08882ZM21.0079 4.95726L20.6689 4.40755L20.661 4.41242L20.6532 4.41752L21.0079 4.95726ZM18.8982 6.34365L18.5435 5.80391L18.1286 6.07661L18.2855 6.54773L18.8982 6.34365ZM19.7275 8.83377L19.1148 9.03785L19.1196 9.05223L19.125 9.06637L19.7275 8.83377ZM19.7206 9.18373L20.2989 9.47129L20.2997 9.46961L19.7206 9.18373ZM19.1601 9.54015L19.1381 8.89467L19.1362 8.89474L19.1601 9.54015ZM18.8109 9.42601L19.2007 8.91104L19.1922 8.90462L19.1835 8.89848L18.8109 9.42601ZM16.285 7.37749L14.1316 8.89848L14.8769 9.95354L17.0302 8.43255L16.285 7.37749ZM14.1145 8.91104C14.1129 8.91219 14.1203 8.90643 14.1363 8.90123C14.1527 8.89586 14.1682 8.89434 14.1789 8.89474L14.1312 10.1856C14.4155 10.1961 14.6764 10.1058 14.894 9.94098L14.1145 8.91104ZM14.1771 8.89467C14.1651 8.89426 14.1612 8.89276 14.1629 8.89328C14.1636 8.8935 14.165 8.89398 14.1668 8.89482C14.1686 8.89566 14.1703 8.89657 14.1715 8.89736L13.4694 9.98158C13.6735 10.1138 13.901 10.1777 14.133 10.1856L14.1771 8.89467ZM14.1715 8.89736C14.1713 8.89727 14.172 8.89767 14.173 8.89859C14.1741 8.89951 14.1752 8.90056 14.1761 8.90157C14.1781 8.90395 14.1772 8.90366 14.1743 8.89785L13.0161 9.46961C13.1186 9.67742 13.2707 9.85294 13.4694 9.98158L14.1715 8.89736ZM14.1735 8.89618C14.1877 8.92478 14.198 8.96185 14.1988 9.00152C14.1997 9.03937 14.1916 9.06259 14.1901 9.06637L12.9851 8.60117C12.88 8.87343 12.8725 9.18092 13.0169 9.47129L14.1735 8.89618ZM14.2004 9.03785L15.0297 6.54773L13.8042 6.13957L12.9749 8.62969L14.2004 9.03785ZM14.7716 5.80391L12.662 4.41752L11.9526 5.49701L14.0623 6.8834L14.7716 5.80391ZM12.6463 4.40755C12.6446 4.40652 12.6589 4.41509 12.6766 4.43805C12.6953 4.4623 12.7088 4.49092 12.7157 4.51829L11.4624 4.83092C11.538 5.1341 11.7297 5.35984 11.9682 5.50698L12.6463 4.40755ZM12.7157 4.51829C12.7145 4.51363 12.7167 4.52016 12.716 4.53541C12.7153 4.55142 12.7117 4.56992 12.7047 4.58783L11.5025 4.11529C11.4081 4.35534 11.4053 4.60204 11.4624 4.83092L12.7157 4.51829ZM12.7047 4.58783C12.7027 4.5927 12.7006 4.59701 12.6986 4.60061C12.6965 4.60419 12.6948 4.60651 12.694 4.60756C12.6923 4.60973 12.6952 4.60541 12.7071 4.59606L11.9075 3.58159C11.7355 3.71713 11.5896 3.89359 11.5025 4.11529L12.7047 4.58783ZM12.7059 4.59697C12.6955 4.60513 12.6819 4.61255 12.668 4.61711C12.6547 4.62143 12.6494 4.62054 12.6565 4.62054V3.32882C12.3917 3.32882 12.131 3.4062 11.9086 3.58067L12.7059 4.59697ZM12.6565 4.62054H15.2608V3.32882H12.6565V4.62054ZM15.8748 4.17516L16.7187 1.59082L15.4907 1.18987L14.6469 3.7742L15.8748 4.17516ZM16.7072 1.62294C16.7109 1.61338 16.7119 1.61439 16.7069 1.62079C16.7045 1.62382 16.7014 1.6273 16.6976 1.63084C16.6938 1.63437 16.69 1.63724 16.6868 1.6394L15.9743 0.561966C15.7491 0.710889 15.5939 0.920203 15.5022 1.15774L16.7072 1.62294ZM16.6864 1.63965C16.6894 1.63765 16.6866 1.63996 16.6785 1.64244C16.6702 1.645 16.6625 1.64586 16.6576 1.64586V0.354144C16.4086 0.354144 16.1767 0.428296 15.9746 0.561717L16.6864 1.63965ZM16.6576 1.64586C16.6527 1.64586 16.6449 1.645 16.6366 1.64244C16.6286 1.63996 16.6258 1.63765 16.6288 1.63965L17.3405 0.561717C17.1385 0.428296 16.9066 0.354144 16.6576 0.354144V1.64586ZM16.6284 1.6394C16.6251 1.63724 16.6214 1.63437 16.6176 1.63084C16.6138 1.6273 16.6106 1.62382 16.6083 1.62079C16.6033 1.61439 16.6043 1.61338 16.608 1.62294L17.813 1.15774C17.7213 0.920203 17.5661 0.710889 17.3409 0.561966L16.6284 1.6394ZM16.5965 1.59082L17.4404 4.17516L18.6683 3.7742L17.8244 1.18987L16.5965 1.59082ZM18.0543 4.62054H20.6587V3.32882H18.0543V4.62054ZM20.6587 4.62054C20.6658 4.62054 20.6604 4.62143 20.6472 4.61711C20.6332 4.61255 20.6197 4.60513 20.6093 4.59697L21.4066 3.58067C21.1842 3.4062 20.9235 3.32882 20.6587 3.32882V4.62054ZM20.6081 4.59606C20.62 4.60541 20.6228 4.60973 20.6212 4.60756C20.6203 4.60651 20.6187 4.60419 20.6166 4.60061C20.6145 4.59701 20.6124 4.5927 20.6105 4.58783L21.8127 4.11529C21.7255 3.89358 21.5797 3.71713 21.4077 3.58159L20.6081 4.59606ZM20.6105 4.58783C20.6035 4.56992 20.5999 4.55142 20.5991 4.53541C20.5985 4.52016 20.6007 4.51363 20.5995 4.51829L21.8528 4.83092C21.9099 4.60204 21.907 4.35534 21.8127 4.11529L20.6105 4.58783ZM20.5995 4.51829C20.6063 4.49092 20.6198 4.4623 20.6386 4.43805C20.6563 4.41509 20.6705 4.40652 20.6689 4.40755L21.3469 5.50698C21.5855 5.35984 21.7772 5.1341 21.8528 4.83092L20.5995 4.51829ZM20.6532 4.41752L18.5435 5.80391L19.2529 6.8834L21.3626 5.49701L20.6532 4.41752ZM18.2855 6.54773L19.1148 9.03785L20.3403 8.62969L19.511 6.13957L18.2855 6.54773ZM19.125 9.06637C19.1237 9.06287 19.1157 9.04003 19.1164 9.0026C19.1172 8.96333 19.1273 8.92646 19.1414 8.89785L20.2997 9.46961C20.443 9.17941 20.4349 8.87263 20.3301 8.60117L19.125 9.06637ZM19.1423 8.89618C19.1392 8.90236 19.138 8.90301 19.1398 8.90095C19.1406 8.90009 19.1415 8.89917 19.1424 8.89835C19.1434 8.89754 19.1439 8.89722 19.1437 8.89736L19.8458 9.98158C20.0441 9.8532 20.196 9.67825 20.2989 9.47129L19.1423 8.89618ZM19.1437 8.89736C19.1449 8.89657 19.1465 8.89566 19.1483 8.89482C19.1502 8.89398 19.1516 8.8935 19.1523 8.89328C19.154 8.89276 19.1501 8.89426 19.1381 8.89467L19.1822 10.1856C19.4142 10.1777 19.6416 10.1138 19.8458 9.98158L19.1437 8.89736ZM19.1362 8.89474C19.147 8.89434 19.1625 8.89586 19.1789 8.90123C19.1948 8.90643 19.2022 8.91219 19.2007 8.91104L18.4211 9.94098C18.6388 10.1058 18.8997 10.1961 19.184 10.1856L19.1362 8.89474ZM19.1835 8.89848L17.0302 7.37749L16.285 8.43255L18.4383 9.95354L19.1835 8.89848Z" fill="#472500" mask="url(#path-3-outside-2_1210_3895)"/>
<mask id="path-5-outside-3_1210_3895" maskUnits="userSpaceOnUse" x="5.53125" y="7.38135" width="11" height="11" fill="black">
<rect fill="white" x="5.53125" y="7.38135" width="11" height="11"/>
<path d="M11.1185 15.2864L8.96519 16.8074C8.85849 16.8881 8.74209 16.9262 8.616 16.9215C8.4899 16.9172 8.37835 16.8836 8.28136 16.8208C8.18436 16.758 8.10928 16.6728 8.05613 16.5651C8.00259 16.4574 8.00006 16.3407 8.04856 16.2151L8.87789 13.725L6.7682 12.3386C6.6518 12.2668 6.57906 12.1726 6.54996 12.056C6.52086 11.9393 6.52571 11.8316 6.56451 11.7329C6.60331 11.6342 6.6712 11.5466 6.7682 11.4702C6.8652 11.3941 6.98159 11.356 7.11739 11.356H9.72176L10.5656 8.77169C10.6141 8.64606 10.6894 8.54951 10.7914 8.48203C10.8931 8.41491 11.0021 8.38135 11.1185 8.38135C11.2349 8.38135 11.3439 8.41491 11.4456 8.48203C11.5476 8.54951 11.6229 8.64606 11.6714 8.77169L12.5153 11.356H15.1197C15.2555 11.356 15.3719 11.3941 15.4688 11.4702C15.5658 11.5466 15.6337 11.6342 15.6725 11.7329C15.7113 11.8316 15.7162 11.9393 15.6871 12.056C15.658 12.1726 15.5852 12.2668 15.4688 12.3386L13.3592 13.725L14.1885 16.2151C14.237 16.3407 14.2347 16.4574 14.1815 16.5651C14.128 16.6728 14.0527 16.758 13.9557 16.8208C13.8587 16.8836 13.7471 16.9172 13.6211 16.9215C13.495 16.9262 13.3786 16.8881 13.2719 16.8074L11.1185 15.2864Z"/>
</mask>
<path d="M11.1185 15.2864L8.96519 16.8074C8.85849 16.8881 8.74209 16.9262 8.616 16.9215C8.4899 16.9172 8.37835 16.8836 8.28136 16.8208C8.18436 16.758 8.10928 16.6728 8.05613 16.5651C8.00259 16.4574 8.00006 16.3407 8.04856 16.2151L8.87789 13.725L6.7682 12.3386C6.6518 12.2668 6.57906 12.1726 6.54996 12.056C6.52086 11.9393 6.52571 11.8316 6.56451 11.7329C6.60331 11.6342 6.6712 11.5466 6.7682 11.4702C6.8652 11.3941 6.98159 11.356 7.11739 11.356H9.72176L10.5656 8.77169C10.6141 8.64606 10.6894 8.54951 10.7914 8.48203C10.8931 8.41491 11.0021 8.38135 11.1185 8.38135C11.2349 8.38135 11.3439 8.41491 11.4456 8.48203C11.5476 8.54951 11.6229 8.64606 11.6714 8.77169L12.5153 11.356H15.1197C15.2555 11.356 15.3719 11.3941 15.4688 11.4702C15.5658 11.5466 15.6337 11.6342 15.6725 11.7329C15.7113 11.8316 15.7162 11.9393 15.6871 12.056C15.658 12.1726 15.5852 12.2668 15.4688 12.3386L13.3592 13.725L14.1885 16.2151C14.237 16.3407 14.2347 16.4574 14.1815 16.5651C14.128 16.6728 14.0527 16.758 13.9557 16.8208C13.8587 16.8836 13.7471 16.9172 13.6211 16.9215C13.495 16.9262 13.3786 16.8881 13.2719 16.8074L11.1185 15.2864Z" fill="url(#paint2_linear_1210_3895)"/>
<path d="M11.1185 15.2864L11.4911 14.7588L11.1185 14.4956L10.7459 14.7588L11.1185 15.2864ZM8.96519 16.8074L8.59257 16.2798L8.58388 16.286L8.5754 16.2924L8.96519 16.8074ZM8.616 16.9215L8.63988 16.2761L8.63804 16.276L8.616 16.9215ZM8.05613 16.5651L8.63527 16.2792L8.63444 16.2775L8.05613 16.5651ZM8.04856 16.2151L8.65108 16.4477L8.65654 16.4336L8.66133 16.4192L8.04856 16.2151ZM8.87789 13.725L9.49065 13.9291L9.64756 13.458L9.23258 13.1853L8.87789 13.725ZM6.7682 12.3386L7.12289 11.7989L7.11514 11.7938L7.10723 11.7889L6.7682 12.3386ZM6.7682 11.4702L6.36956 10.962L6.3684 10.9629L6.7682 11.4702ZM9.72176 11.356V12.0019H10.1903L10.3357 11.5565L9.72176 11.356ZM10.5656 8.77169L9.96312 8.53909L9.95698 8.555L9.95169 8.57121L10.5656 8.77169ZM10.7914 8.48203L10.4356 7.94306L10.4352 7.94331L10.7914 8.48203ZM11.4456 8.48203L11.8019 7.94331L11.8015 7.94306L11.4456 8.48203ZM11.6714 8.77169L12.2854 8.57121L12.2801 8.555L12.2739 8.53909L11.6714 8.77169ZM12.5153 11.356L11.9013 11.5565L12.0468 12.0019H12.5153V11.356ZM15.4688 11.4702L15.8687 10.9629L15.8675 10.962L15.4688 11.4702ZM15.4688 12.3386L15.1298 11.7889L15.1219 11.7938L15.1142 11.7989L15.4688 12.3386ZM13.3592 13.725L13.0045 13.1853L12.5895 13.458L12.7464 13.9291L13.3592 13.725ZM14.1885 16.2151L13.5757 16.4192L13.5805 16.4336L13.586 16.4477L14.1885 16.2151ZM14.1815 16.5651L14.7598 16.8526L14.7606 16.851L14.1815 16.5651ZM13.6211 16.9215L13.599 16.276L13.5972 16.2761L13.6211 16.9215ZM13.2719 16.8074L13.6617 16.2924L13.6532 16.286L13.6445 16.2798L13.2719 16.8074ZM10.7459 14.7588L8.59257 16.2798L9.3378 17.3349L11.4911 15.8139L10.7459 14.7588ZM8.5754 16.2924C8.57388 16.2935 8.58128 16.2878 8.5972 16.2826C8.61361 16.2772 8.62916 16.2757 8.63988 16.2761L8.59211 17.5669C8.87643 17.5774 9.13729 17.4871 9.35498 17.3223L8.5754 16.2924ZM8.63804 16.276C8.62602 16.2756 8.62211 16.2741 8.62384 16.2746C8.62455 16.2748 8.62596 16.2753 8.62777 16.2762C8.62959 16.277 8.63119 16.2779 8.63242 16.2787L7.93029 17.3629C8.13449 17.4952 8.36193 17.5591 8.59395 17.567L8.63804 16.276ZM8.63242 16.2787C8.63228 16.2786 8.6329 16.279 8.63397 16.2799C8.63505 16.2809 8.6361 16.2819 8.63699 16.2829C8.63908 16.2853 8.63813 16.285 8.63527 16.2792L7.47699 16.851C7.57957 17.0588 7.73164 17.2343 7.93029 17.3629L8.63242 16.2787ZM8.63444 16.2775C8.64866 16.3061 8.65893 16.3432 8.65979 16.3829C8.6606 16.4207 8.65254 16.4439 8.65108 16.4477L7.44605 15.9825C7.34094 16.2548 7.33344 16.5623 7.47782 16.8526L8.63444 16.2775ZM8.66133 16.4192L9.49065 13.9291L8.26512 13.5209L7.4358 16.011L8.66133 16.4192ZM9.23258 13.1853L7.12289 11.7989L6.41351 12.8784L8.52319 14.2647L9.23258 13.1853ZM7.10723 11.7889C7.10557 11.7879 7.11983 11.7964 7.13755 11.8194C7.15628 11.8436 7.16978 11.8723 7.17661 11.8996L5.9233 12.2123C5.99893 12.5154 6.1906 12.7412 6.42917 12.8883L7.10723 11.7889ZM7.17661 11.8996C7.17545 11.895 7.17766 11.9015 7.17697 11.9168C7.17625 11.9328 7.17263 11.9513 7.16559 11.9692L5.96342 11.4966C5.86906 11.7367 5.86621 11.9834 5.9233 12.2123L7.17661 11.8996ZM7.16559 11.9692C7.16368 11.974 7.16156 11.9784 7.1595 11.982C7.15745 11.9855 7.15578 11.9879 7.15496 11.9889C7.15328 11.9911 7.15614 11.9868 7.168 11.9774L6.3684 10.9629C6.19643 11.0985 6.05056 11.2749 5.96342 11.4966L7.16559 11.9692ZM7.16684 11.9783C7.15644 11.9865 7.14286 11.9939 7.12891 11.9985C7.11568 12.0028 7.11029 12.0019 7.11739 12.0019V10.7102C6.85261 10.7102 6.59195 10.7876 6.36956 10.962L7.16684 11.9783ZM7.11739 12.0019H9.72176V10.7102H7.11739V12.0019ZM10.3357 11.5565L11.1796 8.97217L9.95169 8.57121L9.10781 11.1555L10.3357 11.5565ZM11.1682 9.00429C11.1719 8.99472 11.1728 8.99573 11.1678 9.00214C11.1655 9.00516 11.1624 9.00865 11.1585 9.01219C11.1547 9.01572 11.151 9.01859 11.1477 9.02074L10.4352 7.94331C10.21 8.09224 10.0548 8.30155 9.96312 8.53909L11.1682 9.00429ZM11.1473 9.02099C11.1503 9.019 11.1475 9.02131 11.1395 9.02379C11.1312 9.02635 11.1234 9.0272 11.1185 9.0272V7.73549C10.8695 7.73549 10.6376 7.80964 10.4356 7.94306L11.1473 9.02099ZM11.1185 9.0272C11.1136 9.0272 11.1059 9.02635 11.0976 9.02379C11.0895 9.02131 11.0867 9.019 11.0897 9.02099L11.8015 7.94306C11.5994 7.80964 11.3675 7.73549 11.1185 7.73549V9.0272ZM11.0893 9.02074C11.0861 9.01859 11.0823 9.01572 11.0785 9.01219C11.0747 9.00865 11.0716 9.00516 11.0692 9.00214C11.0642 8.99573 11.0652 8.99472 11.0689 9.00429L12.2739 8.53909C12.1822 8.30155 12.027 8.09224 11.8019 7.94331L11.0893 9.02074ZM11.0575 8.97217L11.9013 11.5565L13.1292 11.1555L12.2854 8.57121L11.0575 8.97217ZM12.5153 12.0019H15.1197V10.7102H12.5153V12.0019ZM15.1197 12.0019C15.1268 12.0019 15.1214 12.0028 15.1081 11.9985C15.0942 11.9939 15.0806 11.9865 15.0702 11.9783L15.8675 10.962C15.6451 10.7876 15.3844 10.7102 15.1197 10.7102V12.0019ZM15.069 11.9774C15.0809 11.9868 15.0838 11.9911 15.0821 11.9889C15.0813 11.9879 15.0796 11.9855 15.0775 11.982C15.0755 11.9784 15.0734 11.974 15.0715 11.9692L16.2736 11.4966C16.1865 11.2749 16.0406 11.0985 15.8687 10.9629L15.069 11.9774ZM15.0715 11.9692C15.0644 11.9513 15.0608 11.9328 15.0601 11.9168C15.0594 11.9015 15.0616 11.895 15.0604 11.8996L16.3137 12.2123C16.3708 11.9834 16.368 11.7367 16.2736 11.4966L15.0715 11.9692ZM15.0604 11.8996C15.0673 11.8723 15.0808 11.8436 15.0995 11.8194C15.1172 11.7964 15.1315 11.7879 15.1298 11.7889L15.8079 12.8883C16.0465 12.7412 16.2381 12.5154 16.3137 12.2123L15.0604 11.8996ZM15.1142 11.7989L13.0045 13.1853L13.7139 14.2647L15.8235 12.8784L15.1142 11.7989ZM12.7464 13.9291L13.5757 16.4192L14.8013 16.011L13.9719 13.5209L12.7464 13.9291ZM13.586 16.4477C13.5846 16.4442 13.5766 16.4214 13.5774 16.3839C13.5782 16.3447 13.5882 16.3078 13.6024 16.2792L14.7606 16.851C14.9039 16.5608 14.8958 16.254 14.791 15.9825L13.586 16.4477ZM13.6032 16.2775C13.6001 16.2837 13.5989 16.2844 13.6008 16.2823C13.6015 16.2814 13.6024 16.2805 13.6034 16.2797C13.6043 16.2789 13.6048 16.2786 13.6046 16.2787L14.3068 17.3629C14.505 17.2346 14.6569 17.0596 14.7598 16.8526L13.6032 16.2775ZM13.6046 16.2787C13.6059 16.2779 13.6075 16.277 13.6093 16.2762C13.6111 16.2753 13.6125 16.2748 13.6132 16.2746C13.6149 16.2741 13.611 16.2756 13.599 16.276L13.6431 17.567C13.8751 17.5591 14.1026 17.4952 14.3068 17.3629L13.6046 16.2787ZM13.5972 16.2761C13.6079 16.2757 13.6234 16.2772 13.6398 16.2826C13.6558 16.2878 13.6632 16.2935 13.6617 16.2924L12.8821 17.3223C13.0998 17.4871 13.3606 17.5774 13.6449 17.5669L13.5972 16.2761ZM13.6445 16.2798L11.4911 14.7588L10.7459 15.8139L12.8992 17.3349L13.6445 16.2798Z" fill="#472500" mask="url(#path-5-outside-3_1210_3895)"/>
<defs>
<linearGradient id="paint0_linear_1210_3895" x1="5.58727" y1="1" x2="5.58727" y2="9.54054" gradientUnits="userSpaceOnUse">
<stop offset="0.399" stop-color="#FFE16A"/>
<stop offset="1" stop-color="#A07815" stop-opacity="0.88"/>
</linearGradient>
<linearGradient id="paint1_linear_1210_3895" x1="16.6576" y1="1" x2="16.6576" y2="9.54054" gradientUnits="userSpaceOnUse">
<stop offset="0.399" stop-color="#FFE16A"/>
<stop offset="1" stop-color="#A07815" stop-opacity="0.88"/>
</linearGradient>
<linearGradient id="paint2_linear_1210_3895" x1="11.1185" y1="8.38135" x2="11.1185" y2="16.9219" gradientUnits="userSpaceOnUse">
<stop offset="0.399" stop-color="#FFE16A"/>
<stop offset="1" stop-color="#A07815" stop-opacity="0.88"/>
</linearGradient>
</defs>
</svg>
