<svg width="21" height="11" viewBox="0 0 21 11" fill="none" xmlns="http://www.w3.org/2000/svg">
<mask id="path-1-outside-1_1210_3902" maskUnits="userSpaceOnUse" x="0" y="0" width="21" height="11" fill="black">
<rect fill="white" width="21" height="11"/>
<path fill-rule="evenodd" clip-rule="evenodd" d="M3.43394 9.42601L5.58727 7.90502L7.74061 9.42601C7.84731 9.50677 7.9637 9.54482 8.0898 9.54015C8.2159 9.53585 8.32744 9.50229 8.42444 9.43947C8.52144 9.37666 8.59671 9.29141 8.65025 9.18373C8.7034 9.07605 8.70573 8.9594 8.65723 8.83377L7.82791 6.34365L9.9376 4.95726C10.054 4.88548 10.1267 4.79126 10.1558 4.6746C10.1849 4.55795 10.1801 4.45027 10.1413 4.35156C10.1025 4.25285 10.0346 4.16527 9.9376 4.08882C9.8406 4.01273 9.7242 3.97468 9.58841 3.97468H6.98403L6.14016 1.39034C6.09166 1.26471 6.01639 1.16816 5.91435 1.10068C5.81269 1.03356 5.70367 1 5.58727 1C5.47088 1 5.36185 1.03356 5.2602 1.10068C5.15816 1.16816 5.08289 1.26471 5.03439 1.39034L4.19051 3.97468H1.58614C1.45034 3.97468 1.33395 4.01273 1.23695 4.08882C1.13995 4.16527 1.07205 4.25285 1.03325 4.35156C0.994456 4.45027 0.989606 4.55795 1.01871 4.6746C1.0478 4.79126 1.12055 4.88548 1.23695 4.95726L3.34664 6.34365L2.51731 8.83377C2.46881 8.9594 2.47134 9.07605 2.52488 9.18373C2.57803 9.29141 2.65311 9.37666 2.7501 9.43947C2.8471 9.50229 2.95865 9.53585 3.08475 9.54015C3.21084 9.54482 3.32724 9.50677 3.43394 9.42601ZM13.5824 9.42601L15.7357 7.90502L17.889 9.42601C17.9957 9.50677 18.1121 9.54482 18.2382 9.54015C18.3643 9.53585 18.4759 9.50229 18.5729 9.43947C18.6699 9.37666 18.7451 9.29141 18.7987 9.18373C18.8518 9.07605 18.8542 8.9594 18.8057 8.83377L17.9763 6.34365L20.086 4.95726C20.2024 4.88548 20.2752 4.79126 20.3043 4.6746C20.3334 4.55795 20.3285 4.45027 20.2897 4.35156C20.2509 4.25285 20.183 4.16527 20.086 4.08882C19.989 4.01273 19.8726 3.97468 19.7368 3.97468H17.1325L16.2886 1.39034C16.2401 1.26471 16.1648 1.16816 16.0628 1.10068C15.9611 1.03356 15.8521 1 15.7357 1C15.6193 1 15.5103 1.03356 15.4086 1.10068C15.3066 1.16816 15.2313 1.26471 15.1828 1.39034L14.339 3.97468H11.7346C11.5988 3.97468 11.4824 4.01273 11.3854 4.08882C11.2884 4.16527 11.2205 4.25285 11.1817 4.35156C11.1429 4.45027 11.138 4.55795 11.1671 4.6746C11.1962 4.79126 11.269 4.88548 11.3854 4.95726L13.4951 6.34365L12.6657 8.83377C12.6173 8.9594 12.6198 9.07605 12.6733 9.18373C12.7265 9.29141 12.8015 9.37666 12.8985 9.43947C12.9955 9.50229 13.1071 9.53585 13.2332 9.54015C13.3593 9.54482 13.4757 9.50677 13.5824 9.42601Z"/>
</mask>
<path fill-rule="evenodd" clip-rule="evenodd" d="M3.43394 9.42601L5.58727 7.90502L7.74061 9.42601C7.84731 9.50677 7.9637 9.54482 8.0898 9.54015C8.2159 9.53585 8.32744 9.50229 8.42444 9.43947C8.52144 9.37666 8.59671 9.29141 8.65025 9.18373C8.7034 9.07605 8.70573 8.9594 8.65723 8.83377L7.82791 6.34365L9.9376 4.95726C10.054 4.88548 10.1267 4.79126 10.1558 4.6746C10.1849 4.55795 10.1801 4.45027 10.1413 4.35156C10.1025 4.25285 10.0346 4.16527 9.9376 4.08882C9.8406 4.01273 9.7242 3.97468 9.58841 3.97468H6.98403L6.14016 1.39034C6.09166 1.26471 6.01639 1.16816 5.91435 1.10068C5.81269 1.03356 5.70367 1 5.58727 1C5.47088 1 5.36185 1.03356 5.2602 1.10068C5.15816 1.16816 5.08289 1.26471 5.03439 1.39034L4.19051 3.97468H1.58614C1.45034 3.97468 1.33395 4.01273 1.23695 4.08882C1.13995 4.16527 1.07205 4.25285 1.03325 4.35156C0.994456 4.45027 0.989606 4.55795 1.01871 4.6746C1.0478 4.79126 1.12055 4.88548 1.23695 4.95726L3.34664 6.34365L2.51731 8.83377C2.46881 8.9594 2.47134 9.07605 2.52488 9.18373C2.57803 9.29141 2.65311 9.37666 2.7501 9.43947C2.8471 9.50229 2.95865 9.53585 3.08475 9.54015C3.21084 9.54482 3.32724 9.50677 3.43394 9.42601ZM13.5824 9.42601L15.7357 7.90502L17.889 9.42601C17.9957 9.50677 18.1121 9.54482 18.2382 9.54015C18.3643 9.53585 18.4759 9.50229 18.5729 9.43947C18.6699 9.37666 18.7451 9.29141 18.7987 9.18373C18.8518 9.07605 18.8542 8.9594 18.8057 8.83377L17.9763 6.34365L20.086 4.95726C20.2024 4.88548 20.2752 4.79126 20.3043 4.6746C20.3334 4.55795 20.3285 4.45027 20.2897 4.35156C20.2509 4.25285 20.183 4.16527 20.086 4.08882C19.989 4.01273 19.8726 3.97468 19.7368 3.97468H17.1325L16.2886 1.39034C16.2401 1.26471 16.1648 1.16816 16.0628 1.10068C15.9611 1.03356 15.8521 1 15.7357 1C15.6193 1 15.5103 1.03356 15.4086 1.10068C15.3066 1.16816 15.2313 1.26471 15.1828 1.39034L14.339 3.97468H11.7346C11.5988 3.97468 11.4824 4.01273 11.3854 4.08882C11.2884 4.16527 11.2205 4.25285 11.1817 4.35156C11.1429 4.45027 11.138 4.55795 11.1671 4.6746C11.1962 4.79126 11.269 4.88548 11.3854 4.95726L13.4951 6.34365L12.6657 8.83377C12.6173 8.9594 12.6198 9.07605 12.6733 9.18373C12.7265 9.29141 12.8015 9.37666 12.8985 9.43947C12.9955 9.50229 13.1071 9.53585 13.2332 9.54015C13.3593 9.54482 13.4757 9.50677 13.5824 9.42601Z" fill="url(#paint0_linear_1210_3902)"/>
<path d="M5.58727 7.90502L5.95989 7.37749L5.58727 7.1143L5.21466 7.37749L5.58727 7.90502ZM3.43394 9.42601L3.06132 8.89848L3.05263 8.90462L3.04415 8.91104L3.43394 9.42601ZM7.74061 9.42601L8.1304 8.91104L8.12192 8.90462L8.11323 8.89848L7.74061 9.42601ZM8.0898 9.54015L8.06775 8.89467L8.06592 8.89474L8.0898 9.54015ZM8.42444 9.43947L8.7755 9.98159L8.7755 9.98158L8.42444 9.43947ZM8.65025 9.18373L9.22856 9.47129L9.22939 9.46961L8.65025 9.18373ZM8.65723 8.83377L8.04447 9.03785L8.04926 9.05223L8.05472 9.06637L8.65723 8.83377ZM7.82791 6.34365L7.47321 5.80391L7.05824 6.07661L7.21514 6.54773L7.82791 6.34365ZM9.9376 4.95726L9.59856 4.40755L9.59066 4.41242L9.5829 4.41752L9.9376 4.95726ZM10.1558 4.6746L9.52919 4.51828L9.52919 4.51829L10.1558 4.6746ZM10.1413 4.35156L9.5402 4.58783L9.5402 4.58783L10.1413 4.35156ZM9.9376 4.08882L10.3374 3.58158L10.3362 3.58067L9.9376 4.08882ZM6.98403 3.97468L6.37008 4.17516L6.51551 4.62054H6.98403V3.97468ZM6.14016 1.39034L6.75411 1.18987L6.74882 1.17365L6.74267 1.15774L6.14016 1.39034ZM5.91435 1.10068L6.2706 0.561966L6.27022 0.561717L5.91435 1.10068ZM5.2602 1.10068L4.90432 0.561717L4.90394 0.561967L5.2602 1.10068ZM5.03439 1.39034L4.43187 1.15774L4.42573 1.17365L4.42043 1.18987L5.03439 1.39034ZM4.19051 3.97468V4.62054H4.65904L4.80447 4.17516L4.19051 3.97468ZM1.23695 4.08882L0.838305 3.58067L0.837146 3.58158L1.23695 4.08882ZM1.03325 4.35156L0.432167 4.11529L1.03325 4.35156ZM1.01871 4.6746L1.64536 4.51829L1.64536 4.51829L1.01871 4.6746ZM1.23695 4.95726L1.59164 4.41752L1.58388 4.41242L1.57598 4.40755L1.23695 4.95726ZM3.34664 6.34365L3.9594 6.54773L4.11631 6.07661L3.70133 5.80391L3.34664 6.34365ZM2.51731 8.83377L3.11983 9.06637L3.12529 9.05223L3.13008 9.03785L2.51731 8.83377ZM2.52488 9.18373L3.10402 8.89785L3.10319 8.89618L2.52488 9.18373ZM2.7501 9.43947L2.39904 9.98159L2.39904 9.98159L2.7501 9.43947ZM3.08475 9.54015L3.10863 8.89474L3.1068 8.89467L3.08475 9.54015ZM15.7357 7.90502L16.1083 7.37749L15.7357 7.1143L15.3631 7.37749L15.7357 7.90502ZM13.5824 9.42601L13.2098 8.89848L13.2011 8.90462L13.1926 8.91104L13.5824 9.42601ZM17.889 9.42601L18.2788 8.91104L18.2704 8.90462L18.2617 8.89848L17.889 9.42601ZM18.2382 9.54015L18.2162 8.89467L18.2144 8.89474L18.2382 9.54015ZM18.5729 9.43947L18.2218 8.89736L18.2218 8.89736L18.5729 9.43947ZM18.7987 9.18373L19.377 9.47128L19.3778 9.46962L18.7987 9.18373ZM18.8057 8.83377L18.1929 9.03785L18.1977 9.05223L18.2032 9.06637L18.8057 8.83377ZM17.9763 6.34365L17.6217 5.80391L17.2067 6.07661L17.3636 6.54773L17.9763 6.34365ZM20.086 4.95726L19.747 4.40755L19.7391 4.41242L19.7313 4.41752L20.086 4.95726ZM20.3043 4.6746L19.6776 4.51828L19.6776 4.51829L20.3043 4.6746ZM20.086 4.08882L20.4858 3.58159L20.4847 3.58067L20.086 4.08882ZM17.1325 3.97468L16.5185 4.17516L16.6639 4.62054H17.1325V3.97468ZM16.2886 1.39034L16.9025 1.18987L16.8973 1.17365L16.8911 1.15774L16.2886 1.39034ZM16.0628 1.10068L16.419 0.561966L16.4187 0.561717L16.0628 1.10068ZM15.4086 1.10068L15.0528 0.561717L15.0524 0.561968L15.4086 1.10068ZM15.1828 1.39034L14.5803 1.15774L14.5742 1.17365L14.5689 1.18987L15.1828 1.39034ZM14.339 3.97468V4.62054H14.8075L14.9529 4.17516L14.339 3.97468ZM11.3854 4.08882L10.9867 3.58067L10.9856 3.58158L11.3854 4.08882ZM11.1817 4.35156L11.7828 4.58783L11.7828 4.58783L11.1817 4.35156ZM11.1671 4.6746L10.5405 4.83092L10.5405 4.83092L11.1671 4.6746ZM11.3854 4.95726L11.7401 4.41752L11.7323 4.41242L11.7244 4.40755L11.3854 4.95726ZM13.4951 6.34365L14.1078 6.54773L14.2647 6.07661L13.8498 5.80391L13.4951 6.34365ZM12.6657 8.83377L13.2683 9.06637L13.2737 9.05223L13.2785 9.03785L12.6657 8.83377ZM12.6733 9.18373L13.2525 8.89785L13.2516 8.89618L12.6733 9.18373ZM13.2332 9.54015L13.2571 8.89474L13.2552 8.89467L13.2332 9.54015ZM5.21466 7.37749L3.06132 8.89848L3.80655 9.95354L5.95989 8.43255L5.21466 7.37749ZM8.11323 8.89848L5.95989 7.37749L5.21466 8.43255L7.36799 9.95354L8.11323 8.89848ZM8.06592 8.89474C8.07664 8.89434 8.09219 8.89586 8.1086 8.90123C8.12451 8.90643 8.13191 8.91219 8.1304 8.91104L7.35082 9.94098C7.56851 10.1058 7.82936 10.1961 8.11368 10.1856L8.06592 8.89474ZM8.07338 8.89736C8.07461 8.89657 8.07621 8.89566 8.07803 8.89482C8.07984 8.89398 8.08125 8.8935 8.08196 8.89328C8.08369 8.89276 8.07977 8.89426 8.06775 8.89467L8.11185 10.1856C8.34386 10.1777 8.57131 10.1138 8.7755 9.98159L8.07338 8.89736ZM8.07194 8.89617C8.06887 8.90236 8.06768 8.90301 8.0695 8.90095C8.07026 8.90009 8.07118 8.89917 8.07213 8.89835C8.07308 8.89754 8.07359 8.89722 8.07338 8.89736L8.7755 9.98158C8.97375 9.8532 9.12565 9.67825 9.22856 9.47129L8.07194 8.89617ZM8.05472 9.06637C8.05337 9.06287 8.04539 9.04003 8.04613 9.0026C8.04692 8.96333 8.05699 8.92646 8.07111 8.89785L9.22939 9.46961C9.37264 9.17941 9.36455 8.87264 9.25975 8.60117L8.05472 9.06637ZM7.21514 6.54773L8.04447 9.03785L9.27 8.62969L8.44067 6.13957L7.21514 6.54773ZM9.5829 4.41752L7.47321 5.80391L8.1826 6.8834L10.2923 5.49701L9.5829 4.41752ZM9.52919 4.51829C9.53601 4.49092 9.54952 4.4623 9.56824 4.43805C9.58597 4.41509 9.60023 4.40652 9.59856 4.40755L10.2766 5.50698C10.5152 5.35984 10.7069 5.1341 10.7825 4.83092L9.52919 4.51829ZM9.5402 4.58783C9.53316 4.56993 9.52955 4.55142 9.52883 4.53541C9.52814 4.52016 9.53035 4.51363 9.52919 4.51828L10.7825 4.83092C10.8396 4.60204 10.8367 4.35534 10.7424 4.11529L9.5402 4.58783ZM9.53779 4.59606C9.54966 4.60541 9.55252 4.60973 9.55084 4.60756C9.55002 4.60651 9.54835 4.60419 9.5463 4.60061C9.54423 4.59701 9.54211 4.59269 9.5402 4.58783L10.7424 4.11529C10.6552 3.89358 10.5094 3.71713 10.3374 3.58158L9.53779 4.59606ZM9.58841 4.62054C9.59551 4.62054 9.59011 4.62143 9.57688 4.61711C9.56293 4.61255 9.54936 4.60513 9.53895 4.59697L10.3362 3.58067C10.1138 3.4062 9.85318 3.32882 9.58841 3.32882V4.62054ZM6.98403 4.62054H9.58841V3.32882H6.98403V4.62054ZM5.5262 1.59082L6.37008 4.17516L7.59799 3.7742L6.75411 1.18987L5.5262 1.59082ZM5.55809 1.6394C5.55483 1.63724 5.55108 1.63437 5.54726 1.63084C5.54345 1.6273 5.54032 1.62382 5.53796 1.62079C5.53297 1.61439 5.53394 1.61337 5.53764 1.62294L6.74267 1.15774C6.65097 0.920203 6.4958 0.710888 6.2706 0.561966L5.55809 1.6394ZM5.58727 1.64586C5.58239 1.64586 5.57463 1.645 5.56633 1.64244C5.55826 1.63996 5.55545 1.63765 5.55847 1.63965L6.27022 0.561717C6.06816 0.428296 5.83628 0.354144 5.58727 0.354144V1.64586ZM5.61607 1.63965C5.61909 1.63765 5.61629 1.63996 5.60822 1.64244C5.59992 1.645 5.59216 1.64586 5.58727 1.64586V0.354144C5.33827 0.354144 5.10638 0.428296 4.90432 0.561717L5.61607 1.63965ZM5.63691 1.62294C5.6406 1.61338 5.64157 1.61439 5.63658 1.62079C5.63422 1.62382 5.6311 1.6273 5.62728 1.63084C5.62346 1.63437 5.61971 1.63724 5.61645 1.6394L4.90394 0.561967C4.67875 0.710889 4.52357 0.920202 4.43187 1.15774L5.63691 1.62294ZM4.80447 4.17516L5.64834 1.59082L4.42043 1.18987L3.57656 3.7742L4.80447 4.17516ZM1.58614 4.62054H4.19051V3.32882H1.58614V4.62054ZM1.63559 4.59697C1.62518 4.60513 1.61161 4.61255 1.59766 4.61711C1.58443 4.62143 1.57904 4.62054 1.58614 4.62054V3.32882C1.32136 3.32882 1.0607 3.4062 0.838306 3.58067L1.63559 4.59697ZM1.63434 4.58783C1.63243 4.5927 1.63031 4.59701 1.62825 4.60061C1.6262 4.60419 1.62453 4.60651 1.62371 4.60756C1.62202 4.60973 1.62489 4.60541 1.63675 4.59606L0.837146 3.58158C0.66518 3.71713 0.519313 3.89359 0.432167 4.11529L1.63434 4.58783ZM1.64536 4.51829C1.6442 4.51363 1.64641 4.52016 1.64572 4.53541C1.645 4.55142 1.64138 4.56992 1.63434 4.58783L0.432167 4.11529C0.337813 4.35534 0.334958 4.60204 0.392051 4.83092L1.64536 4.51829ZM1.57598 4.40755C1.57432 4.40652 1.58857 4.41509 1.6063 4.43805C1.62502 4.4623 1.63853 4.49092 1.64536 4.51829L0.392051 4.83092C0.467679 5.1341 0.659345 5.35984 0.897915 5.50698L1.57598 4.40755ZM3.70133 5.80391L1.59164 4.41752L0.882255 5.49701L2.99194 6.8834L3.70133 5.80391ZM3.13008 9.03785L3.9594 6.54773L2.73387 6.13957L1.90455 8.62969L3.13008 9.03785ZM3.10319 8.89618C3.11741 8.92478 3.12768 8.96185 3.12853 9.00152C3.12935 9.03937 3.12129 9.06259 3.11983 9.06637L1.91479 8.60117C1.80969 8.87343 1.80219 9.18092 1.94657 9.47128L3.10319 8.89618ZM3.10117 8.89736C3.10103 8.89727 3.10165 8.89767 3.10272 8.89859C3.10379 8.89951 3.10485 8.90056 3.10574 8.90157C3.10783 8.90395 3.10688 8.90366 3.10402 8.89785L1.94574 9.46961C2.04832 9.67742 2.20038 9.85294 2.39904 9.98159L3.10117 8.89736ZM3.1068 8.89467C3.09477 8.89426 3.09086 8.89276 3.09259 8.89328C3.0933 8.8935 3.0947 8.89398 3.09652 8.89482C3.09833 8.89566 3.09994 8.89657 3.10117 8.89736L2.39904 9.98159C2.60324 10.1138 2.83069 10.1777 3.06269 10.1856L3.1068 8.89467ZM3.04415 8.91104C3.04263 8.91219 3.05003 8.90643 3.06595 8.90123C3.08236 8.89586 3.09791 8.89434 3.10863 8.89474L3.06086 10.1856C3.34519 10.1961 3.60604 10.1058 3.82372 9.94099L3.04415 8.91104ZM15.3631 7.37749L13.2098 8.89848L13.955 9.95354L16.1083 8.43255L15.3631 7.37749ZM18.2617 8.89848L16.1083 7.37749L15.3631 8.43255L17.5164 9.95354L18.2617 8.89848ZM18.2144 8.89474C18.2251 8.89434 18.2406 8.89586 18.257 8.90123C18.273 8.90643 18.2803 8.91219 18.2788 8.91104L17.4993 9.94099C17.7169 10.1058 17.9778 10.1961 18.2621 10.1856L18.2144 8.89474ZM18.2218 8.89736C18.223 8.89657 18.2246 8.89566 18.2265 8.89482C18.2283 8.89398 18.2297 8.8935 18.2304 8.89328C18.2321 8.89276 18.2282 8.89426 18.2162 8.89467L18.2603 10.1856C18.4923 10.1777 18.7197 10.1138 18.9239 9.98158L18.2218 8.89736ZM18.2204 8.89618C18.2173 8.90236 18.2161 8.90301 18.2179 8.90095C18.2187 8.90009 18.2196 8.89917 18.2206 8.89835C18.2215 8.89754 18.222 8.89722 18.2218 8.89736L18.9239 9.98159C19.1222 9.8532 19.2741 9.67825 19.377 9.47128L18.2204 8.89618ZM18.2032 9.06637C18.2018 9.06287 18.1938 9.04003 18.1946 9.00259C18.1954 8.96333 18.2054 8.92646 18.2196 8.89785L19.3778 9.46962C19.5211 9.17941 19.513 8.87263 19.4082 8.60117L18.2032 9.06637ZM17.3636 6.54773L18.1929 9.03785L19.4184 8.62969L18.5891 6.13957L17.3636 6.54773ZM19.7313 4.41752L17.6217 5.80391L18.331 6.8834L20.4407 5.49701L19.7313 4.41752ZM19.6776 4.51829C19.6844 4.49092 19.698 4.4623 19.7167 4.43805C19.7344 4.41509 19.7487 4.40652 19.747 4.40755L20.4251 5.50698C20.6636 5.35984 20.8553 5.1341 20.9309 4.83092L19.6776 4.51829ZM19.6886 4.58783C19.6816 4.56993 19.678 4.55142 19.6773 4.53541C19.6766 4.52016 19.6788 4.51363 19.6776 4.51828L20.9309 4.83093C20.988 4.60204 20.9852 4.35533 20.8908 4.11529L19.6886 4.58783ZM19.6862 4.59605C19.6981 4.60541 19.701 4.60973 19.6993 4.60756C19.6985 4.60651 19.6968 4.60419 19.6947 4.60061C19.6927 4.59701 19.6906 4.5927 19.6886 4.58783L20.8908 4.11529C20.8037 3.89359 20.6578 3.71713 20.4858 3.58159L19.6862 4.59605ZM19.7368 4.62054C19.7439 4.62054 19.7386 4.62143 19.7253 4.61711C19.7114 4.61255 19.6978 4.60513 19.6874 4.59697L20.4847 3.58067C20.2623 3.40621 20.0016 3.32882 19.7368 3.32882V4.62054ZM17.1325 4.62054H19.7368V3.32882H17.1325V4.62054ZM15.6746 1.59082L16.5185 4.17516L17.7464 3.7742L16.9025 1.18987L15.6746 1.59082ZM15.7065 1.6394C15.7033 1.63724 15.6995 1.63437 15.6957 1.63084C15.6919 1.6273 15.6888 1.62382 15.6864 1.62079C15.6814 1.61439 15.6824 1.61337 15.6861 1.62294L16.8911 1.15774C16.7994 0.920203 16.6442 0.710888 16.419 0.561966L15.7065 1.6394ZM15.7357 1.64586C15.7308 1.64586 15.7231 1.645 15.7148 1.64244C15.7067 1.63996 15.7039 1.63765 15.7069 1.63965L16.4187 0.561717C16.2166 0.428296 15.9847 0.354144 15.7357 0.354144V1.64586ZM15.7645 1.63965C15.7675 1.63765 15.7647 1.63996 15.7567 1.64244C15.7484 1.645 15.7406 1.64586 15.7357 1.64586V0.354144C15.4867 0.354144 15.2548 0.428296 15.0528 0.561717L15.7645 1.63965ZM15.7853 1.62295C15.789 1.61338 15.79 1.61439 15.785 1.62079C15.7827 1.62382 15.7795 1.6273 15.7757 1.63084C15.7719 1.63437 15.7682 1.63724 15.7649 1.6394L15.0524 0.561968C14.8272 0.710889 14.672 0.920202 14.5803 1.15774L15.7853 1.62295ZM14.9529 4.17516L15.7968 1.59082L14.5689 1.18987L13.725 3.7742L14.9529 4.17516ZM11.7346 4.62054H14.339V3.32882H11.7346V4.62054ZM11.784 4.59697C11.7736 4.60513 11.76 4.61255 11.7461 4.61711C11.7329 4.62143 11.7275 4.62054 11.7346 4.62054V3.32882C11.4698 3.32882 11.2091 3.4062 10.9867 3.58067L11.784 4.59697ZM11.7828 4.58783C11.7809 4.59269 11.7788 4.59701 11.7767 4.60061C11.7746 4.60419 11.773 4.60651 11.7721 4.60756C11.7705 4.60973 11.7733 4.60541 11.7852 4.59606L10.9856 3.58158C10.8136 3.71713 10.6677 3.89359 10.5806 4.11529L11.7828 4.58783ZM11.7938 4.51829C11.7926 4.51363 11.7948 4.52017 11.7942 4.53541C11.7934 4.55142 11.7898 4.56993 11.7828 4.58783L10.5806 4.11529C10.4862 4.35534 10.4834 4.60204 10.5405 4.83092L11.7938 4.51829ZM11.7244 4.40755C11.7228 4.40652 11.737 4.41509 11.7547 4.43805C11.7735 4.4623 11.787 4.49092 11.7938 4.51828L10.5405 4.83092C10.6161 5.1341 10.8078 5.35984 11.0464 5.50698L11.7244 4.40755ZM13.8498 5.80391L11.7401 4.41752L11.0307 5.49701L13.1404 6.8834L13.8498 5.80391ZM13.2785 9.03785L14.1078 6.54773L12.8823 6.13957L12.053 8.62969L13.2785 9.03785ZM13.2516 8.89618C13.2658 8.92478 13.2761 8.96185 13.277 9.00152C13.2778 9.03937 13.2697 9.06259 13.2683 9.06637L12.0632 8.60116C11.9581 8.87343 11.9506 9.18092 12.095 9.47128L13.2516 8.89618ZM13.2496 8.89736C13.2495 8.89727 13.2501 8.89767 13.2512 8.89859C13.2522 8.89951 13.2533 8.90056 13.2542 8.90157C13.2563 8.90395 13.2553 8.90366 13.2525 8.89785L12.0942 9.46961C12.1968 9.67742 12.3488 9.85294 12.5475 9.98159L13.2496 8.89736ZM13.2552 8.89467C13.2432 8.89426 13.2393 8.89276 13.241 8.89328C13.2417 8.8935 13.2431 8.89398 13.245 8.89482C13.2468 8.89566 13.2484 8.89657 13.2496 8.89736L12.5475 9.98159C12.7517 10.1138 12.9791 10.1777 13.2111 10.1856L13.2552 8.89467ZM13.1926 8.91104C13.1911 8.91219 13.1985 8.90643 13.2144 8.90123C13.2308 8.89586 13.2463 8.89434 13.2571 8.89474L13.2093 10.1856C13.4936 10.1961 13.7545 10.1058 13.9722 9.94099L13.1926 8.91104Z" fill="#472500" mask="url(#path-1-outside-1_1210_3902)"/>
<defs>
<linearGradient id="paint0_linear_1210_3902" x1="15.7357" y1="1" x2="15.7357" y2="9.54054" gradientUnits="userSpaceOnUse">
<stop offset="0.399" stop-color="#FFE16A"/>
<stop offset="1" stop-color="#A07815" stop-opacity="0.88"/>
</linearGradient>
</defs>
</svg>
