<svg width="21" height="11" viewBox="0 0 21 11" fill="none" xmlns="http://www.w3.org/2000/svg">
<g clip-path="url(#clip0_1210_3947)">
<path fill-rule="evenodd" clip-rule="evenodd" d="M3.43394 9.42601L5.58727 7.90502L7.74061 9.42601C7.84731 9.50677 7.9637 9.54482 8.0898 9.54015C8.2159 9.53585 8.32744 9.50229 8.42444 9.43947C8.52144 9.37666 8.59671 9.29141 8.65025 9.18373C8.7034 9.07605 8.70573 8.9594 8.65723 8.83377L7.82791 6.34365L9.9376 4.95726C10.054 4.88548 10.1267 4.79126 10.1558 4.6746C10.1849 4.55795 10.1801 4.45027 10.1413 4.35156C10.1025 4.25285 10.0346 4.16527 9.9376 4.08882C9.8406 4.01273 9.7242 3.97468 9.58841 3.97468H6.98403L6.14016 1.39034C6.09166 1.26471 6.01639 1.16816 5.91435 1.10068C5.81269 1.03356 5.70367 1 5.58727 1C5.47088 1 5.36185 1.03356 5.2602 1.10068C5.15816 1.16816 5.08289 1.26471 5.03439 1.39034L4.19051 3.97468H1.58614C1.45034 3.97468 1.33395 4.01273 1.23695 4.08882C1.13995 4.16527 1.07205 4.25285 1.03325 4.35156C0.994457 4.45027 0.989607 4.55795 1.01871 4.6746C1.0478 4.79126 1.12055 4.88548 1.23695 4.95726L3.34664 6.34365L2.51731 8.83377C2.46881 8.9594 2.47134 9.07605 2.52488 9.18373C2.57803 9.29141 2.65311 9.37666 2.7501 9.43947C2.8471 9.50229 2.95865 9.53585 3.08475 9.54015C3.21084 9.54482 3.32724 9.50677 3.43394 9.42601ZM13.5824 9.42601L15.7357 7.90502L17.889 9.42601C17.9957 9.50677 18.1121 9.54482 18.2382 9.54015C18.3643 9.53585 18.4759 9.50229 18.5729 9.43947C18.6699 9.37666 18.7451 9.29141 18.7987 9.18373C18.8518 9.07605 18.8542 8.9594 18.8057 8.83377L17.9763 6.34365L20.086 4.95726C20.2024 4.88548 20.2752 4.79126 20.3043 4.6746C20.3334 4.55795 20.3285 4.45027 20.2897 4.35156C20.2509 4.25285 20.183 4.16527 20.086 4.08882C19.989 4.01273 19.8726 3.97468 19.7368 3.97468H17.1325L16.2886 1.39034C16.2401 1.26471 16.1648 1.16816 16.0628 1.10068C15.9611 1.03356 15.8521 1 15.7357 1C15.6193 1 15.5103 1.03356 15.4086 1.10068C15.3066 1.16816 15.2313 1.26471 15.1828 1.39034L14.339 3.97468H11.7346C11.5988 3.97468 11.4824 4.01273 11.3854 4.08882C11.2884 4.16527 11.2205 4.25285 11.1817 4.35156C11.1429 4.45027 11.138 4.55795 11.1671 4.6746C11.1962 4.79126 11.269 4.88548 11.3854 4.95726L13.4951 6.34365L12.6657 8.83377C12.6173 8.9594 12.6198 9.07605 12.6733 9.18373C12.7265 9.29141 12.8015 9.37666 12.8985 9.43947C12.9955 9.50229 13.1071 9.53585 13.2332 9.54015C13.3593 9.54482 13.4757 9.50677 13.5824 9.42601Z" fill="url(#paint0_linear_1210_3947)"/>
<mask id="mask0_1210_3947" style="mask-type:luminance" maskUnits="userSpaceOnUse" x="0" y="0" width="21" height="11">
<path d="M21 0H0V11H21V0Z" fill="white"/>
<path fill-rule="evenodd" clip-rule="evenodd" d="M3.43394 9.42601L5.58727 7.90502L7.74061 9.42601C7.84731 9.50677 7.9637 9.54482 8.0898 9.54015C8.2159 9.53585 8.32744 9.50229 8.42444 9.43947C8.52144 9.37666 8.59671 9.29141 8.65025 9.18373C8.7034 9.07605 8.70573 8.9594 8.65723 8.83377L7.82791 6.34365L9.9376 4.95726C10.054 4.88548 10.1267 4.79126 10.1558 4.6746C10.1849 4.55795 10.1801 4.45027 10.1413 4.35156C10.1025 4.25285 10.0346 4.16527 9.9376 4.08882C9.8406 4.01273 9.7242 3.97468 9.58841 3.97468H6.98403L6.14016 1.39034C6.09166 1.26471 6.01639 1.16816 5.91435 1.10068C5.81269 1.03356 5.70367 1 5.58727 1C5.47088 1 5.36185 1.03356 5.2602 1.10068C5.15816 1.16816 5.08289 1.26471 5.03439 1.39034L4.19051 3.97468H1.58614C1.45034 3.97468 1.33395 4.01273 1.23695 4.08882C1.13995 4.16527 1.07205 4.25285 1.03325 4.35156C0.994457 4.45027 0.989607 4.55795 1.01871 4.6746C1.0478 4.79126 1.12055 4.88548 1.23695 4.95726L3.34664 6.34365L2.51731 8.83377C2.46881 8.9594 2.47134 9.07605 2.52488 9.18373C2.57803 9.29141 2.65311 9.37666 2.7501 9.43947C2.8471 9.50229 2.95865 9.53585 3.08475 9.54015C3.21084 9.54482 3.32724 9.50677 3.43394 9.42601ZM13.5824 9.42601L15.7357 7.90502L17.889 9.42601C17.9957 9.50677 18.1121 9.54482 18.2382 9.54015C18.3643 9.53585 18.4759 9.50229 18.5729 9.43947C18.6699 9.37666 18.7451 9.29141 18.7987 9.18373C18.8518 9.07605 18.8542 8.9594 18.8057 8.83377L17.9763 6.34365L20.086 4.95726C20.2024 4.88548 20.2752 4.79126 20.3043 4.6746C20.3334 4.55795 20.3285 4.45027 20.2897 4.35156C20.2509 4.25285 20.183 4.16527 20.086 4.08882C19.989 4.01273 19.8726 3.97468 19.7368 3.97468H17.1325L16.2886 1.39034C16.2401 1.26471 16.1648 1.16816 16.0628 1.10068C15.9611 1.03356 15.8521 1 15.7357 1C15.6193 1 15.5103 1.03356 15.4086 1.10068C15.3066 1.16816 15.2313 1.26471 15.1828 1.39034L14.339 3.97468H11.7346C11.5988 3.97468 11.4824 4.01273 11.3854 4.08882C11.2884 4.16527 11.2205 4.25285 11.1817 4.35156C11.1429 4.45027 11.138 4.55795 11.1671 4.6746C11.1962 4.79126 11.269 4.88548 11.3854 4.95726L13.4951 6.34365L12.6657 8.83377C12.6173 8.9594 12.6198 9.07605 12.6733 9.18373C12.7265 9.29141 12.8015 9.37666 12.8985 9.43947C12.9955 9.50229 13.1071 9.53585 13.2332 9.54015C13.3593 9.54482 13.4757 9.50677 13.5824 9.42601Z" fill="black"/>
</mask>
<g mask="url(#mask0_1210_3947)">
<path d="M5.58662 7.905L5.95924 7.37747L5.58662 7.11428L5.21401 7.37747L5.58662 7.905ZM3.43329 9.42599L3.06067 8.89846L3.05198 8.9046L3.0435 8.91102L3.43329 9.42599ZM7.73996 9.42599L8.12975 8.91102L8.12127 8.9046L8.11258 8.89846L7.73996 9.42599ZM8.08915 9.54013L8.0671 8.89465L8.06527 8.89472L8.08915 9.54013ZM8.6496 9.18371L9.22791 9.47127L9.22874 9.46959L8.6496 9.18371ZM8.65658 8.83375L8.04382 9.03783L8.04861 9.05221L8.05407 9.06635L8.65658 8.83375ZM7.82726 6.34363L7.47256 5.80389L7.05759 6.07659L7.21449 6.54771L7.82726 6.34363ZM9.93695 4.95724L9.59791 4.40753L9.59001 4.4124L9.58225 4.4175L9.93695 4.95724ZM9.93695 4.0888L10.3368 3.58156L10.3356 3.58065L9.93695 4.0888ZM6.98338 3.97466L6.36943 4.17514L6.51486 4.62052H6.98338V3.97466ZM6.13951 1.39032L6.75346 1.18985L6.74817 1.17363L6.74202 1.15772L6.13951 1.39032ZM5.03374 1.39032L4.43122 1.15772L4.42508 1.17363L4.41978 1.18985L5.03374 1.39032ZM4.18986 3.97466V4.62052H4.65839L4.80382 4.17514L4.18986 3.97466ZM1.2363 4.0888L0.837659 3.58065L0.8365 3.58156L1.2363 4.0888ZM1.2363 4.95724L1.59099 4.4175L1.58323 4.4124L1.57533 4.40753L1.2363 4.95724ZM3.34599 6.34363L3.95875 6.54771L4.11566 6.07659L3.70068 5.80389L3.34599 6.34363ZM2.51666 8.83375L3.11918 9.06635L3.12464 9.05221L3.12943 9.03783L2.51666 8.83375ZM2.52423 9.18371L3.10337 8.89783L3.10254 8.89616L2.52423 9.18371ZM3.0841 9.54013L3.10798 8.89472L3.10615 8.89465L3.0841 9.54013ZM15.7351 7.905L16.1077 7.37747L15.7351 7.11428L15.3625 7.37747L15.7351 7.905ZM13.5818 9.42599L13.2092 8.89846L13.2005 8.9046L13.192 8.91102L13.5818 9.42599ZM17.8884 9.42599L18.2782 8.91102L18.2698 8.9046L18.2611 8.89846L17.8884 9.42599ZM18.2376 9.54013L18.2156 8.89465L18.2138 8.89472L18.2376 9.54013ZM18.7981 9.18371L19.3764 9.47126L19.3772 9.4696L18.7981 9.18371ZM18.8051 8.83375L18.1923 9.03783L18.1971 9.05221L18.2026 9.06635L18.8051 8.83375ZM17.9757 6.34363L17.6211 5.80389L17.2061 6.07659L17.363 6.54771L17.9757 6.34363ZM20.0854 4.95724L19.7464 4.40753L19.7385 4.4124L19.7307 4.4175L20.0854 4.95724ZM20.0854 4.0888L20.4852 3.58157L20.4841 3.58065L20.0854 4.0888ZM17.1319 3.97466L16.5179 4.17514L16.6633 4.62052H17.1319V3.97466ZM16.288 1.39032L16.9019 1.18985L16.8967 1.17363L16.8905 1.15772L16.288 1.39032ZM15.1822 1.39032L14.5797 1.15772L14.5736 1.17363L14.5683 1.18985L15.1822 1.39032ZM14.3384 3.97466V4.62052H14.8069L14.9523 4.17514L14.3384 3.97466ZM11.3848 4.0888L10.9861 3.58065L10.985 3.58156L11.3848 4.0888ZM11.3848 4.95724L11.7395 4.4175L11.7317 4.4124L11.7238 4.40753L11.3848 4.95724ZM13.4945 6.34363L14.1072 6.54771L14.2641 6.07659L13.8492 5.80389L13.4945 6.34363ZM12.6651 8.83375L13.2677 9.06635L13.2731 9.05221L13.2779 9.03783L12.6651 8.83375ZM12.6727 9.18371L13.2519 8.89783L13.251 8.89616L12.6727 9.18371ZM13.2326 9.54013L13.2565 8.89472L13.2546 8.89465L13.2326 9.54013ZM5.21401 7.37747L3.06067 8.89846L3.8059 9.95352L5.95924 8.43253L5.21401 7.37747ZM8.11258 8.89846L5.95924 7.37747L5.21401 8.43253L7.36734 9.95352L8.11258 8.89846ZM8.06527 8.89472C8.07599 8.89432 8.09154 8.89584 8.10795 8.90121C8.12386 8.90641 8.13126 8.91217 8.12975 8.91102L7.35017 9.94096C7.56786 10.1058 7.82871 10.1961 8.11303 10.1856L8.06527 8.89472ZM8.07273 8.89734C8.07396 8.89655 8.07556 8.89564 8.07738 8.8948C8.07919 8.89396 8.0806 8.89348 8.08131 8.89326C8.08304 8.89274 8.07912 8.89424 8.0671 8.89465L8.1112 10.1856C8.34321 10.1777 8.57066 10.1138 8.77485 9.98157L8.07273 8.89734ZM8.07129 8.89615C8.06822 8.90234 8.06703 8.90299 8.06885 8.90093C8.06961 8.90007 8.07053 8.89915 8.07148 8.89833C8.07243 8.89752 8.07294 8.8972 8.07273 8.89734L8.77485 9.98157C8.9731 9.85319 9.125 9.67823 9.22791 9.47127L8.07129 8.89615ZM8.05407 9.06635C8.05272 9.06285 8.04474 9.04001 8.04548 9.00258C8.04627 8.96331 8.05634 8.92644 8.07046 8.89783L9.22874 9.46959C9.37199 9.17939 9.3639 8.87262 9.2591 8.60115L8.05407 9.06635ZM7.21449 6.54771L8.04382 9.03783L9.26935 8.62967L8.44002 6.13955L7.21449 6.54771ZM9.58225 4.4175L7.47256 5.80389L8.18195 6.88338L10.2917 5.49699L9.58225 4.4175ZM9.52854 4.51826C9.53536 4.49089 9.54887 4.46228 9.56759 4.43803C9.58532 4.41507 9.59958 4.4065 9.59791 4.40753L10.276 5.50696C10.5146 5.35982 10.7063 5.13408 10.7819 4.8309L9.52854 4.51826ZM9.53955 4.58781C9.53251 4.56991 9.5289 4.5514 9.52818 4.53539C9.52749 4.52014 9.5297 4.51361 9.52854 4.51826L10.7819 4.8309C10.839 4.60202 10.8361 4.35532 10.7418 4.11527L9.53955 4.58781ZM9.53714 4.59604C9.54901 4.60539 9.55187 4.60971 9.55019 4.60754C9.54937 4.60649 9.5477 4.60417 9.54565 4.60059C9.54358 4.59699 9.54146 4.59267 9.53955 4.58781L10.7418 4.11527C10.6546 3.89356 10.5088 3.71711 10.3368 3.58156L9.53714 4.59604ZM9.58776 4.62052C9.59486 4.62052 9.58946 4.62141 9.57623 4.61709C9.56228 4.61253 9.54871 4.60511 9.5383 4.59695L10.3356 3.58065C10.1132 3.40618 9.85253 3.3288 9.58776 3.3288V4.62052ZM6.98338 4.62052H9.58776V3.3288H6.98338V4.62052ZM5.52555 1.5908L6.36943 4.17514L7.59734 3.77418L6.75346 1.18985L5.52555 1.5908ZM5.55744 1.63938C5.55418 1.63722 5.55043 1.63435 5.54661 1.63082C5.5428 1.62728 5.53967 1.6238 5.53731 1.62077C5.53232 1.61437 5.53329 1.61335 5.53699 1.62292L6.74202 1.15772C6.65032 0.920185 6.49515 0.71087 6.26995 0.561948L5.55744 1.63938ZM5.58662 1.64584C5.58174 1.64584 5.57398 1.64498 5.56568 1.64242C5.55761 1.63994 5.55442 1.63738 5.55744 1.63938L6.26995 0.561948C6.06789 0.428527 5.83563 0.354126 5.58662 0.354126V1.64584ZM5.61542 1.63963C5.61844 1.63763 5.61564 1.63994 5.60757 1.64242C5.59927 1.64498 5.59151 1.64584 5.58662 1.64584V0.354126C5.33762 0.354126 5.10573 0.428278 4.90367 0.561699L5.61542 1.63963ZM5.63626 1.62292C5.63995 1.61336 5.64092 1.61437 5.63593 1.62077C5.63357 1.6238 5.63045 1.62728 5.62663 1.63082C5.62281 1.63435 5.61868 1.63747 5.61542 1.63963L4.90367 0.561699C4.67848 0.710621 4.52292 0.920184 4.43122 1.15772L5.63626 1.62292ZM4.80382 4.17514L5.64769 1.5908L4.41978 1.18985L3.57591 3.77418L4.80382 4.17514ZM1.58549 4.62052H4.18986V3.3288H1.58549V4.62052ZM1.63494 4.59695C1.62453 4.60511 1.61096 4.61253 1.59701 4.61709C1.58378 4.62141 1.57839 4.62052 1.58549 4.62052V3.3288C1.32071 3.3288 1.06005 3.40618 0.837659 3.58065L1.63494 4.59695ZM1.63369 4.58781C1.63178 4.59268 1.62966 4.59699 1.6276 4.60059C1.62555 4.60417 1.62388 4.60649 1.62306 4.60754C1.62137 4.60971 1.62424 4.60539 1.6361 4.59604L0.8365 3.58156C0.664534 3.71711 0.518667 3.89357 0.431521 4.11527L1.63369 4.58781ZM1.64471 4.51827C1.64355 4.51361 1.64576 4.52014 1.64507 4.53539C1.64435 4.5514 1.64073 4.5699 1.63369 4.58781L0.431521 4.11527C0.337167 4.35532 0.334312 4.60202 0.391405 4.8309L1.64471 4.51827ZM1.57533 4.40753C1.57367 4.4065 1.58792 4.41507 1.60565 4.43803C1.62437 4.46228 1.63788 4.4909 1.64471 4.51827L0.391405 4.8309C0.467033 5.13408 0.658699 5.35982 0.897269 5.50696L1.57533 4.40753ZM3.70068 5.80389L1.59099 4.4175L0.881609 5.49699L2.99129 6.88338L3.70068 5.80389ZM3.12943 9.03783L3.95875 6.54771L2.73322 6.13955L1.9039 8.62967L3.12943 9.03783ZM3.10254 8.89616C3.11676 8.92476 3.12703 8.96183 3.12788 9.0015C3.1287 9.03935 3.12064 9.06257 3.11918 9.06635L1.91414 8.60115C1.80904 8.87341 1.80154 9.1809 1.94592 9.47126L3.10254 8.89616ZM3.10052 8.89734C3.10038 8.89725 3.101 8.89765 3.10207 8.89857C3.10314 8.89949 3.1042 8.90054 3.10509 8.90155C3.10718 8.90393 3.10623 8.90364 3.10337 8.89783L1.94509 9.46959C2.04767 9.6774 2.19973 9.85292 2.39839 9.98157L3.10052 8.89734ZM3.10615 8.89465C3.09412 8.89424 3.09021 8.89274 3.09194 8.89326C3.09265 8.89348 3.09405 8.89396 3.09587 8.8948C3.09768 8.89564 3.09929 8.89655 3.10052 8.89734L2.39839 9.98157C2.60259 10.1138 2.83004 10.1777 3.06204 10.1856L3.10615 8.89465ZM3.0435 8.91102C3.04198 8.91217 3.04938 8.90641 3.0653 8.90121C3.08171 8.89584 3.09726 8.89432 3.10798 8.89472L3.06021 10.1856C3.34454 10.1961 3.60539 10.1058 3.82307 9.94097L3.0435 8.91102ZM15.3625 7.37747L13.2092 8.89846L13.9544 9.95352L16.1077 8.43253L15.3625 7.37747ZM18.2611 8.89846L16.1077 7.37747L15.3625 8.43253L17.5158 9.95352L18.2611 8.89846ZM18.2138 8.89472C18.2245 8.89432 18.24 8.89584 18.2564 8.90121C18.2724 8.90641 18.2797 8.91217 18.2782 8.91102L17.4987 9.94097C17.7163 10.1058 17.9772 10.1961 18.2615 10.1856L18.2138 8.89472ZM18.2212 8.89734C18.2224 8.89655 18.224 8.89564 18.2259 8.8948C18.2277 8.89396 18.2291 8.89348 18.2298 8.89326C18.2315 8.89274 18.2276 8.89424 18.2156 8.89465L18.2597 10.1856C18.4917 10.1777 18.7191 10.1138 18.9233 9.98156L18.2212 8.89734ZM18.2198 8.89616C18.2167 8.90234 18.2155 8.90299 18.2173 8.90093C18.2181 8.90007 18.219 8.89915 18.22 8.89833C18.2209 8.89752 18.2214 8.8972 18.2212 8.89734L18.9233 9.98156C19.1216 9.85317 19.2735 9.67823 19.3764 9.47126L18.2198 8.89616ZM18.2026 9.06635C18.2012 9.06285 18.1932 9.04001 18.194 9.00257C18.1948 8.96331 18.2048 8.92644 18.219 8.89783L19.3772 9.4696C19.5205 9.17939 19.5124 8.87261 19.4076 8.60115L18.2026 9.06635ZM17.363 6.54771L18.1923 9.03783L19.4178 8.62967L18.5885 6.13955L17.363 6.54771ZM19.7307 4.4175L17.6211 5.80389L18.3304 6.88338L20.4401 5.49699L19.7307 4.4175ZM19.677 4.51826C19.6838 4.49089 19.6974 4.46228 19.7161 4.43803C19.7338 4.41507 19.7481 4.4065 19.7464 4.40753L20.4245 5.50696C20.663 5.35982 20.8547 5.13408 20.9303 4.8309L19.677 4.51826ZM19.688 4.58781C19.681 4.56991 19.6774 4.5514 19.6767 4.53539C19.676 4.52014 19.6782 4.51361 19.677 4.51826L20.9303 4.8309C20.9874 4.60201 20.9846 4.35531 20.8902 4.11527L19.688 4.58781ZM19.6856 4.59603C19.6975 4.60539 19.7004 4.60971 19.6987 4.60754C19.6979 4.60649 19.6962 4.60417 19.6941 4.60059C19.6921 4.59699 19.69 4.59268 19.688 4.58781L20.8902 4.11527C20.8031 3.89357 20.6572 3.71711 20.4852 3.58157L19.6856 4.59603ZM19.7362 4.62052C19.7433 4.62052 19.738 4.62141 19.7247 4.61709C19.7108 4.61253 19.6972 4.60511 19.6868 4.59695L20.4841 3.58065C20.2617 3.40619 20.001 3.3288 19.7362 3.3288V4.62052ZM17.1319 4.62052H19.7362V3.3288H17.1319V4.62052ZM15.674 1.5908L16.5179 4.17514L17.7458 3.77418L16.9019 1.18985L15.674 1.5908ZM15.7059 1.63938C15.7027 1.63722 15.6989 1.63435 15.6951 1.63082C15.6913 1.62728 15.6882 1.6238 15.6858 1.62077C15.6808 1.61437 15.6818 1.61335 15.6855 1.62292L16.8905 1.15772C16.7988 0.920185 16.6436 0.71087 16.4184 0.561948L15.7059 1.63938ZM15.7351 1.64584C15.7302 1.64584 15.7225 1.64498 15.7142 1.64242C15.7061 1.63994 15.7029 1.63738 15.7059 1.63938L16.4184 0.561948C16.2163 0.428527 15.9841 0.354126 15.7351 0.354126V1.64584ZM15.7639 1.63963C15.7669 1.63763 15.7641 1.63994 15.7561 1.64242C15.7478 1.64498 15.74 1.64584 15.7351 1.64584V0.354126C15.4861 0.354126 15.2542 0.428278 15.0522 0.561699L15.7639 1.63963ZM15.7847 1.62293C15.7884 1.61336 15.7894 1.61437 15.7844 1.62077C15.7821 1.6238 15.7789 1.62728 15.7751 1.63082C15.7713 1.63435 15.7672 1.63747 15.7639 1.63963L15.0522 0.561699C14.827 0.71062 14.6714 0.920184 14.5797 1.15772L15.7847 1.62293ZM14.9523 4.17514L15.7962 1.5908L14.5683 1.18985L13.7244 3.77418L14.9523 4.17514ZM11.734 4.62052H14.3384V3.3288H11.734V4.62052ZM11.7834 4.59695C11.773 4.60511 11.7594 4.61253 11.7455 4.61709C11.7323 4.62141 11.7269 4.62052 11.734 4.62052V3.3288C11.4692 3.3288 11.2085 3.40618 10.9861 3.58065L11.7834 4.59695ZM11.7822 4.58781C11.7803 4.59267 11.7782 4.59699 11.7761 4.60059C11.774 4.60417 11.7724 4.60649 11.7715 4.60754C11.7699 4.60971 11.7727 4.60539 11.7846 4.59604L10.985 3.58156C10.813 3.71711 10.6671 3.89357 10.58 4.11527L11.7822 4.58781ZM11.7932 4.51827C11.792 4.51361 11.7942 4.52015 11.7936 4.53539C11.7928 4.5514 11.7892 4.56991 11.7822 4.58781L10.58 4.11527C10.4856 4.35532 10.4828 4.60202 10.5399 4.8309L11.7932 4.51827ZM11.7238 4.40753C11.7222 4.4065 11.7364 4.41507 11.7541 4.43803C11.7729 4.46228 11.7864 4.49091 11.7932 4.51827L10.5399 4.8309C10.6155 5.13408 10.8072 5.35982 11.0458 5.50696L11.7238 4.40753ZM13.8492 5.80389L11.7395 4.4175L11.0301 5.49699L13.1398 6.88338L13.8492 5.80389ZM13.2779 9.03783L14.1072 6.54771L12.8817 6.13955L12.0524 8.62967L13.2779 9.03783ZM13.251 8.89616C13.2652 8.92476 13.2755 8.96183 13.2764 9.0015C13.2772 9.03935 13.2691 9.06257 13.2677 9.06635L12.0626 8.60114C11.9575 8.87341 11.95 9.1809 12.0944 9.47126L13.251 8.89616ZM13.249 8.89734C13.2489 8.89725 13.2495 8.89765 13.2506 8.89857C13.2516 8.89949 13.2527 8.90054 13.2536 8.90155C13.2557 8.90393 13.2547 8.90364 13.2519 8.89783L12.0936 9.46959C12.1962 9.6774 12.3482 9.85292 12.5469 9.98157L13.249 8.89734ZM13.2546 8.89465C13.2426 8.89424 13.2387 8.89274 13.2404 8.89326C13.2411 8.89348 13.2425 8.89396 13.2444 8.8948C13.2462 8.89564 13.2478 8.89655 13.249 8.89734L12.5469 9.98157C12.7511 10.1138 12.9785 10.1777 13.2105 10.1856L13.2546 8.89465ZM13.192 8.91102C13.1905 8.91217 13.1979 8.90641 13.2138 8.90121C13.2302 8.89584 13.2457 8.89432 13.2565 8.89472L13.2087 10.1856C13.493 10.1961 13.7539 10.1058 13.9716 9.94097L13.192 8.91102Z" fill="#472500"/>
</g>
</g>
<defs>
<linearGradient id="paint0_linear_1210_3947" x1="15.7357" y1="1" x2="15.7357" y2="9.54054" gradientUnits="userSpaceOnUse">
<stop offset="0.399" stop-color="#F7FF59"/>
<stop offset="1" stop-color="#AD7900" stop-opacity="0.88"/>
</linearGradient>
<clipPath id="clip0_1210_3947">
<rect width="21" height="11" fill="white"/>
</clipPath>
</defs>
</svg>
