<svg width="11" height="11" viewBox="0 0 11 11" fill="none" xmlns="http://www.w3.org/2000/svg">
<mask id="path-1-outside-1_1210_3883" maskUnits="userSpaceOnUse" x="0" y="0" width="11" height="11" fill="black">
<rect fill="white" width="11" height="11"/>
<path d="M5.58727 7.90502L3.43394 9.42601C3.32724 9.50677 3.21084 9.54482 3.08475 9.54015C2.95865 9.53585 2.8471 9.50229 2.75011 9.43947C2.65311 9.37666 2.57803 9.29141 2.52488 9.18373C2.47134 9.07605 2.46881 8.9594 2.51731 8.83377L3.34664 6.34365L1.23695 4.95726C1.12055 4.88548 1.04781 4.79126 1.01871 4.6746C0.989607 4.55795 0.994457 4.45027 1.03326 4.35156C1.07206 4.25285 1.13995 4.16527 1.23695 4.08882C1.33395 4.01273 1.45034 3.97468 1.58614 3.97468H4.19051L5.03439 1.39034C5.08289 1.26471 5.15816 1.16816 5.2602 1.10068C5.36185 1.03356 5.47088 1 5.58727 1C5.70367 1 5.8127 1.03356 5.91435 1.10068C6.01639 1.16816 6.09166 1.26471 6.14016 1.39034L6.98403 3.97468H9.58841C9.7242 3.97468 9.8406 4.01273 9.9376 4.08882C10.0346 4.16527 10.1025 4.25285 10.1413 4.35156C10.1801 4.45027 10.1849 4.55795 10.1558 4.6746C10.1267 4.79126 10.054 4.88548 9.9376 4.95726L7.82791 6.34365L8.65723 8.83377C8.70573 8.9594 8.70341 9.07605 8.65025 9.18373C8.59671 9.29141 8.52144 9.37666 8.42444 9.43947C8.32744 9.50229 8.2159 9.53585 8.0898 9.54015C7.9637 9.54482 7.84731 9.50677 7.74061 9.42601L5.58727 7.90502Z"/>
</mask>
<path d="M5.58727 7.90502L3.43394 9.42601C3.32724 9.50677 3.21084 9.54482 3.08475 9.54015C2.95865 9.53585 2.8471 9.50229 2.75011 9.43947C2.65311 9.37666 2.57803 9.29141 2.52488 9.18373C2.47134 9.07605 2.46881 8.9594 2.51731 8.83377L3.34664 6.34365L1.23695 4.95726C1.12055 4.88548 1.04781 4.79126 1.01871 4.6746C0.989607 4.55795 0.994457 4.45027 1.03326 4.35156C1.07206 4.25285 1.13995 4.16527 1.23695 4.08882C1.33395 4.01273 1.45034 3.97468 1.58614 3.97468H4.19051L5.03439 1.39034C5.08289 1.26471 5.15816 1.16816 5.2602 1.10068C5.36185 1.03356 5.47088 1 5.58727 1C5.70367 1 5.8127 1.03356 5.91435 1.10068C6.01639 1.16816 6.09166 1.26471 6.14016 1.39034L6.98403 3.97468H9.58841C9.7242 3.97468 9.8406 4.01273 9.9376 4.08882C10.0346 4.16527 10.1025 4.25285 10.1413 4.35156C10.1801 4.45027 10.1849 4.55795 10.1558 4.6746C10.1267 4.79126 10.054 4.88548 9.9376 4.95726L7.82791 6.34365L8.65723 8.83377C8.70573 8.9594 8.70341 9.07605 8.65025 9.18373C8.59671 9.29141 8.52144 9.37666 8.42444 9.43947C8.32744 9.50229 8.2159 9.53585 8.0898 9.54015C7.9637 9.54482 7.84731 9.50677 7.74061 9.42601L5.58727 7.90502Z" fill="url(#paint0_linear_1210_3883)"/>
<path d="M5.58727 7.90502L5.95989 7.37749L5.58727 7.1143L5.21466 7.37749L5.58727 7.90502ZM3.43394 9.42601L3.06132 8.89848L3.05263 8.90462L3.04415 8.91104L3.43394 9.42601ZM3.08475 9.54015L3.10863 8.89474L3.10679 8.89467L3.08475 9.54015ZM2.52488 9.18373L3.10402 8.89785L3.10319 8.89618L2.52488 9.18373ZM2.51731 8.83377L3.11983 9.06637L3.12529 9.05223L3.13008 9.03785L2.51731 8.83377ZM3.34664 6.34365L3.9594 6.54773L4.11631 6.07661L3.70133 5.80391L3.34664 6.34365ZM1.23695 4.95726L1.59164 4.41752L1.58389 4.41242L1.57598 4.40755L1.23695 4.95726ZM1.23695 4.08882L0.838307 3.58067L0.837147 3.58159L1.23695 4.08882ZM4.19051 3.97468V4.62054H4.65904L4.80447 4.17516L4.19051 3.97468ZM5.03439 1.39034L4.43187 1.15774L4.42573 1.17365L4.42044 1.18987L5.03439 1.39034ZM5.2602 1.10068L4.90432 0.561717L4.90395 0.561966L5.2602 1.10068ZM5.91435 1.10068L6.2706 0.561966L6.27022 0.561717L5.91435 1.10068ZM6.14016 1.39034L6.75411 1.18987L6.74882 1.17365L6.74267 1.15774L6.14016 1.39034ZM6.98403 3.97468L6.37008 4.17516L6.51551 4.62054H6.98403V3.97468ZM9.9376 4.08882L10.3374 3.58158L10.3362 3.58067L9.9376 4.08882ZM9.9376 4.95726L9.59856 4.40755L9.59066 4.41242L9.5829 4.41752L9.9376 4.95726ZM7.82791 6.34365L7.47322 5.80391L7.05824 6.07661L7.21514 6.54773L7.82791 6.34365ZM8.65723 8.83377L8.04447 9.03785L8.04926 9.05223L8.05472 9.06637L8.65723 8.83377ZM8.65025 9.18373L9.22856 9.47129L9.22939 9.46961L8.65025 9.18373ZM8.0898 9.54015L8.06775 8.89467L8.06592 8.89474L8.0898 9.54015ZM7.74061 9.42601L8.1304 8.91104L8.12192 8.90462L8.11323 8.89848L7.74061 9.42601ZM5.21466 7.37749L3.06132 8.89848L3.80655 9.95354L5.95989 8.43255L5.21466 7.37749ZM3.04415 8.91104C3.04263 8.91219 3.05003 8.90643 3.06595 8.90123C3.08236 8.89586 3.09791 8.89434 3.10863 8.89474L3.06086 10.1856C3.34518 10.1961 3.60604 10.1058 3.82373 9.94098L3.04415 8.91104ZM3.10679 8.89467C3.09477 8.89426 3.09086 8.89276 3.09259 8.89328C3.0933 8.8935 3.09471 8.89398 3.09652 8.89482C3.09834 8.89566 3.09994 8.89657 3.10117 8.89736L2.39904 9.98158C2.60324 10.1138 2.83068 10.1777 3.0627 10.1856L3.10679 8.89467ZM3.10117 8.89736C3.10103 8.89727 3.10165 8.89767 3.10272 8.89859C3.1038 8.89951 3.10485 8.90056 3.10574 8.90157C3.10783 8.90395 3.10688 8.90366 3.10402 8.89785L1.94574 9.46961C2.04832 9.67742 2.20039 9.85294 2.39904 9.98158L3.10117 8.89736ZM3.10319 8.89618C3.11741 8.92478 3.12768 8.96185 3.12854 9.00152C3.12935 9.03937 3.12129 9.06259 3.11983 9.06637L1.9148 8.60117C1.80969 8.87343 1.80219 9.18092 1.94657 9.47129L3.10319 8.89618ZM3.13008 9.03785L3.9594 6.54773L2.73387 6.13957L1.90455 8.62969L3.13008 9.03785ZM3.70133 5.80391L1.59164 4.41752L0.882256 5.49701L2.99194 6.8834L3.70133 5.80391ZM1.57598 4.40755C1.57432 4.40652 1.58858 4.41509 1.6063 4.43805C1.62503 4.4623 1.63853 4.49092 1.64536 4.51829L0.392053 4.83092C0.46768 5.1341 0.659346 5.35984 0.897916 5.50698L1.57598 4.40755ZM1.64536 4.51829C1.6442 4.51363 1.64641 4.52016 1.64572 4.53541C1.645 4.55142 1.64138 4.56992 1.63434 4.58783L0.432168 4.11529C0.337814 4.35534 0.334959 4.60204 0.392053 4.83092L1.64536 4.51829ZM1.63434 4.58783C1.63243 4.5927 1.63031 4.59701 1.62825 4.60061C1.6262 4.60419 1.62453 4.60651 1.62371 4.60756C1.62203 4.60973 1.62489 4.60541 1.63675 4.59606L0.837147 3.58159C0.665181 3.71713 0.519314 3.89359 0.432168 4.11529L1.63434 4.58783ZM1.63559 4.59697C1.62519 4.60513 1.61161 4.61255 1.59766 4.61711C1.58443 4.62143 1.57904 4.62054 1.58614 4.62054V3.32882C1.32136 3.32882 1.0607 3.4062 0.838308 3.58067L1.63559 4.59697ZM1.58614 4.62054H4.19051V3.32882H1.58614V4.62054ZM4.80447 4.17516L5.64834 1.59082L4.42044 1.18987L3.57656 3.7742L4.80447 4.17516ZM5.63691 1.62294C5.6406 1.61338 5.64158 1.61439 5.63658 1.62079C5.63422 1.62382 5.6311 1.6273 5.62728 1.63084C5.62346 1.63437 5.61971 1.63724 5.61645 1.6394L4.90395 0.561966C4.67875 0.710889 4.52357 0.920203 4.43187 1.15774L5.63691 1.62294ZM5.61607 1.63965C5.61909 1.63765 5.61629 1.63996 5.60822 1.64244C5.59992 1.645 5.59216 1.64586 5.58727 1.64586V0.354144C5.33827 0.354144 5.10639 0.428296 4.90432 0.561717L5.61607 1.63965ZM5.58727 1.64586C5.58239 1.64586 5.57463 1.645 5.56633 1.64244C5.55826 1.63996 5.55545 1.63765 5.55847 1.63965L6.27022 0.561717C6.06816 0.428296 5.83628 0.354144 5.58727 0.354144V1.64586ZM5.5581 1.6394C5.55483 1.63724 5.55109 1.63437 5.54727 1.63084C5.54345 1.6273 5.54032 1.62382 5.53796 1.62079C5.53297 1.61439 5.53395 1.61338 5.53764 1.62294L6.74267 1.15774C6.65097 0.920203 6.4958 0.710889 6.2706 0.561966L5.5581 1.6394ZM5.5262 1.59082L6.37008 4.17516L7.59799 3.7742L6.75411 1.18987L5.5262 1.59082ZM6.98403 4.62054H9.58841V3.32882H6.98403V4.62054ZM9.58841 4.62054C9.59551 4.62054 9.59011 4.62143 9.57689 4.61711C9.56293 4.61255 9.54936 4.60513 9.53896 4.59697L10.3362 3.58067C10.1138 3.4062 9.85319 3.32882 9.58841 3.32882V4.62054ZM9.53779 4.59606C9.54966 4.60541 9.55252 4.60973 9.55084 4.60756C9.55002 4.60651 9.54835 4.60419 9.5463 4.60061C9.54423 4.59701 9.54212 4.5927 9.5402 4.58783L10.7424 4.11529C10.6552 3.89358 10.5094 3.71713 10.3374 3.58159L9.53779 4.59606ZM9.5402 4.58783C9.53317 4.56992 9.52955 4.55142 9.52883 4.53541C9.52814 4.52016 9.53035 4.51363 9.52919 4.51829L10.7825 4.83092C10.8396 4.60204 10.8367 4.35534 10.7424 4.11529L9.5402 4.58783ZM9.52919 4.51829C9.53601 4.49092 9.54952 4.4623 9.56825 4.43805C9.58597 4.41509 9.60023 4.40652 9.59856 4.40755L10.2766 5.50698C10.5152 5.35984 10.7069 5.1341 10.7825 4.83092L9.52919 4.51829ZM9.5829 4.41752L7.47322 5.80391L8.1826 6.8834L10.2923 5.49701L9.5829 4.41752ZM7.21514 6.54773L8.04447 9.03785L9.27 8.62969L8.44067 6.13957L7.21514 6.54773ZM8.05472 9.06637C8.05337 9.06287 8.04539 9.04003 8.04614 9.0026C8.04692 8.96333 8.05699 8.92646 8.07111 8.89785L9.22939 9.46961C9.37264 9.17941 9.36455 8.87263 9.25975 8.60117L8.05472 9.06637ZM8.07194 8.89618C8.06887 8.90236 8.06768 8.90301 8.0695 8.90095C8.07026 8.90009 8.07118 8.89917 8.07214 8.89835C8.07308 8.89754 8.0736 8.89722 8.07338 8.89736L8.7755 9.98158C8.97375 9.8532 9.12565 9.67825 9.22856 9.47129L8.07194 8.89618ZM8.07338 8.89736C8.07461 8.89657 8.07621 8.89566 8.07803 8.89482C8.07984 8.89398 8.08125 8.8935 8.08196 8.89328C8.08369 8.89276 8.07977 8.89426 8.06775 8.89467L8.11185 10.1856C8.34386 10.1777 8.57131 10.1138 8.7755 9.98158L8.07338 8.89736ZM8.06592 8.89474C8.07664 8.89434 8.09219 8.89586 8.1086 8.90123C8.12452 8.90643 8.13191 8.91219 8.1304 8.91104L7.35082 9.94098C7.56851 10.1058 7.82936 10.1961 8.11368 10.1856L8.06592 8.89474ZM8.11323 8.89848L5.95989 7.37749L5.21466 8.43255L7.368 9.95354L8.11323 8.89848Z" fill="#472500" mask="url(#path-1-outside-1_1210_3883)"/>
<defs>
<linearGradient id="paint0_linear_1210_3883" x1="5.58727" y1="1" x2="5.58727" y2="9.54054" gradientUnits="userSpaceOnUse">
<stop offset="0.424" stop-color="#FFE16A"/>
<stop offset="1" stop-color="#A07815" stop-opacity="0.88"/>
</linearGradient>
</defs>
</svg>
